<svg width="569" height="470" viewBox="0 0 569 470" fill="none" xmlns="http://www.w3.org/2000/svg">
    <path d="M337 418C336.6 416.8 333.167 416.167 331.5 416C331.5 408.5 331.5 392.8 331.5 390C331.5 387.2 334.167 386.5 335.5 386.5C340.846 386.5 348.098 386.5 355.5 386.5M337 418C337.4 419.2 337.167 423.833 337 426C334.167 427.5 324.7 430.4 309.5 430C290.5 429.5 282 427.5 281 426C281 424.4 281 419.667 281 417.5M337 418C335.5 418.5 319.5 422.5 309.5 422.5C299.5 422.5 287.5 420 281 417.5M281 417.5C281.333 417 282.7 415.7 285.5 414.5C285.5 412.1 285.5 398.833 285.5 392.5C285.833 390.333 285.2 386 280 386C274.8 386 265.833 386 262 386V385M262 385C260.833 385.333 257.5 385.3 253.5 382.5M262 385C264 377.5 262.5 348.5 261.5 341.5M253.5 382.5C251.5 384.5 250.667 385.667 250.5 386H225.5L225 340.5H226.5V329.5C226 329 225 325.7 225 316.5C225 307.3 225 284.667 225 274.5H236V317.5C236 319.833 235.6 325.3 234 328.5C234 330.9 234 337.5 234 340.5H242.5V339.5H250V340.5H256V343.5M253.5 382.5C254.667 379.667 257 372.4 257 366C257 359.6 256.333 348.333 256 343.5M256 343.5C257 342.833 259.5 341.5 261.5 341.5M261.5 341.5C261.5 340.3 262.167 340 262.5 340L279.5 340.5C281.667 340.5 286 339.2 286 334C286 328.8 286 314.5 286 308C286.333 307.667 288.4 307 294 307C294 304 294 130 294 103C294 76 286.5 66 257 66C233.4 66 155.5 66 119.5 66L119 67H110.5L109 61M109 61H102.5V71H100.5V72H85.5V71H84V61H75V68H71.5V69L54 68.5V67H50V61H47L45 57.5M109 61V57.5H99.5M45 57.5V36H46H118.5V37.5H247.5C255.833 37.5 274.5 38.1 282.5 40.5C292.5 43.5 317.5 56.5 320 79C321.2 97.8 322.833 238.833 323.5 307C326.167 307 331.5 307.3 331.5 308.5C331.5 309.7 331.5 328.333 331.5 337.5C331.333 338.333 331.9 340.1 335.5 340.5C337.738 340.749 346.664 340.753 355.5 340.68M45 57.5H54M54 57.5V65.5L71.5 66V57.5M54 57.5H71.5M71.5 57.5H86.5M86.5 57.5V69.5H99.5V57.5M86.5 57.5H99.5M355.5 340.68C360.875 340.636 366.217 340.563 370 340.5V308.5H381L381.5 340.5H387.5C389.667 349 392.7 370.1 387.5 386.5C385.115 386.5 370.022 386.5 355.5 386.5M355.5 340.68C357 344.453 360 354.8 360 366C360 377.2 357 384.333 355.5 386.5"
          stroke="white"/>
</svg>
