<svg xmlns="http://www.w3.org/2000/svg" width="377.983" height="111.999" viewBox="0 0 10001 2963" shape-rendering="geometricPrecision" text-rendering="geometricPrecision" image-rendering="optimizeQuality" fill-rule="evenodd" clip-rule="evenodd"><defs><style>.fil0{fill:#1a1a1a;fill-rule:nonzero}</style><linearGradient id="id0" gradientUnits="userSpaceOnUse" x1="1050.88" y1="2857.31" x2="3059.16" y2="106.31"><stop offset="0" stop-color="#4c50ff"/><stop offset="1" stop-color="#9b4aaa"/></linearGradient></defs><g id="Слой_x0020_1"><path class="fil0" d="M4689 2514v203h-21v-185h-128v185h-21v-203h170zm145 0c26 0 46 6 61 18 15 13 22 30 22 51 0 22-7 39-22 51-15 13-35 19-61 19h-55v64h-21v-203h76zm-1 120c20 0 36-5 47-13 10-9 15-22 15-38s-5-29-15-37c-11-9-27-14-47-14h-54v102h54zm220 85c-20 0-38-5-55-14-16-9-29-21-38-37s-14-33-14-53c0-19 5-37 14-52 9-16 22-28 38-37 17-9 35-14 55-14s38 4 54 13c17 9 29 22 39 37 9 16 13 34 13 53 0 20-4 38-13 53-10 16-22 28-39 37-16 9-34 14-54 14zm0-20c16 0 31-3 44-10 12-8 23-18 30-31 7-12 11-27 11-43s-4-30-11-43-18-23-30-30c-13-7-28-11-44-11s-31 4-44 11-23 17-30 30c-8 13-12 27-12 43s4 31 12 43c7 13 17 23 30 31 13 7 28 10 44 10zm247 20c-20 0-39-5-55-14s-29-21-38-37c-9-15-14-33-14-53 0-19 5-37 14-53 9-15 22-28 38-37 17-9 35-13 55-13 15 0 29 3 42 8 12 5 23 12 32 22l-13 13c-16-16-36-24-61-24-16 0-30 4-43 11-13 8-24 18-31 30-8 13-11 27-11 43s3 30 11 43c7 13 18 23 31 30 13 8 27 11 43 11 25 0 45-8 61-24l13 14c-9 9-20 17-32 22-13 5-27 8-42 8zm273-205l-92 171c-7 12-15 21-23 27-9 6-19 9-29 9-8 0-16-2-25-6l6-17c7 2 13 4 19 4 13 0 24-7 33-22l6-10-83-156h23l71 137 72-137h22zm154 98c14 3 25 9 32 17 7 9 11 19 11 33 0 18-6 31-19 41-12 9-31 14-55 14h-90v-203h85c21 0 38 4 50 13 13 9 19 22 19 39 0 11-3 21-9 29-6 7-14 13-24 17zm-100-6h63c15 0 27-3 36-10 8-6 12-15 12-28 0-12-4-21-12-28-9-6-21-9-36-9h-63v75zm69 94c35 0 53-13 53-39s-18-39-53-39h-69v78h69zm258-37h-114l-24 54h-22l93-203h21l93 203h-23l-24-54zm-8-18l-49-109-49 109h98zm263-131v203h-21v-94h-127v94h-22v-203h22v90h127v-90h21zm238 0v203h-21v-94h-127v94h-21v-203h21v90h127v-90h21zm213 0v203h-21v-62h-73l-42 62h-23l46-66c-15-4-26-12-34-24-8-11-12-25-12-41 0-23 7-41 21-53 15-13 34-19 59-19h79zm-138 71c0 17 5 30 15 39s24 13 43 13h59v-105h-57c-19 0-34 5-44 14-11 9-16 22-16 39zm282-71h149v18h-128v66h67c24 0 42 5 55 15 12 10 18 24 18 43 0 20-6 35-20 45-13 11-33 16-58 16h-83v-203zm83 186c19 0 33-4 42-11 10-7 15-18 15-32s-5-24-14-31c-10-7-24-10-43-10h-62v84h62zm128-186h21v203h-21v-203zm178 97c13 3 24 9 31 18 8 8 12 19 12 31s-4 22-11 31-17 16-29 20c-13 5-26 8-40 8s-27-3-40-7-25-11-35-20l8-15c8 8 19 13 30 17s23 6 35 6c11 0 21-1 30-5 9-3 17-8 22-15 6-6 8-14 8-23 0-12-4-21-13-27-10-7-23-10-40-10h-43v-17h42c15 0 26-3 34-9s12-15 12-26c0-12-5-21-16-28-10-7-23-10-38-10-10 0-20 1-29 4-10 3-20 7-29 13l-7-18c20-12 42-18 65-18 14 0 27 2 38 7 12 4 21 10 27 19 7 8 10 18 10 29s-3 20-9 28-14 13-25 17zm266-97v203h-21v-94h-127v94h-22v-203h22v90h127v-90h21zm212 184v19h-143v-203h139v18h-118v73h105v18h-105v75h122zm135 21c-20 0-38-5-54-14s-29-21-38-37c-9-15-14-33-14-53 0-19 5-37 14-53 9-15 22-28 38-37s35-13 55-13c15 0 29 3 41 8 13 5 24 12 33 22l-14 13c-16-16-36-24-60-24-16 0-30 4-44 11-13 8-23 18-30 30-8 13-12 27-12 43s4 30 12 43c7 13 17 23 30 30 14 8 28 11 44 11 25 0 45-8 60-24l14 14c-9 9-20 17-33 22s-27 8-42 8zm274-205l-93 171c-6 12-14 21-23 27-8 6-18 9-29 9-7 0-16-2-24-6l6-17c7 2 13 4 19 4 13 0 24-7 33-22l5-10-82-156h23l71 137 72-137h22zm234 98c14 3 25 9 32 17 7 9 11 19 11 33 0 18-6 31-19 41-12 9-30 14-55 14h-90v-203h85c21 0 38 4 51 13 12 9 18 22 18 39 0 11-3 21-9 29-6 7-14 13-24 17zm-99-6h62c15 0 27-3 36-10 8-6 12-15 12-28 0-12-4-21-12-28-9-6-21-9-36-9h-62v75zm68 94c35 0 53-13 53-39s-18-39-53-39h-68v78h68zm204-186h21v203h-21v-203zm259 0v203h-21v-94h-127v94h-22v-203h22v90h127v-90h21zm201 18h-71v185h-21v-185h-71v-18h163v18zm182 166v19h-144v-203h139v18h-117v73h105v18h-105v75h122zm123-184c26 0 47 6 61 18 15 13 22 30 22 51 0 22-7 39-22 51-14 13-35 19-61 19h-54v64h-22v-203h76zm0 120c20 0 35-5 46-13 11-9 16-22 16-38s-5-29-16-37c-11-9-26-14-46-14h-54v102h54zm297-120v203h-21v-94h-127v94h-22v-203h22v90h127v-90h21zm212 184v19h-143v-203h139v18h-118v73h105v18h-105v75h122zm181-166h-72v185h-21v-185h-71v-18h164v18zm37-18h22v203h-22v-203z"/><path d="M16 1720c-7-45-11-90-14-135-3-56-3-112 0-168 2-30 5-61 8-91 3-23 7-47 10-70 4-20 7-40 12-59 3-18 7-35 11-53 4-16 8-31 13-47 4-14 8-29 13-43 4-13 8-26 13-40 4-12 8-25 13-37 4-12 9-23 14-35 4-11 9-22 13-33 5-11 10-21 14-31l15-30c4-10 9-19 14-29 5-9 9-18 14-27l15-27c4-8 9-17 14-25l15-24 15-24c5-7 10-15 15-22 5-8 10-15 15-22 4-7 10-14 15-21l15-21c5-7 10-13 15-20 5-6 10-13 15-19s10-13 15-19 10-12 16-18l15-18c5-6 10-12 15-17 5-6 11-11 16-17 5-5 10-11 15-16 5-6 11-11 16-16 1-2 3-4 5-5 3-4 7-7 10-11 6-5 11-10 16-15s10-10 16-15c5-4 10-9 15-14 6-5 11-9 16-14 5-4 11-9 16-14 5-4 10-8 16-13 5-4 10-9 16-13l15-12c6-5 11-9 16-13 6-4 11-8 16-12 6-4 11-8 16-11 6-4 11-8 16-12 6-4 11-7 16-11 6-4 11-7 16-11 6-3 11-7 16-10 6-4 11-7 17-11 5-3 10-6 16-10 5-3 10-6 16-9 5-4 11-7 16-10s11-6 16-9c6-3 11-6 17-9 5-3 10-6 16-9 5-3 11-5 16-8 6-3 11-6 16-8 6-3 11-6 17-8 5-3 11-6 16-8 6-3 11-5 17-8 5-2 10-5 16-7 5-2 11-5 16-7 6-2 11-5 17-7 5-2 11-4 16-7 6-2 11-4 17-6 5-2 11-4 16-6 6-2 11-4 17-6 5-2 11-4 16-6 6-2 12-4 17-6 6-1 11-3 17-5 5-2 11-3 16-5 6-2 11-3 17-5s11-3 17-5c5-1 11-3 16-4 6-2 11-3 17-5 6-1 11-2 17-4 5-1 11-3 17-4 5-1 11-2 16-4 6-1 12-2 17-3 6-1 11-2 17-3 6-2 11-3 17-4 5-1 11-2 17-3 5-1 11-1 17-2 5-1 11-2 16-3 6-1 12-2 17-2 6-1 12-2 17-3 6 0 12-1 17-1 6-1 12-2 17-2 6-1 12-1 17-2 6 0 12-1 17-1 6-1 12-1 17-2 6 0 12 0 17-1h17c6-1 12-1 17-1 6 0 12 0 18-1h51c6 0 12 1 17 1h17c6 0 12 1 18 1 5 0 11 0 17 1 6 0 11 1 17 1s12 1 17 1c6 1 12 1 18 2 6 0 11 1 17 2 6 0 12 1 17 2 6 0 12 1 18 2s11 1 17 2l18 3c6 1 11 2 17 3l18 3c5 1 11 2 17 3l18 3c5 2 11 3 17 4s12 3 18 4 11 3 17 4c6 2 12 3 18 5 6 1 12 3 18 4 5 2 11 3 17 5s12 3 18 5l18 6c5 1 11 3 17 5l18 6 18 6c6 2 12 4 18 7 6 2 12 4 17 6 6 3 12 5 18 7 6 3 12 5 18 8 6 2 12 5 18 7 6 3 12 5 18 8s12 5 18 8l18 9 18 9 18 9 18 9c6 3 12 7 19 10 6 3 12 7 18 10 6 4 12 7 18 11 6 3 12 7 18 11 6 3 12 7 19 11l18 12 18 12c6 4 13 8 19 12 6 5 12 9 18 14 6 4 13 9 19 13 6 5 12 9 18 14 7 5 13 10 19 15s12 10 19 15l18 15c7 6 13 11 19 17 6 5 13 11 19 17s13 11 19 17 13 12 19 19c4 3 7 7 11 10l8 8 19 20 19 19 19 19 19 19 20 19 19 19 19 19 19 19 19 19 19 19 19 19 19 20 19 19 19 19 20 19 19 19 19 19 19 19 19 19 19 19 19 19 19 20 19 19 19 19 19 19 20 19 19 19 19 19 19 19 19 19 19 19 19 19 19 20 19 19 19 19 19 19 20 19 19 19 19 19 19 19 19 19 19 19 19 20 19 19 19 19 19 19 20 19 19 19 19 19 19 19 19 19 19 19 19 19 19 20 19 19 19 19 19 19 20 19 19 19 19 19 19 19 19 19 19 19 19 20 19 19 19 19 19 19 20 19 19 19 19 19 19 19 19 19 19 19 19 19 19 20 19 19 19 19 19 19 20 19 19 19 19 19 18 18-15 15-15 16-16 15-16 16-15 16-16 15-15 16-16 15-15 16-7 6-11-12-19-19-19-19-20-19-19-19-19-19-19-19-19-19-19-19-19-20-19-19-19-19-19-19-19-19-20-19-19-19-19-19-19-19-19-19-19-20-19-19-19-19-19-19-19-19-20-19-19-19-19-19-19-19-19-19-19-19-19-20-19-19-19-19-19-19-19-19-20-19-19-19-19-19-19-19-19-19-19-20-19-19-19-19-19-19-19-19-19-19-20-19-19-19-19-19-19-19-19-19-19-20-19-19-19-19-19-19-19-19-20-19-19-19-19-19-19-19-19-19-19-20-19-19-19-19-19-19-19-19-20-19-19-19-19-19-19-19-19-19-19-19-19-20-19-19-19-19-19-19-19-19-20-19-19-19-19-19-19-19-19-19-14-15c-2-1-3-3-5-4-6-7-13-13-19-19s-13-12-19-17c-6-6-13-12-19-17-6-6-12-11-19-16-6-6-12-11-18-16-7-5-13-10-19-15-6-4-12-9-19-14-6-4-12-9-18-13-6-5-12-9-19-14l-18-12-18-12c-7-4-13-8-19-12-6-3-12-7-18-11-6-3-12-7-18-10-6-4-12-7-18-10-6-4-13-7-19-10l-18-9c-6-4-12-7-18-10-6-2-12-5-18-8s-12-6-18-8c-6-3-12-6-18-8-6-3-12-5-18-8-6-2-12-5-18-7s-11-5-17-7l-18-6c-6-2-12-4-18-7-6-2-12-3-18-5l-18-6c-5-2-11-4-17-5-6-2-12-4-18-5-6-2-12-4-18-5-5-2-11-3-17-5-6-1-12-2-18-4-6-1-11-2-17-4l-18-3c-6-1-11-3-17-4l-18-3c-6-1-11-2-17-3s-12-2-18-2c-5-1-11-2-17-3-6 0-12-1-17-2-6-1-12-1-18-2-6 0-11-1-17-2-6 0-12 0-17-1-6 0-12-1-18-1-5 0-11-1-17-1s-11 0-17-1h-35c-5 0-11-1-17 0h-34c-6 0-11 1-17 1s-11 0-17 1c-6 0-11 0-17 1-6 0-12 1-17 1-6 1-12 1-17 2-6 0-12 1-17 2-6 0-11 1-17 1-6 1-11 2-17 3s-11 1-17 2-11 2-17 3c-5 1-11 2-17 3-5 1-11 2-17 3-5 1-11 2-16 3-6 1-12 3-17 4-6 1-11 2-17 4-6 1-11 2-17 4-5 1-11 3-16 4-6 2-12 3-17 5-6 1-11 3-17 4-5 2-11 4-16 5-6 2-12 4-17 5-6 2-11 4-17 6-5 2-11 4-16 6-6 2-11 4-17 6-5 2-11 4-16 6-6 2-11 4-17 6-5 2-11 5-16 7-6 2-11 5-17 7-5 2-11 5-16 7-6 3-11 5-17 8-5 2-11 5-16 7-5 3-11 6-16 8-6 3-11 6-17 9-5 2-10 5-16 8-5 3-11 6-16 9-6 3-11 6-16 9-6 3-11 6-17 10-5 3-10 6-16 9-5 4-11 7-16 10-5 4-11 7-16 11-5 3-11 7-16 10-5 4-11 8-16 11-6 4-11 8-16 12s-11 8-16 11c-5 4-11 8-16 13-5 4-11 8-16 12s-11 8-16 13c-5 4-10 8-16 13-5 4-10 9-15 13-6 5-11 10-16 14-5 5-11 10-16 15s-10 10-16 15l-15 15-3 2c-4 5-8 9-13 14s-10 10-15 16l-16 16-15 18-15 18c-6 6-11 12-16 18s-10 13-15 19c-5 7-10 13-15 20s-10 14-15 20c-5 7-10 14-15 22-5 7-10 14-15 22-5 7-10 15-15 22l-15 24c-5 9-10 17-14 25-5 9-10 18-15 26-5 9-10 19-14 28-5 9-10 19-14 28-5 11-10 21-15 31-4 10-9 21-13 32-5 11-10 23-14 34-5 12-9 25-14 37-4 13-8 26-13 40-4 14-8 28-12 43-5 16-9 32-13 48-4 19-8 37-11 55-4 22-8 44-11 65-4 28-6 56-8 84-4 51-5 103-2 154 2 44 7 88 13 132 8 51 19 100 33 149 7 27 16 54 25 80 7 21 15 41 23 61 7 17 15 34 23 51 7 15 14 29 21 44l21 39 21 36 21 33c6 10 13 20 20 30 6 9 13 19 20 28 6 9 13 18 20 26 6 9 13 17 19 25 7 8 13 16 20 23 6 8 13 15 19 22 7 7 13 14 20 21 6 7 12 14 19 20 2 3 5 6 8 9s7 7 11 10c6 6 12 13 19 19 6 5 12 11 19 17 6 6 12 11 19 17l18 15c7 5 13 11 19 16 6 4 12 9 19 14 6 5 12 10 18 14 6 5 13 9 19 14l18 12c6 5 12 9 19 13l18 12c6 3 12 7 18 11s12 7 19 11c6 4 12 7 18 10 6 4 12 7 18 10 6 4 12 7 18 10l18 9 18 9 18 9c6 2 12 5 18 8 6 2 12 5 18 7 6 3 12 5 18 8 6 2 12 5 18 7s12 4 18 7l18 6c6 2 11 4 17 6l18 6c6 2 12 4 18 5l18 6c5 1 11 3 17 5 6 1 12 3 18 4 6 2 12 3 17 5 6 1 12 2 18 4 6 1 12 2 18 4 5 1 11 2 17 3l18 3c5 2 11 3 17 3l18 3c5 1 11 2 17 3s12 1 17 2c6 1 12 2 18 2 5 1 11 1 17 2s12 1 17 2c6 0 12 1 18 1 5 0 11 1 17 1s11 1 17 1h17c6 1 12 1 18 1h51c6 0 11-1 17-1h17c6-1 12-1 17-1 6-1 12-1 17-2 6 0 12-1 17-1 6-1 12-1 17-2 6 0 12-1 17-2 6 0 12-1 17-2 6 0 12-1 17-2 6-1 11-2 17-2 6-1 11-2 17-3s11-2 17-3c5-1 11-2 17-3 5-1 11-3 16-4 6-1 12-2 17-3 6-2 11-3 17-4 6-2 11-3 17-5 5-1 11-2 16-4 6-1 12-3 17-5 6-1 11-3 17-4 5-2 11-4 16-5 6-2 12-4 17-6 6-1 11-3 17-5 5-2 11-4 16-6 6-2 11-4 17-6 5-2 11-4 16-6 6-2 11-5 17-7 5-2 11-4 16-7 6-2 11-4 17-7 5-2 11-5 16-7 6-2 11-5 17-7 5-3 10-6 16-8 5-3 11-6 16-8 6-3 11-6 17-9 5-3 10-6 16-9 5-2 11-5 16-8s11-7 16-10c6-3 11-6 16-9 6-3 11-7 17-10 5-3 10-7 16-10 5-4 11-7 16-11 5-3 11-7 16-11 5-3 11-7 16-11 5-3 11-7 16-11s11-8 16-12 11-8 16-12 10-8 16-13c5-4 10-8 16-13 5-4 10-8 15-13 6-4 11-9 16-14 5-4 11-9 16-14 5-4 10-9 16-14l15-15c4-4 9-8 13-13l3-2 15-16 16-16 16-15 15-16 16-15 15-16 16-16 15-15 16-16 16-15 15-16 16-16 15-15 16-16 15-16 16-15 16-16 15-15 7-7 11 11 19 19 19 19 19 19 19 19 19 19 19 19 19 18-15 15-16 16-16 16-15 15-16 16-15 15-16 16-15 16-16 15-16 16-15 15-16 16-15 16-16 15-15 16-16 15-16 16-15 16-8 8-2 2c-2 2-4 3-6 5l-15 15c-6 5-11 10-16 15s-10 10-16 15c-5 4-10 9-15 14-6 4-11 9-16 14-5 4-11 9-16 13s-10 9-16 13c-5 4-10 9-16 13-5 4-10 8-16 12l-15 12c-6 4-11 8-16 12-6 4-11 8-16 12-6 3-11 7-16 11-6 3-11 7-17 11-5 3-10 7-16 10-5 4-10 7-16 11-5 3-10 6-16 10-5 3-11 6-16 10-5 3-11 6-16 9-6 3-11 6-16 10-6 3-11 6-17 9-5 3-10 6-16 8-5 3-11 6-16 9-6 3-11 6-17 8-5 3-10 6-16 8-5 3-11 6-16 8-6 3-11 5-17 8-5 2-11 5-16 7-5 3-11 5-16 7-6 3-11 5-17 7-5 3-11 5-16 7-6 2-11 4-17 7-5 2-11 4-16 6-6 2-11 4-17 6-5 2-11 4-16 6-6 2-12 3-17 5-6 2-11 4-17 6-5 2-11 3-16 5-6 2-11 3-17 5-5 2-11 3-17 5-5 1-11 3-16 4-6 2-11 3-17 5-6 1-11 3-17 4-5 1-11 3-17 4-5 1-11 3-16 4-6 1-11 2-17 4-6 1-11 2-17 3-5 1-11 2-17 3-5 1-11 2-17 3-5 1-11 2-16 3-6 1-12 2-17 3-6 1-12 1-17 2-6 1-11 2-17 2-6 1-11 2-17 2-6 1-11 2-17 2-6 1-11 1-17 2s-11 1-17 2c-6 0-11 0-17 1-6 0-11 1-17 1s-12 1-17 1c-6 0-12 0-17 1h-103c-6-1-12-1-17-1-6 0-12-1-18-1-5 0-11-1-17-1s-11-1-17-1c-6-1-12-1-18-2-5 0-11-1-17-1-6-1-11-2-17-2-6-1-12-2-18-2-5-1-11-2-17-3-6 0-12-1-17-2l-18-3c-6-1-11-2-17-3l-18-3c-6-1-11-2-17-4l-18-3c-6-1-12-3-17-4-6-1-12-3-18-4s-12-3-18-4c-5-2-11-3-17-5s-12-3-18-5c-6-1-12-3-17-5-6-2-12-3-18-5l-18-6c-6-2-12-4-18-5-6-2-11-4-17-7l-18-6-18-6c-6-3-12-5-18-7-6-3-12-5-18-8-6-2-12-4-18-7s-12-5-18-8c-6-2-12-5-18-8-6-2-12-5-18-8l-18-9-18-9-18-9c-6-3-12-7-18-10s-12-7-18-10-12-7-18-10c-7-4-13-8-19-11-6-4-12-8-18-11l-18-12c-6-4-13-8-19-12l-18-12c-6-5-12-9-19-13-6-5-12-9-18-14-6-4-12-9-19-14-6-4-12-9-18-14s-13-10-19-15-12-10-19-16c-6-5-12-10-18-16-7-5-13-11-19-16-7-6-13-12-19-18-7-6-13-12-19-18-6-5-12-11-18-17l-1-1c-7-7-13-13-19-20-7-7-13-14-20-20-6-7-13-15-19-22s-13-14-19-22c-7-8-13-15-20-23s-13-17-20-25c-6-9-13-17-19-26-7-9-14-18-20-27-7-10-14-20-20-29-7-11-14-21-21-31-7-11-13-22-20-33l-21-36-21-39c-7-14-15-29-22-43-7-16-15-32-22-48-8-18-15-37-22-55-9-22-17-44-24-67-10-28-18-57-26-86-15-54-26-109-34-164zM3534 403l7 6-62 62-115 115-116 116-115 116-27 26-9-9-12-11-12-12-11-12-12-12-12-11-12-12-11-12-12-11-12-12-11-12-12-12-8-7 76-76 116-116 115-115 116-116 12-12 11 10 11 12 12 12 12 11 11 12 12 12 12 12 12 11 11 12 12 12 12 11 11 12zm277 277l5 4-45 45-116 116-115 115-116 116-43 43-8-7-11-12-12-11-12-12-11-12-12-12-12-11-12-12-11-12-12-12-12-11-11-12-10-9 93-93 115-116 116-115 111-111 12 12 12 12 12 11 11 12 12 12 12 11 12 12 11 12 12 12 12 11 11 12 12 12zm277 276v1l-6 7-115 115-116 115-115 116-82 82-4-3-12-12-11-12-12-11-12-12-11-12-12-12-12-11-12-12-11-12-12-12-12-11-11-12-2-2 16-15 115-116 116-115 115-116 73-72 4 4 12 12 12 11 11 12 12 12 12 11 12 12 11 12 12 12 12 11 11 12 12 12 12 11zm-541 1576l15 15-12 12-13 14-14 13-13 13-13 13-13 14-14 13-13 13-13 13-13 14-14 13v1l-16-16-16-16-16-16-16-17-17-16-16-16-16-16-16-17-17-16-16-16-16-17-16-16-17-16-16-16-16-17-16-16-17-16-16-17-16-16-16-16-17-16-16-17-16-16-16-16-17-17-16-16-16-16-16-16-17-17-16-16-16-16-16-17-16-16-17-16-16-16-16-17-16-16-17-16-16-17-16-16-16-16-17-16-16-17-16-16-16-16-17-17-16-16-16-16-16-16-17-17-16-16-16-16-16-17-17-16-16-16-16-16-16-17-17-16-16-16-16-16-16-17-17-16-16-16-16-17-16-16-17-16-16-16-16-17-16-16-17-16-16-17-16-16-16-16-17-16-16-17-16-16-16-16-17-17-16-16-16-16-16-16-17-17-16-16-16-16-16-17-17-16-16-16-16-16-16-17-17-16-16-16-16-17-16-16-17-16-16-16-16-17-12-12c-2-1-3-3-4-4-6-5-11-10-16-15-6-5-11-9-16-14-6-4-11-8-16-12s-11-8-16-12c-5-3-10-7-16-10-5-3-10-7-15-10s-10-6-16-8c-5-3-10-6-15-8-5-3-10-5-15-8-5-2-11-4-16-6l-15-6-15-6c-5-1-10-3-15-4-5-2-10-3-15-5-5-1-10-2-15-4l-15-3-15-3c-5 0-10-1-15-2s-10-1-15-2c-4 0-9-1-14-1s-10-1-15-1-10 0-15-1h-14c-5 0-10 0-15 1h-14c-5 1-10 1-15 2-5 0-9 1-14 1-5 1-10 1-15 2-4 1-9 2-14 3s-9 2-14 3-10 2-14 3c-5 1-10 2-15 4-4 1-9 2-14 4-5 1-9 3-14 4-5 2-9 4-14 6-5 1-9 3-14 5s-9 4-14 6-9 4-14 7c-5 2-9 4-14 7-5 2-9 5-14 7-4 3-9 6-13 9-5 2-10 5-14 8-5 3-9 7-14 10-4 3-9 6-13 10-5 3-9 7-14 10-4 4-9 8-13 12-5 4-9 8-14 12l-9 9c-1 1-2 3-4 4-4 5-9 10-13 14-5 5-9 10-13 15-5 6-9 11-13 17-5 5-9 11-13 17s-9 13-13 19l-12 21c-4 8-8 16-12 23-5 9-8 18-12 27l-12 30c-4 12-8 24-11 36-4 15-7 31-10 46-4 26-6 53-6 80 0 34 3 68 10 101 6 26 13 52 23 77 5 14 11 29 19 43 5 11 11 22 17 33l18 27c5 8 11 15 17 23 5 7 11 14 16 20 6 6 11 12 17 18 2 3 5 5 7 8 3 3 6 6 9 8 5 5 11 10 16 15s11 9 16 13c5 5 11 9 16 13 5 3 10 7 16 11 5 3 10 7 15 10s11 6 16 9l15 9c5 2 10 5 16 7 5 3 10 5 15 8l15 6 15 6c5 2 10 3 15 5s10 3 16 5c5 1 10 2 15 4l15 3c4 2 9 3 14 3l15 3c5 1 10 2 15 2 5 1 10 2 15 2 5 1 10 1 15 1 4 1 9 1 14 1s10 0 15 1c5 0 10 0 14-1h15c5 0 10-1 15-1 4 0 9-1 14-1 5-1 10-1 14-2 5-1 10-1 15-2s9-2 14-3 10-2 14-3l15-3c4-1 9-3 14-4s9-3 14-4c5-2 9-3 14-5s10-4 14-5c5-2 10-4 14-6 5-2 10-4 14-6 5-2 9-5 14-7s9-5 14-7c5-3 9-5 14-8 4-3 9-6 13-8 5-3 10-6 14-9 5-3 9-7 14-10 4-3 9-7 13-10 5-4 9-7 14-11 4-4 9-8 13-12 2-1 4-3 6-5l8-8 13-13 13-13 13-13 14-13 13-14 13-13 13-13 14-13 13-13 13-14 13-13 14-13 13-13 13-14 13-13 14-13 13-13 13-14 13-13 14-13 13-13 2-3 14 13 16 17 16 16 16 16 16 16 17 17 16 16 16 16 16 16 1 1-14 14-13 13-13 13-13 13-14 13-13 14-13 13-13 13-14 13-13 14-13 13-13 13-14 13-13 13-13 14-13 13-14 13-13 13-13 14-13 13-14 13-10 10-3 3c-4 4-9 8-13 12-5 4-9 8-14 12-4 4-9 7-13 11-5 4-9 7-14 11-4 3-9 6-13 10-5 3-9 6-14 9-4 3-9 7-14 10-4 3-9 5-13 8-5 3-9 6-14 9-5 2-9 5-14 8-4 2-9 5-14 7-4 3-9 5-14 7-4 3-9 5-13 7-5 2-10 4-14 7-5 2-10 4-14 6-5 2-10 3-14 5-5 2-10 4-14 6-5 1-10 3-15 5-4 1-9 3-14 5-4 1-9 3-14 4-4 1-9 3-14 4s-9 3-14 4-10 2-14 3l-15 3c-4 1-9 2-14 3s-10 2-14 3c-5 1-10 1-15 2-4 1-9 1-14 2s-10 1-15 2c-4 0-9 1-14 1s-10 1-14 1c-5 0-10 1-15 1h-58c-5 0-10-1-15-1s-10-1-15-1-10-1-14-1c-5-1-10-1-15-2s-10-1-15-2-10-2-15-2l-15-3-15-3c-5-1-10-2-15-4l-15-3c-5-2-10-3-15-4-5-2-10-3-15-5-5-1-10-3-15-5-5-1-10-3-15-5l-15-6-15-6-15-6c-6-3-11-5-16-7-5-3-10-5-15-8-5-2-10-5-16-8-5-3-10-5-15-8l-15-9c-6-4-11-7-16-10s-11-7-16-10c-5-4-10-8-15-11-6-4-11-8-16-12-6-4-11-8-16-13-5-4-11-8-16-13s-11-9-16-14c-6-5-11-10-16-16-2-1-4-3-6-5-4-4-7-7-10-11-6-6-12-12-17-18-6-6-11-12-16-19-6-7-12-14-17-21-6-7-12-15-17-23-6-8-12-17-17-25-6-10-12-19-18-29l-18-33c-6-14-13-27-18-41-8-17-14-35-20-52-11-31-19-62-24-94-7-38-11-76-12-114-1-32 1-65 5-97 2-18 5-37 9-55 3-15 6-29 10-44 3-12 7-24 11-36 3-11 7-22 11-32s8-19 12-29c4-9 8-17 12-26l12-24c4-7 8-14 12-22 4-7 9-14 13-20 4-7 8-13 12-20 5-6 9-12 13-18s9-11 13-17 9-11 13-16 9-11 13-16 9-9 13-14c5-5 9-10 13-14 3-2 5-5 7-7s4-4 7-6c4-5 8-9 13-13 4-4 9-8 13-12 5-4 9-8 14-12 4-3 9-7 13-10 5-4 9-8 14-11 4-3 9-7 13-10 5-3 9-6 14-9 4-4 9-7 14-10 4-2 9-5 13-8 5-3 10-6 14-8 5-3 9-6 14-8 5-3 9-5 14-8 4-2 9-4 14-7 4-2 9-4 14-6 4-3 9-5 14-7 4-2 9-4 13-6 5-2 10-3 15-5 4-2 9-4 14-6 4-1 9-3 14-5 4-1 9-3 14-4 5-2 9-3 14-4 5-2 9-3 14-4 5-2 10-3 14-4l15-3c4-2 9-3 14-4s9-1 14-2l15-3c4-1 9-1 14-2s10-1 14-2c5 0 10-1 15-1 5-1 9-1 14-2 5 0 10 0 15-1h14c5 0 10-1 15-1h14c5 0 10 0 15 1h15c5 0 9 1 14 1s10 1 15 1c5 1 10 1 15 2 5 0 10 1 15 1 5 1 9 2 14 3 5 0 10 1 15 2l15 3 15 3 15 3c5 2 10 3 15 4 5 2 10 3 15 4 5 2 10 3 15 5s10 3 15 5 10 4 15 5l15 6c6 2 11 4 16 6 5 3 10 5 15 7 5 3 10 5 15 7 5 3 11 5 16 8s10 5 15 8 10 6 16 9l15 9c5 3 11 7 16 10s10 7 15 10c6 4 11 8 16 12 5 3 11 7 16 12 5 4 11 8 16 12 5 5 10 9 16 14 5 5 11 10 16 14 5 6 11 11 16 16l1 1 15 15 16 16 17 17 16 16 16 16 16 16 17 17 16 16 16 16 16 16 17 17 16 16 16 16 16 16 17 17 16 16 16 16 16 16 17 17 16 16 16 16 16 16 17 16 16 17 16 16 16 16 16 16 17 17 16 16 16 16 16 16 17 17 16 16 16 16 16 16 17 17 16 16 16 16 16 16 17 17 16 16 16 16 16 16 17 17 16 16 16 16 16 16 17 16 16 17 16 16 16 16 17 16 16 17 16 16 16 16 17 16 16 17 16 16 16 16 16 16 17 17 16 16 16 16 16 16 17 17 16 16 16 16 16 16 17 17 16 16 16 16 16 16 17 16 16 17 16 16 16 16 17 16 16 17 16 16 16 16 17 16 16 17 16 16 16 16 17 16 16 17 16 16 16 16 16 16 17 17 16 16 16 16 16 16 17 16 16 17 16 16zm282-268l8 8-6 7-15 14-14 15-15 14-14 15-15 14-14 15-15 14-14 15-15 14-8 9-8-8-18-18-18-17-17-18-18-18-18-18-18-17-17-18-18-18-18-18-18-18-18-17-17-18-18-18-18-18-18-18-18-17-17-18-18-18-18-18-18-17-18-18-17-18-18-18-18-18-18-17-18-18-17-18-18-18-18-18-18-17-17-18-18-18-18-18-18-17-18-18-17-18-18-18-18-18-18-17-18-18-17-18-18-18-18-18-18-17-18-18-17-18-18-18-18-17-18-18-18-18-17-18-18-18-18-17-18-18-17-18-18-18-18-18-18-17-18-18-17-18-18-18-18-17-18-18-18-18-17-18-18-18-18-17-18-18-18-18-17-18-18-18-18-17-18-18-18-18-17-18-18-17-18-18-18-18-17-18-18-18-18-17-18-18-18-18-17-18-18-18-18-17-18-18-18-18c-5-6-11-11-17-17s-12-11-18-16-12-11-18-16c-5-5-11-9-17-14s-11-9-17-14c-6-4-12-8-18-13-5-4-11-8-17-12s-11-8-17-11c-6-4-11-8-17-11-6-4-11-7-17-11-6-3-11-6-17-10-6-3-11-6-17-9s-11-6-17-9c-6-2-11-5-17-8-5-3-11-5-17-8-5-2-11-5-16-7-6-2-11-5-17-7s-11-4-17-7c-5-2-11-4-16-6-6-2-11-4-17-5-5-2-11-4-16-6-6-1-11-3-17-5-5-1-11-3-16-4-6-2-11-3-17-5-5-1-11-2-16-4-6-1-11-2-16-3-6-1-11-3-17-4-5-1-11-2-16-2-5-1-11-2-16-3-6-1-11-2-17-2-5-1-10-2-16-2-5-1-10-2-16-2-5-1-11-1-16-2-5 0-11 0-16-1h-16c-6-1-11-1-16-1h-48c-5 0-11 1-16 1s-11 0-16 1c-5 0-11 1-16 1s-10 1-16 1c-5 1-10 2-16 2-5 1-10 2-15 2-6 1-11 2-16 3-5 0-11 1-16 2l-15 3c-6 1-11 2-16 3s-11 3-16 4-10 2-15 4c-6 1-11 2-16 4-5 1-10 3-15 4-6 2-11 3-16 5-5 1-10 3-15 5-6 1-11 3-16 5l-15 6c-5 1-11 3-16 6l-15 6-15 6c-5 3-11 5-16 7-5 3-10 5-15 7-5 3-10 5-15 8s-10 5-15 8-10 5-15 8c-6 3-11 6-16 9l-15 9c-5 3-10 6-15 10l-15 9c-5 4-10 7-15 11-5 3-10 7-14 10l-15 12c-5 3-10 7-15 11l-15 12c-5 5-10 9-15 13s-9 9-14 13c-5 5-10 9-15 14l-12 12-2 2-15 15c-5 5-10 10-14 16-5 5-10 10-15 16-4 6-9 11-14 17s-9 12-14 18-10 12-14 18c-5 7-10 14-14 20-5 7-9 14-14 21s-9 14-14 22c-4 7-9 15-13 23-5 8-10 16-14 25-5 8-9 17-13 26-5 9-9 19-13 28-5 11-9 21-13 31-5 12-9 23-13 34-4 13-8 25-12 38-4 14-8 28-12 43-4 17-7 34-10 51-4 22-7 43-10 65-4 37-5 74-4 110 0 49 5 97 14 145 7 36 16 72 27 107 7 21 14 41 22 62 7 16 14 32 21 47 6 13 13 27 20 40 6 11 13 23 20 34 6 10 12 21 19 31l18 27c6 9 13 17 19 25s12 16 18 23c6 8 12 15 18 22 6 6 12 13 18 20l18 18 5 5 13 13c6 5 12 11 18 16 6 6 11 11 17 16l18 15c6 4 11 9 17 13 6 5 12 9 17 14l18 12c5 4 11 8 17 12 6 3 11 7 17 11 6 3 11 7 17 10 6 4 11 7 17 10s11 6 17 9 11 6 17 9c5 3 11 6 17 9 5 2 11 5 17 8 5 2 11 5 16 7 6 3 11 5 17 7 6 3 11 5 17 7 5 2 11 4 16 6 6 2 11 4 17 6 5 2 11 4 16 5 6 2 11 4 17 5 5 2 11 4 16 5 6 2 11 3 17 5 5 1 11 2 16 4 6 1 11 2 17 3 5 1 10 3 16 4 5 1 11 2 16 3 6 1 11 1 16 2 6 1 11 2 17 3 5 0 10 1 16 2 5 0 11 1 16 2 5 0 11 1 16 1 5 1 11 1 16 1 6 1 11 1 16 1 6 0 11 1 16 1h48c6 0 11-1 16-1 6 0 11 0 16-1 5 0 11 0 16-1 5 0 11-1 16-1 5-1 10-1 16-2 5-1 10-1 15-2 6-1 11-1 16-2s11-2 16-3 10-2 16-3l15-3c6-1 11-2 16-3s10-3 16-4c5-1 10-3 15-4s11-3 16-4c5-2 10-3 15-5 5-1 11-3 16-5 5-1 10-3 15-5s10-4 16-6c5-1 10-3 15-5s10-4 15-7c5-2 11-4 16-6s10-5 15-7 10-5 15-7 10-5 15-7c6-3 11-6 16-8l15-9c5-2 10-5 15-8l15-9c5-3 10-6 15-10l15-9c5-4 10-7 15-11 5-3 10-7 15-10 5-4 10-8 15-11l15-12c5-4 9-8 14-12l15-12c5-5 10-9 15-13 5-5 10-9 14-14 1-1 3-2 4-3l11-11 14-15 15-14 14-15 15-14 14-15 15-14 14-15 15-14 15-15 14-14 15-15 14-14 15-15 14-14 15-15 14-14 15-15 14-14 15-15 1-1 16 16 18 18 18 18 18 17 17 18 18 18 18 18 18 18 3 3-3 2-14 15-15 14-14 15-15 14-14 15-15 14-14 15-15 14-14 14-15 15-14 14-15 15-14 14-15 15-14 14-15 15-15 14-14 15-15 14-10 11c-1 1-3 2-4 4-5 4-10 9-15 13l-14 14-15 12c-5 5-10 9-15 13l-15 12c-4 4-9 8-14 11l-15 12c-5 3-10 7-15 11-5 3-10 7-15 10-5 4-10 7-15 10-5 4-10 7-15 10s-10 7-15 10l-15 9-15 9c-5 3-10 5-15 8l-15 9c-5 2-10 5-16 7-5 3-10 6-15 8-5 3-10 5-15 8-5 2-10 4-15 7-5 2-10 4-16 6-5 3-10 5-15 7l-15 6c-5 2-10 4-16 6l-15 6-15 6c-6 1-11 3-16 5s-10 3-15 5c-6 1-11 3-16 5-5 1-10 3-15 4-6 2-11 3-16 4-5 2-10 3-16 4-5 2-10 3-15 4s-11 3-16 4l-15 3c-6 1-11 2-16 3s-11 2-16 3-10 2-16 3c-5 0-10 1-15 2-6 1-11 1-16 2s-11 1-16 2-10 1-16 2c-5 0-10 1-15 1-6 1-11 1-16 1-6 1-11 1-16 1-6 1-11 1-16 1s-11 0-16 1h-48c-5 0-11 0-16-1h-16c-5-1-11-1-16-1-6 0-11-1-16-1-6-1-11-1-16-2-6 0-11-1-17-1-5-1-10-1-16-2-5-1-11-1-16-2s-11-2-16-3c-6 0-11-1-16-2-6-1-11-2-17-3-5-1-11-2-16-3s-11-2-16-4c-6-1-11-2-17-3-5-1-11-3-16-4-6-1-11-3-16-4-6-2-11-3-17-5-5-1-11-3-16-5-6-1-11-3-17-5-5-1-11-3-16-5-6-2-11-4-17-6s-11-4-17-6c-5-2-11-4-16-6-6-2-11-4-17-7-5-2-11-4-17-7-5-2-11-5-16-7-6-3-12-5-17-8-6-2-11-5-17-8s-11-6-17-8c-5-3-11-6-17-9-5-3-11-6-17-9-5-4-11-7-17-10-5-4-11-7-17-10-5-4-11-7-17-11-5-4-11-7-17-11-5-4-11-8-17-12s-11-8-17-12-12-8-17-13c-6-4-12-8-18-13-6-4-11-9-17-14-6-4-12-9-18-14-5-5-11-10-17-16-6-5-12-10-18-16-6-5-12-11-17-16l-12-12-6-6c-6-6-12-12-18-19-6-6-12-13-18-19l-18-21c-6-7-12-15-18-22-7-8-13-16-19-24s-12-16-18-25c-7-9-13-18-19-27s-13-19-19-29c-7-10-13-21-19-32-7-12-14-24-20-35-7-14-13-27-20-41-7-15-14-30-21-46-7-18-15-37-21-56-9-25-17-50-24-75-32-117-44-239-36-360 1-26 4-52 8-78 2-20 6-40 10-60 3-17 7-33 11-50 3-14 7-29 11-43l12-39c4-12 8-24 13-35l12-33c4-10 9-20 13-30s9-19 13-29c5-9 9-18 14-27 4-8 8-17 13-25 4-8 9-16 14-24 4-8 9-15 13-23 5-7 9-14 14-22 5-7 9-14 14-21 4-6 9-13 14-20 4-6 9-12 14-19 4-6 9-12 14-18s9-12 14-18 10-11 14-17c5-5 10-11 15-16 4-6 9-11 14-16s10-10 15-16c4-5 9-10 14-14l1-1 14-14c4-4 9-9 14-13 5-5 10-10 15-14s10-9 14-13l15-12 15-12 15-12c5-4 10-8 15-11 5-4 9-8 14-11 5-4 10-8 15-11 5-4 10-7 15-10 5-4 10-7 15-10s10-7 15-10l15-9 15-9c5-3 10-6 16-9 5-2 10-5 15-8s10-5 15-8 10-5 15-8c5-2 10-5 15-7 5-3 10-5 16-7 5-3 10-5 15-7s10-5 15-7 10-4 16-6l15-6 15-6c5-2 11-4 16-6 5-1 10-3 15-5s10-3 16-5c5-2 10-3 15-5 5-1 10-3 16-4 5-2 10-3 15-5 5-1 11-2 16-4 5-1 10-2 15-4 6-1 11-2 16-3s10-2 16-4l15-3c6-1 11-2 16-3 5 0 10-1 16-2l15-3c6 0 11-1 16-2 5 0 11-1 16-2 5 0 11-1 16-2 5 0 10-1 16-1 5 0 10-1 16-1 5-1 10-1 15-1 6-1 11-1 16-1 6 0 11-1 16-1h64c6 0 11 1 16 1 6 0 11 0 16 1 6 0 11 0 16 1 6 0 11 1 17 1 5 1 10 1 16 2 5 0 10 1 16 1 5 1 11 2 16 2 5 1 11 2 16 3 6 1 11 1 16 2 6 1 11 2 17 3 5 1 11 2 16 3 6 1 11 2 16 4 6 1 11 2 17 3 5 1 11 3 16 4 6 1 11 3 17 4 5 2 11 3 16 5 5 1 11 3 16 4 6 2 11 4 17 5 5 2 11 4 16 6 6 1 12 3 17 5 6 2 11 4 17 6 5 2 11 4 16 6 6 3 11 5 17 7 5 2 11 5 17 7 5 2 11 5 16 7 6 3 11 5 17 8 6 2 11 5 17 8 5 3 11 5 17 8 5 3 11 6 17 9 5 3 11 6 16 9 6 3 12 6 17 10 6 3 12 6 17 10 6 3 12 7 17 10 6 4 12 8 18 11 5 4 11 8 17 12s11 8 17 12 12 8 17 12c6 5 12 9 18 13 5 5 11 10 17 14 6 5 12 10 17 15l18 15c6 5 12 10 17 15 6 6 12 11 18 17 5 5 11 10 16 16l2 1 18 18 17 18 18 18 18 17 18 18 18 18 17 18 18 17 18 18 18 18 18 17 17 18 18 18 18 18 18 17 17 18 18 18 18 18 18 17 18 18 17 18 18 18 18 17 18 18 18 18 17 18 18 17 18 18 18 18 18 17 17 18 18 18 18 18 18 17 17 18 18 18 18 18 18 17 18 18 17 18 18 18 18 17 18 18 18 18 17 18 18 17 18 18 18 18 17 17 18 18 18 18 18 18 18 17 17 18 18 18 18 18 18 17 18 18 17 18 18 18 18 17 18 18 17 18 18 18 18 17 18 18 18 18 17 17 18 18 18 18 18 18 18 17 17 18 18 18 18 18 18 17 17 18 18 18 18 18 18 17 18 18 17 18 18 17 18 18 18 18 18 18 17 17 18 18z" fill="url(#id0)" fill-rule="nonzero"/><path class="fil0" d="M10001 1967v175h-700v-137l399-473h-389v-175h677v137l-400 473zm-1085-610h227v785h-227zm-543-12c73 0 140 17 199 51 60 33 107 80 141 141s51 132 51 212c0 81-17 152-51 212-34 61-81 108-141 142-59 33-126 50-199 50-108 0-190-34-246-102v91h-218V1059h228v381c57-63 136-95 236-95zm-39 622c58 0 106-20 144-59 37-40 56-93 56-159s-19-119-56-158c-38-39-86-59-144-59s-106 20-144 59c-37 39-56 92-56 158s19 119 56 159c38 39 86 59 144 59zm-1017-327h413v182h-413zm-554-305c122 0 215 29 280 87s98 145 98 262v448h-213v-98c-43 73-122 109-239 109-60 0-113-10-157-30-44-21-78-49-101-85-24-36-35-77-35-122 0-73 27-131 82-173 55-41 140-62 255-62h180c0-50-15-88-45-115-30-26-75-40-135-40-42 0-83 7-124 20-40 13-74 31-102 53l-82-159c43-30 94-53 154-70 60-16 121-25 184-25zm-17 655c39 0 73-9 103-27s52-44 64-79v-81h-156c-93 0-140 31-140 92 0 30 12 53 35 70 22 17 54 25 94 25zm-600-616h202v176h-196v592h-227v-592h-121v-176h121v-35c0-89 26-160 79-212 53-53 128-79 224-79 34 0 66 3 97 11 31 7 56 18 77 31l-60 165c-27-19-57-28-92-28-69 0-104 38-104 114v33zm-688-315h227v1083h-227zm-583 286c121 0 214 29 280 87 65 58 97 145 97 262v448h-213v-98c-42 73-122 109-239 109-60 0-112-10-157-30-44-21-78-49-101-85s-35-77-35-122c0-73 28-131 83-173 54-41 139-62 254-62h181c0-50-15-88-45-115-31-26-76-40-136-40-42 0-83 7-123 20-41 13-75 31-103 53l-82-159c43-30 94-53 154-70 60-16 121-25 185-25zm-18 655c39 0 74-9 104-27s51-44 64-79v-81h-156c-94 0-140 31-140 92 0 30 11 53 34 70s54 25 94 25z"/><path d="M9077 1150c-13 0-25-5-34-14s-13-21-13-35 4-25 13-34c9-8 21-13 34-13 14 0 25 5 34 13 9 9 14 20 14 34s-5 26-14 35-20 14-34 14zm261-273c33 0 59 10 79 30 20 19 31 48 31 87v152h-77v-140c0-21-5-37-14-47s-22-15-40-15c-19 0-35 6-46 17-11 12-17 30-17 54v131h-77V881h73v31c10-11 23-20 38-26s32-9 50-9zm441 137c0 1-1 8-1 21h-201c4 16 12 29 26 39 13 9 30 14 50 14 14 0 26-2 37-6 10-4 20-11 29-19l41 44c-25 28-61 43-109 43-30 0-56-6-79-18s-41-28-53-48c-13-21-19-44-19-71 0-26 6-49 19-70 12-21 29-37 50-48 22-12 46-18 72-18s50 6 71 17 37 27 49 48 18 45 18 72zm-137-79c-18 0-32 5-44 15s-19 23-22 40h131c-3-16-10-30-22-40s-26-15-43-15zm359 198c-8 5-17 10-28 12-11 3-23 5-35 5-31 0-55-8-73-25-17-16-26-39-26-70V946h-40v-59h40v-64h77v64h66v59h-66v108c0 11 3 19 9 26 6 6 14 9 24 9 12 0 23-4 31-10l21 54z" fill="#9b4aaa" fill-rule="nonzero"/></g></svg>