<svg id="logoFooter" xmlns="http://www.w3.org/2000/svg" width="54.389" height="68.017" viewBox="0 0 54.389 68.017">
    <path id="Path_1"
          d="M236.751,50.816c-.048-4.438,1.064-10.052,1.9-14.236.818-4.073,2.2-9.524,2.529-13.6l-12.7.046c-2.947,4.7,2.008,18.78.049,25.318-.674,2.251-1.649,2.674-2.744,4.3-1.543,2.287-.609,1.034-4.434,2.608-10.686,4.4-13.458,12.606-1.758,16.006,8.786,2.553,32.2.52,38.234-6.908,1.636-2.014,2.536-4.308.189-6.469-2.7-2.485-12.146-2.685-15.7-1.2a65.28,65.28,0,0,1,11.321.893c4.482,1.065,5.508,3.4,2.235,6.383C248.8,70.4,224.4,73.6,215.9,67.925c-6.7-4.472,3.5-10.949,8.672-12,.935,1.418.369,1.346,2.016,2.282.945.537,2.02.778,3.017,1.285a12.718,12.718,0,0,1,4.534,4.071c1.376,2.111,1.248,4.1,4.713,3.942.687-.032,1.28-.24,1.954-.29.932-.068,5.018,1.216,3.9-1.71-1.943-.812-2.249.088-3.559-1.715a35.115,35.115,0,0,1-4.324-11.457c2.044-.612,8.65-1.975,11.269.033.217.166-.14.475-.5.647.443.459,1.263.991,1.927.479.571-.44.862-1.292-1.367-2.375a9.685,9.685,0,0,0-3.435-.843c-3.081-.262-5.2.414-7.972.538Z"
          transform="translate(-208.557 -22.982)" fill="#e31c3b" fill-rule="evenodd"/>
    <path id="Path_2"
          d="M412.59,462.809c4.417-.039,7.183,1.281,7.05,5.915-.154,5.38-3.346,5.614-7.04,5.641Zm-2.935,13.005c3.087,0,6.851.476,9.379-.906a6.938,6.938,0,0,0,3.635-6.382c.007-7.987-8.282-7.169-12.939-7.125Z"
          transform="translate(-382.156 -408.006)" fill="#e31c3b" fill-rule="evenodd"/>
    <path id="Path_3"
          d="M522.845,464.62l2.4,5.808-4.569.021,2.172-5.829Zm-4.527,11.557a1.17,1.17,0,0,0,.084-.133l.852-2.112a18.019,18.019,0,0,0,.8-2.188c6.581-.068,5.5-.626,6.628,2.276,1.021,2.629-.072,2.16,3.992,2.145-1.729-3.754-4.677-12.019-5.9-14.4h-2.4c-.162,1.172-4.914,13.216-5.542,14.362Z"
          transform="translate(-476.284 -408.366)" fill="#e31c3b" fill-rule="evenodd"/>
    <path id="Path_4"
          d="M280.617,461.673l-.03,7.722c-.015,3.94.923,6.95,6.38,6.905,5.323-.043,6.431-2.727,6.415-6.406l-.036-8.22h-1.567l.089,8.7c.011,2.982-1.049,4.486-4.115,4.531-3.223.047-4.2-1.435-4.206-4.533l-.035-8.683Z"
          transform="translate(-268.796 -408.283)" fill="#e31c3b" fill-rule="evenodd"/>
    <path id="Path_5"
          d="M192.8,460.807c-1.972-1.371-6.054-1.068-7.65.294a3.63,3.63,0,0,0-1.289,3.6c.73,3.741,8.378,3.378,6.876,7.058-.468,1.146-1.76,1.633-3.281,1.468-1.617-.176-2.146-.96-3.232-1.482l-.517,1.923c9.492,3.672,11.492-3.4,8.693-6.123-1.45-1.41-5.38-2.2-5.84-3.744-.434-1.461.748-2.363,2.012-2.484a5.83,5.83,0,0,1,3.6.946Z"
          transform="translate(-183.704 -406.74)" fill="#e31c3b" fill-rule="evenodd"/>
    <circle id="Ellipse_1" cx="1.02" cy="1.02" r="1.02" transform="translate(16.351 53.485)" fill="#e31c3b"/>
    <circle id="Ellipse_2" cx="1.02" cy="1.02" r="1.02" transform="translate(16.351 56.366)" fill="#e31c3b"/>
</svg>
