<svg xmlns="http://www.w3.org/2000/svg" width="28.654" height="28.653" viewBox="0 0 28.654 28.653">
    <g id="icon_rew" transform="translate(0 -0.001)">
        <g id="Group_131" data-name="Group 131" transform="translate(0 0.001)">
            <path id="Path_3986" data-name="Path 3986"
                  d="M14.326,0A14.327,14.327,0,1,0,28.654,14.328,14.327,14.327,0,0,0,14.326,0ZM6.758,21.667a.688.688,0,0,1-.688-.688V7.676a.688.688,0,0,1,.688-.688H21.9a.688.688,0,0,1,.688.688v7.362H20.966V8.581H7.672v8.885h.759L11.5,12.682l2.05,3.2,1.018,1.587h.883l-1.46-2.276.951-1.483,2.411,3.759h.972v3.358h2.238v.843H6.758ZM19.8,11.562a1.424,1.424,0,1,1-1.424-1.424A1.424,1.424,0,0,1,19.8,11.562Zm3.324,8.272v2.237H21.553V19.834H19.316V18.266h2.238V16.029h1.567v2.237h2.237v1.568Z"
                  transform="translate(0 -0.001)" fill="#e31c3b"/>
        </g>
    </g>
</svg>
