<svg xmlns="http://www.w3.org/2000/svg" width="57.042" height="54" viewBox="0 0 57.042 54"><g transform="translate(0 -8.601)"><g transform="translate(0 8.601)"><g transform="translate(0 0)"><path d="M159.767,95.651a1.16,1.16,0,0,0-.778-.5c-1.627,0-15.633-.566-15.633-16.835a.92.92,0,1,0-1.839,0c0,16.27-14.006,16.835-15.562,16.835a.8.8,0,0,0-.566.212c-.141.071-.212.212-.283.283a1.049,1.049,0,0,0,0,.92.981.981,0,0,0,.849.5h.071c1.627,0,15.562.566,15.562,16.835a.92.92,0,1,0,1.839,0c0-16.2,13.935-16.835,15.562-16.835a1.079,1.079,0,0,0,.849-.5A.87.87,0,0,0,159.767,95.651Zm-17.331,11.318A16.146,16.146,0,0,0,131.4,96.076a16.146,16.146,0,0,0,11.035-10.894,16.146,16.146,0,0,0,11.035,10.894A16.146,16.146,0,0,0,142.437,106.969Z" transform="translate(-102.895 -65.234)" fill="#fff"/><path d="M65.736,20.626a.953.953,0,0,0,.92-.99.936.936,0,0,0-.92-.92c-.849,0-8.488-.283-8.488-9.2a.92.92,0,1,0-1.839,0c0,8.913-7.64,9.2-8.488,9.2h-.071a.923.923,0,0,0-.849.92.936.936,0,0,0,.92.92c.92,0,8.488.283,8.488,9.2a.936.936,0,0,0,.92.92.815.815,0,0,0,.849-.849c0-8.913,7.64-9.2,8.488-9.2h.071Zm-9.479,4.032a9.486,9.486,0,0,0-5.093-5.022,9.517,9.517,0,0,0,5.093-5.022,9.486,9.486,0,0,0,5.093,5.022A9.517,9.517,0,0,0,56.257,24.658Z" transform="translate(-37.865 -8.601)" fill="#fff"/><path d="M19.736,199.116c-.849,0-8.488-.283-8.488-9.2a.92.92,0,1,0-1.839,0c0,8.913-7.64,9.2-8.488,9.2H.849a.923.923,0,0,0-.849.92.936.936,0,0,0,.92.92c.92,0,8.488.283,8.488,9.2a.936.936,0,0,0,.92.92c.424.141.849-.283.849-.849,0-8.913,7.64-9.2,8.488-9.2h.071a.953.953,0,0,0,.92-.99A.936.936,0,0,0,19.736,199.116Zm-9.479,6.013a9.721,9.721,0,0,0-5.093-5.022,9.517,9.517,0,0,0,5.093-5.022,9.486,9.486,0,0,0,5.093,5.022A9.517,9.517,0,0,0,10.257,205.129Z" transform="translate(0 -157.098)" fill="#fff"/></g></g></g></svg>