<svg xmlns="http://www.w3.org/2000/svg" width="49.474" height="53.972" viewBox="0 0 49.474 53.972"><g transform="translate(0 2)"><path d="M2.7,53.972H15.292a2.67,2.67,0,0,0,1.158-.27.894.894,0,0,0,.641.27H48.575a.9.9,0,0,0,.9-.9V38.68a6.3,6.3,0,0,0-5.4-6.225V26.986a.9.9,0,0,0-.9-.9H22.488a.9.9,0,0,0-.9.9v5.469a6.28,6.28,0,0,0-3.6,1.826V17.091a4.5,4.5,0,0,0-2.7-4.116V9.895a.9.9,0,0,0-.9-.9h-2.7V5.4h9a.9.9,0,0,0,.636-1.536l-1.8-1.8a.9.9,0,0,0-.508-.255L6.425.009A.956.956,0,0,0,6.3,0H2.7a.9.9,0,0,0-.9.9V4.5a.9.9,0,0,0,.9.9H6.3V9H3.6a.9.9,0,0,0-.9.9v3.08A4.5,4.5,0,0,0,0,17.091V51.273a2.7,2.7,0,0,0,2.7,2.7Zm44.977-8.1H39.949a7.139,7.139,0,0,0,0-5.4h7.726ZM23.388,27.885h1.8v1.8a.9.9,0,0,0,1.8,0v-1.8h1.8v1.8a.9.9,0,0,0,1.8,0v-1.8h4.5v1.8a.9.9,0,0,0,1.8,0v-1.8h1.8v1.8a.9.9,0,0,0,1.8,0v-1.8h1.8v4.5H23.388Zm-.9,6.3H43.178a4.5,4.5,0,0,1,4.5,4.5H38.891a7.177,7.177,0,0,0-11.217,0H17.991A4.5,4.5,0,0,1,22.488,34.182Zm16.192,9a5.4,5.4,0,1,1-5.4-5.4A5.4,5.4,0,0,1,38.68,43.177Zm-20.689-2.7h8.625a7.139,7.139,0,0,0,0,5.4H17.991Zm0,7.2h9.684a7.177,7.177,0,0,0,11.217,0h8.784v4.5H17.991Zm-1.8-6.3h-6.3V23.388h6.3ZM3.6,3.6V1.8H6.233L18.466,3.547l.051.051Zm6.3,1.8V9H8.1V5.4Zm-5.4,5.4h9v1.8h-9Zm-2.7,6.3a2.7,2.7,0,0,1,2.7-2.7h9a2.7,2.7,0,0,1,2.7,2.7v.9H1.8Zm0,2.7H3.6V42.278a.9.9,0,1,0,1.8,0V19.79H16.192v1.8H9a.9.9,0,0,0-.9.9v19.79a.9.9,0,0,0,.9.9h7.2v8.1a.9.9,0,0,1-.9.9H2.7a.9.9,0,0,1-.9-.9Zm0,0" transform="translate(0 -2)" fill="#fff"/><path d="M32.9,402.7a.9.9,0,0,0,.9-.9v-.9a.9.9,0,1,0-1.8,0v.9A.9.9,0,0,0,32.9,402.7Zm0,0" transform="translate(-28.402 -355.024)" fill="#fff"/></g></svg>