<svg xmlns="http://www.w3.org/2000/svg" width="54" height="54" viewBox="0 0 54 54"><g transform="translate(0 0)"><path d="M153.2,10.26,145.1.333A.9.9,0,0,0,144.4,0H114.7A2.7,2.7,0,0,0,112,2.7V14.4h1.8V2.7a.9.9,0,0,1,.9-.9h28.8V9a2.7,2.7,0,0,0,2.7,2.7h5.4V51.3a.9.9,0,0,1-.9.9h-36a.9.9,0,0,1-.78-.45l-1.558.9A2.711,2.711,0,0,0,114.7,54h36a2.7,2.7,0,0,0,2.7-2.7V10.827a.9.9,0,0,0-.2-.567ZM145.3,9V3.429L150.581,9.9H146.2A.9.9,0,0,1,145.3,9Zm0,0" transform="translate(-99.4)" fill="#fff"/><path d="M36.9,175.5v-16.92l.5-.333a.9.9,0,0,0,.4-.747v-9a.9.9,0,0,0-.9-.9H26.1v-2.7a.9.9,0,0,0-.9-.9H12.6a.9.9,0,0,0-.9.9v2.7H.9a.9.9,0,0,0-.9.9v9a.9.9,0,0,0,.4.749l.5.331V175.5a2.7,2.7,0,0,0,2.7,2.7H34.2A2.7,2.7,0,0,0,36.9,175.5ZM13.5,145.8H24.3v1.8H13.5ZM1.8,149.4H36v7.618L31.23,160.2H6.57L1.8,157.019ZM16.2,162h5.4v3.6H16.2ZM2.7,175.5V159.782l3.1,2.07a.905.905,0,0,0,.5.149h8.1v3.6a1.8,1.8,0,0,0,1.8,1.8h5.4a1.8,1.8,0,0,0,1.8-1.8V162h8.1a.907.907,0,0,0,.5-.151l3.1-2.067V175.5a.9.9,0,0,1-.9.9H3.6a.9.9,0,0,1-.9-.9Zm0,0" transform="translate(0 -127.8)" fill="#fff"/><path d="M160,312h1.8v1.8H160Zm0,0" transform="translate(-142 -276.9)" fill="#fff"/><path d="M168,48h1.8v1.8H168Zm0,0" transform="translate(-149.1 -42.6)" fill="#fff"/><path d="M200,48h5.4v1.8H200Zm0,0" transform="translate(-177.5 -42.6)" fill="#fff"/><path d="M168,80h9v1.8h-9Zm0,0" transform="translate(-149.1 -71)" fill="#fff"/><path d="M267.8,128.9a.9.9,0,0,0-.9-.9H248v1.8h18v10.8h-6.3v1.8h7.2a.9.9,0,0,0,.9-.9Zm0,0" transform="translate(-220.1 -113.6)" fill="#fff"/><path d="M360,288h7.2v1.8H360Zm0,0" transform="translate(-319.5 -255.6)" fill="#fff"/><path d="M360,320h7.2v1.8H360Zm0,0" transform="translate(-319.5 -284)" fill="#fff"/><path d="M360,352h7.2v1.8H360Zm0,0" transform="translate(-319.5 -312.4)" fill="#fff"/><path d="M360,384h7.2v1.8H360Zm0,0" transform="translate(-319.5 -340.8)" fill="#fff"/></g></svg>