<svg xmlns="http://www.w3.org/2000/svg" width="55.821" height="44.006" viewBox="0 0 55.821 44.006">
    <path d="M-20.246-25.97a30.766,30.766,0,0,1-3.233.821q-2.332.5-3.657.663l-.583-3.71a25.136,25.136,0,0,0,5.962-2.093,24.818,24.818,0,0,0,5.062-3.154h.053l4.187.583V-3.71l6.042.583V0H-26.606V-3.127l6.36-.53ZM2.014,4.823q2.014.106,3.074.106A14.772,14.772,0,0,0,11.74,3.445,12.107,12.107,0,0,0,16.483-.61a9.906,9.906,0,0,0,1.749-5.7q0-3.975-1.908-5.724a7.879,7.879,0,0,0-5.512-1.749,17.4,17.4,0,0,0-3.843.477A17.878,17.878,0,0,0,3.5-12.19L1.749-13.409,4.293-32.966H20.67l.53-1.007h3.657l-1.113,6.625H9.222L7.049-16.324a19.868,19.868,0,0,1,3.683-1.4,16.715,16.715,0,0,1,4.585-.61q5.406,0,8.295,2.809T26.5-7.579A13.685,13.685,0,0,1,23.823.663,17.81,17.81,0,0,1,16.4,6.44,26.183,26.183,0,0,1,5.724,8.533a17.368,17.368,0,0,1-3.71-.371Z"
          transform="translate(28.571 34.723)" fill="none" stroke="#fff" stroke-width="1.5"/>
</svg>
