<svg xmlns="http://www.w3.org/2000/svg" width="40.5" height="54.001" viewBox="0 0 40.5 54.001">
    <g transform="translate(-0.001 0)">
        <path d="M14.328,6.846l-2.7-6.3A.9.9,0,0,0,10.8,0H3.6a.9.9,0,0,0-.827.546l-2.7,6.3a.894.894,0,0,0-.068.446L2.6,32.4H1.8a.9.9,0,0,0-.9.9V49.5A4.505,4.505,0,0,0,5.4,54H9a4.505,4.505,0,0,0,4.5-4.5V33.3a.9.9,0,0,0-.9-.9h-.8L14.4,7.292a.894.894,0,0,0-.068-.446ZM11.7,34.2v3.6h-9V34.2Zm0,15.3A2.7,2.7,0,0,1,9,52.2H5.4a2.7,2.7,0,0,1-2.7-2.7V39.6h9ZM4.412,32.4l-.49-4.732a.867.867,0,0,0,.175.137l5.4,2.7a.863.863,0,0,0,.682.045L9.989,32.4Zm6.271-6.711a.881.881,0,0,0-.38-.394L4.9,22.6a.9.9,0,1,0-.805,1.61l5.4,2.7a.893.893,0,0,0,1.082-.221l-.232,2.247c-.017-.01-.027-.026-.045-.035L4.9,26.2a.889.889,0,0,0-1.1.271L1.82,7.34,4.194,1.8h6.014l2.374,5.54Zm0,0"
              transform="translate(0)" fill="#fff"/>
        <path d="M32.092,40.495a.9.9,0,0,0,.4,1.208l5.4,2.7a.9.9,0,0,0,.805-1.61l-5.4-2.7A.9.9,0,0,0,32.092,40.495Zm0,0"
              transform="translate(-28.397 -35.497)" fill="#fff"/>
        <path d="M38.7,74.792l-5.4-2.7a.9.9,0,0,0-.805,1.61l5.4,2.7a.9.9,0,1,0,.805-1.61Zm0,0"
              transform="translate(-28.397 -63.897)" fill="#fff"/>
        <path d="M38.7,106.793l-5.4-2.7a.9.9,0,1,0-.805,1.61l5.4,2.7a.9.9,0,1,0,.805-1.61Zm0,0"
              transform="translate(-28.397 -92.297)" fill="#fff"/>
        <path d="M38.7,138.793l-5.4-2.7a.9.9,0,0,0-.805,1.61l5.4,2.7a.9.9,0,1,0,.805-1.61Zm0,0"
              transform="translate(-28.397 -120.697)" fill="#fff"/>
        <path d="M38.7,170.793l-5.4-2.7a.9.9,0,0,0-.805,1.61l5.4,2.7a.9.9,0,1,0,.805-1.61Zm0,0"
              transform="translate(-28.397 -149.097)" fill="#fff"/>
        <path d="M169.9,144a6.307,6.307,0,0,0-6.3,6.3v3.163A9.874,9.874,0,0,0,160,161.1v19.8a.9.9,0,0,0,.9.9h18a.9.9,0,0,0,.9-.9V161.1a9.867,9.867,0,0,0-3.6-7.633V150.3A6.307,6.307,0,0,0,169.9,144Zm-4.5,6.3a4.5,4.5,0,0,1,9,0v13.5h-9ZM178,161.1V180H161.8V161.1a8.068,8.068,0,0,1,1.8-5.082V164.7a.9.9,0,0,0,.9.9h10.8a.9.9,0,0,0,.9-.9v-8.683A8.061,8.061,0,0,1,178,161.1Zm0,0"
              transform="translate(-141.999 -127.8)" fill="#fff"/>
        <path d="M203.295,360.092a11.229,11.229,0,0,1-10,0,.9.9,0,1,0-.805,1.61,13.04,13.04,0,0,0,11.605,0,.9.9,0,1,0-.805-1.61Zm0,0"
              transform="translate(-170.397 -319.497)" fill="#fff"/>
        <path d="M203.295,400.092a11.229,11.229,0,0,1-10,0,.9.9,0,1,0-.805,1.61,13.04,13.04,0,0,0,11.605,0,.9.9,0,1,0-.805-1.61Zm0,0"
              transform="translate(-170.397 -354.997)" fill="#fff"/>
        <path d="M288.1,91.6a2.7,2.7,0,0,1-2.7-2.7.9.9,0,1,0-1.8,0,2.7,2.7,0,0,1-2.7,2.7.9.9,0,1,0,0,1.8,2.7,2.7,0,0,1,2.7,2.7.9.9,0,1,0,1.8,0,2.7,2.7,0,0,1,2.7-2.7.9.9,0,0,0,0-1.8Zm-3.6,1.8a4.551,4.551,0,0,0-.9-.9,4.551,4.551,0,0,0,.9-.9,4.539,4.539,0,0,0,.9.9A4.539,4.539,0,0,0,284.5,93.4Zm0,0"
              transform="translate(-248.499 -78.1)" fill="#fff"/>
    </g>
</svg>
