<svg id="logo" xmlns="http://www.w3.org/2000/svg" width="81.205" height="101.553" viewBox="0 0 81.205 101.553">
    <path id="Path_1"
          d="M248.953,64.539c-.072-6.627,1.589-15.008,2.843-21.255,1.221-6.081,3.29-14.22,3.776-20.3l-18.955.068c-4.4,7.018,3,28.039.073,37.8-1.007,3.361-2.463,3.992-4.1,6.415-2.3,3.414-.909,1.544-6.62,3.894-15.954,6.565-20.094,18.822-2.624,23.9,13.118,3.811,48.079.776,57.085-10.313,2.442-3.007,3.787-6.432.282-9.658-4.032-3.711-18.135-4.008-23.436-1.791,5.393-.069,13.855.609,16.9,1.333,6.692,1.59,8.224,5.083,3.337,9.53-10.577,9.626-47,14.4-59.691,5.928-10-6.677,5.228-16.347,12.948-17.912,1.4,2.117.551,2.009,3.011,3.407,1.41.8,3.017,1.162,4.5,1.918a18.988,18.988,0,0,1,6.77,6.078c2.055,3.151,1.863,6.126,7.036,5.886,1.026-.048,1.91-.359,2.918-.432,1.391-.1,7.492,1.815,5.826-2.554-2.9-1.213-3.358.131-5.314-2.561-2.367-3.259-5.964-12.753-6.456-17.106,3.051-.913,12.915-2.948,16.826.05.324.248-.209.709-.751.966.662.685,1.885,1.48,2.878.716.853-.657,1.286-1.93-2.04-3.546a14.46,14.46,0,0,0-5.128-1.258c-4.6-.391-7.765.619-11.9.8Z"
          transform="translate(-206.859 -22.982)" fill="#fff" fill-rule="evenodd"/>
    <path id="Path_2"
          d="M414.037,463.524c6.6-.058,10.724,1.912,10.527,8.831-.229,8.032-5,8.383-10.512,8.422Zm-4.382,19.418c4.61,0,10.229.71,14-1.353a10.359,10.359,0,0,0,5.428-9.529c.01-11.925-12.365-10.7-19.319-10.637Z"
          transform="translate(-368.598 -381.701)" fill="#fff" fill-rule="evenodd"/>
    <path id="Path_3"
          d="M525.812,466.026l3.579,8.672-6.822.031,3.243-8.7Zm-6.759,17.256a1.746,1.746,0,0,0,.126-.2l1.272-3.153a26.917,26.917,0,0,0,1.192-3.268c9.825-.1,8.212-.934,9.9,3.4,1.525,3.925-.108,3.226,5.96,3.2-2.582-5.606-6.982-17.946-8.809-21.494l-3.591,0c-.243,1.75-7.336,19.732-8.274,21.443Z"
          transform="translate(-456.295 -382.036)" fill="#fff" fill-rule="evenodd"/>
    <path id="Path_4"
          d="M280.632,461.673l-.045,11.529c-.023,5.883,1.378,10.376,9.526,10.31,7.947-.065,9.6-4.072,9.578-9.564l-.055-12.273H297.3l.133,12.986c.016,4.453-1.566,6.7-6.144,6.765-4.812.07-6.272-2.142-6.28-6.768l-.053-12.965Z"
          transform="translate(-262.982 -381.959)" fill="#fff" fill-rule="evenodd"/>
    <path id="Path_5"
          d="M197.282,461.245c-2.944-2.047-9.039-1.594-11.422.439a5.42,5.42,0,0,0-1.925,5.382c1.09,5.586,12.509,5.044,10.266,10.538-.7,1.711-2.628,2.439-4.9,2.191-2.415-.263-3.2-1.433-4.826-2.212l-.772,2.871c14.172,5.483,17.158-5.08,12.98-9.142-2.165-2.105-8.033-3.28-8.719-5.591-.648-2.181,1.116-3.527,3-3.709a8.7,8.7,0,0,1,5.381,1.413Z"
          transform="translate(-183.704 -380.522)" fill="#fff" fill-rule="evenodd"/>
    <circle id="Ellipse_1" cx="1.523" cy="1.523" r="1.523" transform="translate(24.413 79.857)" fill="#fff"/>
    <circle id="Ellipse_2" cx="1.523" cy="1.523" r="1.523" transform="translate(24.413 84.157)" fill="#fff"/>
</svg>
