<svg xmlns="http://www.w3.org/2000/svg" width="213.897" height="69.6" viewBox="0 0 213.897 69.6">
    <path d="M38.28-36.96a15.342,15.342,0,0,0-2.772-8.712,9.255,9.255,0,0,0-7.326-3.63A14.979,14.979,0,0,0,19.8-46.068a35.328,35.328,0,0,0-6.534,6.4,45.16,45.16,0,0,0-4.95,7.722A45.008,45.008,0,0,0,4.752-23.5c-.462,1.452-.858,2.838-1.254,4.29a.345.345,0,1,0,.66.2,62.688,62.688,0,0,1,3.036-8.316,48.291,48.291,0,0,1,4.026-7.788,39.371,39.371,0,0,1,5.412-6.864,23.315,23.315,0,0,1,7.128-5.28,9.367,9.367,0,0,1,8.382-.066A10.6,10.6,0,0,1,36.7-40.788a17.8,17.8,0,0,1,.528,4.95A29.263,29.263,0,0,1,36.5-31.02c-.726,2.838-1.518,5.676-2.508,8.448A61.241,61.241,0,0,1,26.268-7.524a54.874,54.874,0,0,1-5.412,6.336A25.288,25.288,0,0,1,14.19,3.63,13.218,13.218,0,0,1,6.4,4.884,8.355,8.355,0,0,1,.792.528c-2.376-4.422-1.914-9.9-1.056-14.586a53.551,53.551,0,0,1,5.28-14.916A50.692,50.692,0,0,1,14.85-42.108a27.686,27.686,0,0,1,2.97-2.574c.066-.066-.066-.2-.132-.132A41.159,41.159,0,0,0,6.27-32.6,54.8,54.8,0,0,0-.528-17.16c-1.254,4.95-2.046,10.428-.66,15.444A11.454,11.454,0,0,0,2.838,4.422,10.266,10.266,0,0,0,10.56,5.874C16.368,4.884,20.922.66,24.618-3.7A60.034,60.034,0,0,0,33.66-18.744c1.122-2.772,2.112-5.676,2.97-8.58C37.488-30.492,38.412-33.66,38.28-36.96ZM75.5-3.828a4.388,4.388,0,0,0-3.168-.264v-.066a11.851,11.851,0,0,1-.594-4.29c.264-3.3,1.98-6.336,3.564-9.108a.5.5,0,0,0-.792-.594,110.36,110.36,0,0,1-8.448,9.174c-.726.66-1.452,1.386-2.244,2.046-.528.528-1.518,1.518-2.376.924-.528-.4-.462-1.32-.33-1.914a14.323,14.323,0,0,1,.726-2.772,24.3,24.3,0,0,1,1.386-2.97,7.426,7.426,0,0,1,.792-1.386,5.8,5.8,0,0,1,.4-.66c.132-.2.4-.4.462-.66,0,.132.066.33.2.2a.344.344,0,0,0,.066-.528c-.2-.264-.594-.132-.792.066a6.918,6.918,0,0,0-.924,1.122c-.4.528-.726,1.122-1.056,1.65a20.211,20.211,0,0,0-1.452,3.234,12.89,12.89,0,0,0-.792,3.234,2.4,2.4,0,0,0,.858,2.244,2.429,2.429,0,0,0,2.772-.462,21.337,21.337,0,0,0,2.9-2.574c.924-.858,1.848-1.782,2.706-2.706.99-.99,1.98-2.046,2.97-3.1a19.166,19.166,0,0,0-1.056,2.706,12.017,12.017,0,0,0-.528,3.432,12.473,12.473,0,0,0,.528,3.5c.066.2.066.33.132.528a10.158,10.158,0,0,0-2.97,1.782,6.594,6.594,0,0,0-1.914,2.9c-.2.726-.2,1.716.528,2.112.858.528,1.98-.132,2.706-.66A6.567,6.567,0,0,0,72.138-.33a5.214,5.214,0,0,0,.33-2.838,4.423,4.423,0,0,1,2.772,0C75.57-3.036,75.834-3.63,75.5-3.828ZM71.346-.792A5.98,5.98,0,0,1,69.168,1.65c-.33.264-1.65,1.122-1.848.264a3.283,3.283,0,0,1,.99-2.508,8.866,8.866,0,0,1,2.838-2.112,1.224,1.224,0,0,0,.462-.132A4.395,4.395,0,0,1,71.346-.792ZM98.6-12.276a42.6,42.6,0,0,0-3.828,2.046,27.971,27.971,0,0,1-3.894,1.518,15.8,15.8,0,0,1-6.336.462,3.419,3.419,0,0,1-2.178-1.056,2.289,2.289,0,0,1,0-2.574,5.5,5.5,0,0,0,3.366.726A6.3,6.3,0,0,0,89.5-12.8c.99-.924,1.32-2.772-.4-3.168a7.373,7.373,0,0,0-4.95,1.254c-1.254.792-2.64,1.848-3.036,3.366a2.954,2.954,0,0,0,.924,3.036c1.65,1.386,4.356,1.254,6.4.99a16.943,16.943,0,0,0,5.346-1.452A15.727,15.727,0,0,0,96.36-10.1a13.31,13.31,0,0,0,2.508-1.782A.254.254,0,0,0,98.6-12.276ZM85.932-14.52a5.867,5.867,0,0,1,2.046-.528,3.088,3.088,0,0,1,1.122.132c.4.132.33.528.2.858A4.524,4.524,0,0,1,86-11.946a6.068,6.068,0,0,1-3.432-.2l.066-.066A8.815,8.815,0,0,1,85.932-14.52Zm39.93,3.1c-3.3,1.98-6.6,4.026-10.494,4.488-1.386.2-3.432.2-4.29-1.122-.858-1.386-.066-3.1.594-4.356.264-.4.462-.792.726-1.188a8.727,8.727,0,0,0,2.838-3.168.545.545,0,0,0-.594-.792,4.3,4.3,0,0,0-2.112,1.782c-.264.462-.594.924-.858,1.452-.33.2-.66.33-.99.528a31.252,31.252,0,0,1-5.544,1.518,14.256,14.256,0,0,0-2.97.99,1.443,1.443,0,0,0,.2-.33l1.584-2.574c.264-.462.462-.924.726-1.386a3.4,3.4,0,0,0,.594-1.32c.066-.264-.264-.33-.4-.2a6.3,6.3,0,0,0-.792,1.056c-.264.462-.528.858-.792,1.32-.594.858-1.122,1.782-1.65,2.64-.4.594-.792,1.254-1.188,1.848A5.172,5.172,0,0,0,98.34-6.6c-.066.528.726.66.99.264.528-.99,1.056-1.98,1.65-2.9a9.444,9.444,0,0,1,.99-.726,16.285,16.285,0,0,1,4.884-1.584,24.451,24.451,0,0,0,3.762-1.056,5.652,5.652,0,0,0-.792,4.092,3.926,3.926,0,0,0,3.894,2.64,14.6,14.6,0,0,0,6.27-1.254,24.36,24.36,0,0,0,6.27-3.762C126.588-11.154,126.192-11.616,125.862-11.418Zm46.332-1.716c-1.848,1.122-3.828,2.112-5.742,3.036a28.6,28.6,0,0,1-6.072,2.046,8.635,8.635,0,0,1-5.016-.132A3.433,3.433,0,0,1,153.78-9.5c-.594-.792-.792-1.914-1.65-2.574-1.188-.792-2.772,0-3.96.462-.858.33-1.782.792-2.64,1.188a29.141,29.141,0,0,0,2.244-3.96,4.331,4.331,0,0,0,.528-2.376,1.967,1.967,0,0,0-1.716-1.518,15.664,15.664,0,0,0-7.788.66,11.459,11.459,0,0,0,.462-1.914c.066-.33-.33-.462-.4-.132a1.065,1.065,0,0,0-.2.594c-.2.594-.462,1.188-.66,1.716a10.531,10.531,0,0,0-1.518.66,17.06,17.06,0,0,0-4.356,2.838,11.805,11.805,0,0,0-1.782,1.848,8.006,8.006,0,0,0-1.386,2.046c-.528,1.188-.33,2.9,1.32,2.772,1.32-.066,2.508-1.188,3.366-2.112a23.969,23.969,0,0,0,4.686-7.062,17.726,17.726,0,0,1,6.138-1.122,5.391,5.391,0,0,1,2.508.33c.792.462.33,1.65,0,2.31a25,25,0,0,1-3.234,5.412c-.264.4.066.99.528.726a25.905,25.905,0,0,1,4.092-1.98c.99-.4,2.706-1.386,3.564-.264.528.792.792,1.782,1.386,2.508a4.949,4.949,0,0,0,1.848,1.188A9.7,9.7,0,0,0,160.314-7a27.124,27.124,0,0,0,5.94-1.914,28.744,28.744,0,0,0,6.27-3.762C172.788-12.87,172.458-13.332,172.194-13.134Zm-37.95,1.848a12.527,12.527,0,0,1-2.706,2.574,2.627,2.627,0,0,1-1.386.594c-.594,0-.594-.528-.462-1.056a6.7,6.7,0,0,1,1.056-1.716,17.984,17.984,0,0,1,1.518-1.65,15.606,15.606,0,0,1,3.564-2.64,6.65,6.65,0,0,1,1.518-.792A27.454,27.454,0,0,1,134.244-11.286Zm54.318-4.62c-.462-.792-1.518-.528-2.244-.33a14.692,14.692,0,0,0-2.9.858A23.689,23.689,0,0,0,173.25-7.062q1.782-3.465,3.762-6.93c1.782-2.97,3.7-5.808,5.742-8.58.132-.2-.2-.462-.33-.264a79.027,79.027,0,0,0-9.834,15.51c-1.056,2.178-2.112,4.422-3.1,6.666-.858,1.782-1.65,3.63-2.376,5.412-1.716,4.488-3.036,9.042-4.488,13.6-.132.462-.264.99-.462,1.518-.132.462.594.594.726.2,1.848-5.874,3.828-11.748,6.072-17.424.528-1.254.99-2.442,1.518-3.63.462-.858.924-1.782,1.452-2.64a27.049,27.049,0,0,1,7.788-8.844,19.614,19.614,0,0,1,4.95-2.574,10,10,0,0,1,2.772-.66c.264,0,.528.066.528.4a1.8,1.8,0,0,1-.4.792c-.264.4-.594.792-.858,1.188A15.864,15.864,0,0,1,181.7-9.5c-1.188.594-3.96,1.782-4.752-.066-.132-.264-.594-.066-.528.264.462,1.65,2.508,1.65,3.894,1.254a14.981,14.981,0,0,0,5.148-2.97,14.175,14.175,0,0,0,2.112-2.31C188.034-13.926,189.09-15.048,188.562-15.906Zm23.1,3.63a42.6,42.6,0,0,0-3.828,2.046,27.972,27.972,0,0,1-3.894,1.518,15.8,15.8,0,0,1-6.336.462,3.419,3.419,0,0,1-2.178-1.056,2.289,2.289,0,0,1,0-2.574,5.5,5.5,0,0,0,3.366.726,6.3,6.3,0,0,0,3.762-1.65c.99-.924,1.32-2.772-.4-3.168a7.373,7.373,0,0,0-4.95,1.254c-1.254.792-2.64,1.848-3.036,3.366a2.954,2.954,0,0,0,.924,3.036c1.65,1.386,4.356,1.254,6.4.99a16.943,16.943,0,0,0,5.346-1.452,15.728,15.728,0,0,0,2.574-1.32,13.309,13.309,0,0,0,2.508-1.782A.254.254,0,0,0,211.662-12.276ZM198.99-14.52a5.867,5.867,0,0,1,2.046-.528,3.088,3.088,0,0,1,1.122.132c.4.132.33.528.2.858a4.524,4.524,0,0,1-3.3,2.112,6.068,6.068,0,0,1-3.432-.2l.066-.066A8.815,8.815,0,0,1,198.99-14.52Z"
          transform="translate(1.919 49.302)" fill="#e31c3b"/>
</svg>