<svg xmlns="http://www.w3.org/2000/svg" width="407.204" height="101.172" viewBox="0 0 407.204 101.172">
    <path id="textHi"
          d="M-163.64-31.92a13.2,13.2,0,0,0-7.44-1.12,35.831,35.831,0,0,0,9.36-7.6,26.333,26.333,0,0,0,4.4-6.72c.88-2.24,1.44-4.88.64-7.2a6.853,6.853,0,0,0-5.28-4.24,16.237,16.237,0,0,0-7.52,1.04,56.447,56.447,0,0,0-14,6.72,46.905,46.905,0,0,0-6.88,5.76c-2.32,2.32-4.48,4.88-5.36,8.16a.408.408,0,0,0,.8.16c.32-.88.72-1.84,1.12-2.72A22.69,22.69,0,0,1-190.36-44a57.571,57.571,0,0,1,5.68-5.12,49.727,49.727,0,0,1,12.56-6.64,26.617,26.617,0,0,1,7.36-2.08c2.32-.24,4.88.16,6.4,2.24,1.36,1.84,1.12,4.32.48,6.48a20.892,20.892,0,0,1-3.68,6.48,35.622,35.622,0,0,1-14.08,10.4c-.72.32-.48,1.44.32,1.28,3.36-.8,6.96-1.6,10.24-.32a10.779,10.779,0,0,1,5.52,5.6c2.56,5.76.32,12.08-3.28,16.72A34.587,34.587,0,0,1-177.48,1.92c-5.6,2.24-12.16,3.2-18.08,1.76a13.234,13.234,0,0,1-8-5.36c-1.68-2.4-2.72-6.08-1.44-8.96.16-.32-.32-.56-.4-.24a9.353,9.353,0,0,0-1.04,4.08,10.1,10.1,0,0,0,1.04,4.32,12.948,12.948,0,0,0,6.48,6.4c6,2.72,13.36,2.08,19.52.08A35.846,35.846,0,0,0-163.16-6.64c4.16-4.88,7.28-11.44,5.28-17.92A12.062,12.062,0,0,0-163.64-31.92Zm28.24,11.84a6.922,6.922,0,0,0-.56.8,6.9,6.9,0,0,0-2.8-.48,10.085,10.085,0,0,0-3.36,1.28,21.96,21.96,0,0,0-6.32,5.84,5.693,5.693,0,0,0-1.36,3.28,1.894,1.894,0,0,0,2.24,1.68,11.587,11.587,0,0,0,3.68-1.92c1.12-.8,2.16-1.68,3.2-2.56.56-.48,1.12-.96,1.68-1.52-1.52,3.04-2.72,6.16-4.08,9.2-1.2,2.96-2.48,5.84-3.76,8.64a35.728,35.728,0,0,0-8.24.56,40.514,40.514,0,0,0-14,5.44A45.672,45.672,0,0,0-180.68,20c-3.52,4.16-6.64,9.28-6.8,14.88,0,2.56.8,5.12,3.28,6.08,2.16.88,4.64.48,6.8-.16a31.711,31.711,0,0,0,11.44-6.4c7.04-5.84,12.16-13.92,16.4-22l3.36-6.72c.8,0,1.6.08,2.4.16,1.2.08,2.32.16,3.52.32.32,0,.32-.4.08-.56a21.531,21.531,0,0,0-5.44-1.28c.64-1.28,1.2-2.56,1.76-3.84,2.4-5.36,4.4-10.88,7.12-16.08a39.544,39.544,0,0,1,2.4-3.92C-133.96-20.16-135-20.72-135.4-20.08ZM-148.6,7.76c-3.92,8-8.4,15.92-14.56,22.32a37.475,37.475,0,0,1-10,7.68A26.51,26.51,0,0,1-179.08,40c-2.08.4-4.88.48-6.24-1.44a6.5,6.5,0,0,1-.88-3.84,16.791,16.791,0,0,1,.72-4,25.561,25.561,0,0,1,3.68-7.2,42.4,42.4,0,0,1,10.64-10.4,42.565,42.565,0,0,1,13.2-6.24,35.027,35.027,0,0,1,7.04-1.2c1.12-.08,2.24-.08,3.36-.08C-147.88,6.32-148.2,7.04-148.6,7.76Zm3.12-17.68c-.64.4-2.48,1.84-3.12.88-.56-.8.4-2.16.88-2.8a19.506,19.506,0,0,1,5.28-5.28,10.868,10.868,0,0,1,3.28-1.76,6.174,6.174,0,0,1,2.96,0A32.969,32.969,0,0,1-145.48-9.92Zm50.56-8.64c-4.8,1.2-9.12,3.76-13.6,5.76a35.555,35.555,0,0,1-6.96,2.32,14.463,14.463,0,0,1-4.56.24,13.514,13.514,0,0,0,2.88-2.4A10.971,10.971,0,0,0-114.84-16a2.366,2.366,0,0,0-1.36-3.04,3.76,3.76,0,0,0-2.8-.16,11.56,11.56,0,0,0-6.16,2.64c-1.76,1.44-4.56,4.4-2.88,6.8,1.52,2.32,4.56,1.36,6.72.32,2.64.72,5.68.16,8.32-.56,6.4-1.84,12-5.76,18.24-8.08C-94.44-18.16-94.6-18.64-94.92-18.56Zm-20.96,1.2c.32.72-.16,1.44-.48,2a18.2,18.2,0,0,1-2.32,2.72,11.849,11.849,0,0,1-2.8,2,5.377,5.377,0,0,1-.96-.48,2.924,2.924,0,0,1-1.44-2.48,3.3,3.3,0,0,1,1.2-2.24c1.28-1.36,3.68-2.88,5.6-2.4A1.538,1.538,0,0,1-115.88-17.36Zm-9.6,7.92a2.6,2.6,0,0,1-1.76-.96,2.486,2.486,0,0,1,0-2,8.866,8.866,0,0,1,2.48-3.2,9.706,9.706,0,0,1,1.12-.8,5.421,5.421,0,0,0-1.12,1.84,3.842,3.842,0,0,0,2.08,4.48A5.752,5.752,0,0,1-125.48-9.44Zm48.24-9.84c-.56-.96-1.84-.64-2.72-.4a17.809,17.809,0,0,0-3.52,1.04c-5.2,2.08-9.12,5.76-12.32,10.08q2.16-4.2,4.56-8.4c2.16-3.6,4.48-7.04,6.96-10.4.16-.24-.24-.56-.4-.32A95.79,95.79,0,0,0-96.6-8.88c-1.28,2.64-2.56,5.36-3.76,8.08-1.04,2.16-2,4.4-2.88,6.56-2.08,5.44-3.68,10.96-5.44,16.48-.16.56-.32,1.2-.56,1.84-.16.56.72.72.88.24,2.24-7.12,4.64-14.24,7.36-21.12.64-1.52,1.2-2.96,1.84-4.4.56-1.04,1.12-2.16,1.76-3.2a32.786,32.786,0,0,1,9.44-10.72,23.775,23.775,0,0,1,6-3.12,12.118,12.118,0,0,1,3.36-.8c.32,0,.64.08.64.48a2.18,2.18,0,0,1-.48.96c-.32.48-.72.96-1.04,1.44a19.229,19.229,0,0,1-6.08,4.64c-1.44.72-4.8,2.16-5.76-.08-.16-.32-.72-.08-.64.32.56,2,3.04,2,4.72,1.52A18.159,18.159,0,0,0-81-13.36a17.183,17.183,0,0,0,2.56-2.8C-77.88-16.88-76.6-18.24-77.24-19.28Zm40.32.72c-4.8,1.2-9.12,3.76-13.6,5.76a35.555,35.555,0,0,1-6.96,2.32,14.463,14.463,0,0,1-4.56.24,13.514,13.514,0,0,0,2.88-2.4A10.971,10.971,0,0,0-56.84-16a2.366,2.366,0,0,0-1.36-3.04A3.76,3.76,0,0,0-61-19.2a11.56,11.56,0,0,0-6.16,2.64c-1.76,1.44-4.56,4.4-2.88,6.8,1.52,2.32,4.56,1.36,6.72.32,2.64.72,5.68.16,8.32-.56,6.4-1.84,12-5.76,18.24-8.08C-36.44-18.16-36.6-18.64-36.92-18.56Zm-20.96,1.2c.32.72-.16,1.44-.48,2a18.2,18.2,0,0,1-2.32,2.72,11.849,11.849,0,0,1-2.8,2,5.377,5.377,0,0,1-.96-.48,2.924,2.924,0,0,1-1.44-2.48,3.3,3.3,0,0,1,1.2-2.24c1.28-1.36,3.68-2.88,5.6-2.4A1.538,1.538,0,0,1-57.88-17.36Zm-9.6,7.92a2.6,2.6,0,0,1-1.76-.96,2.486,2.486,0,0,1,0-2,8.866,8.866,0,0,1,2.48-3.2,9.706,9.706,0,0,1,1.12-.8,5.421,5.421,0,0,0-1.12,1.84,3.842,3.842,0,0,0,2.08,4.48A5.752,5.752,0,0,1-67.48-9.44ZM3.32-57.6c-.4-1.6-1.92-2.24-3.52-2.08a11.7,11.7,0,0,0-4.72,2.24A29.761,29.761,0,0,0-9.4-54.08c-5.76,4.96-10.16,11.28-14.16,17.76-2.64,4.16-5.12,8.4-7.36,12.8a8.074,8.074,0,0,1-1.2.56c-.16.08-.08.32.08.24a4.288,4.288,0,0,0,.88-.4,89.926,89.926,0,0,0-3.92,9.44c-.32.96-.64,2-.96,3.04a.625.625,0,0,0,1.12.48,16.384,16.384,0,0,1,8.16-6.72,2.119,2.119,0,0,1,1.84-.16c.64.4.32,1.68.16,2.24a6.65,6.65,0,0,1-3.12,4.08c-1.68,1.04-3.92,1.52-5.68.4-.48-.32-1.04.32-.64.72a5.316,5.316,0,0,0,6,.4,7.918,7.918,0,0,0,4.32-4.48c.64-1.6.96-4.4-1.36-4.64a5.592,5.592,0,0,0-2.48.56,15.191,15.191,0,0,0-2.96,1.6,16.983,16.983,0,0,0-3.2,2.72A74.418,74.418,0,0,1-29.4-23.76,74.23,74.23,0,0,0-12.12-34.48a80.928,80.928,0,0,0,8.4-8.16,31.755,31.755,0,0,0,6.32-9.6C3.16-53.84,3.8-55.84,3.32-57.6Zm-1.2,3.52c-.88,3.6-3.2,6.8-5.6,9.6a72.589,72.589,0,0,1-7.68,8A86.973,86.973,0,0,1-29.08-24.4c1.36-2.72,2.88-5.36,4.48-8,3.76-6.32,7.68-12.56,12.72-17.84a42.784,42.784,0,0,1,8.32-6.88c1.36-.8,3.04-1.92,4.64-1.52C3-58.16,2.52-55.52,2.12-54.08ZM1.88-16.56c-1.04.24-2,.72-2.96,1.04a14.425,14.425,0,0,1-3.12.64,19.063,19.063,0,0,1-6.4-.16A46.421,46.421,0,0,1-6.44-18.8c.16-.16.32-.24.4-.4.4-.32-.08-.96-.48-.64-3.36,2.56-7.04,5.68-8,10a3.75,3.75,0,0,0,0,2.64,1.632,1.632,0,0,0,2.08.96A5.642,5.642,0,0,0-8.84-10a4.368,4.368,0,0,0-.8-3.84,21.257,21.257,0,0,0,5.52.08,23.83,23.83,0,0,0,3.44-.72,9.22,9.22,0,0,0,2.96-1.44C2.6-16.16,2.2-16.64,1.88-16.56Zm-12.16,7.2a4.089,4.089,0,0,1-2,1.84c-.4.24-1.04.48-1.28-.08a1.967,1.967,0,0,1-.08-1.36,10.28,10.28,0,0,1,2.32-5.2A3.6,3.6,0,0,1-10.28-9.36ZM25.4-14.88a51.631,51.631,0,0,0-4.64,2.48,33.905,33.905,0,0,1-4.72,1.84A19.145,19.145,0,0,1,8.36-10a4.144,4.144,0,0,1-2.64-1.28,2.775,2.775,0,0,1,0-3.12,6.663,6.663,0,0,0,4.08.88,7.633,7.633,0,0,0,4.56-2c1.2-1.12,1.6-3.36-.48-3.84-2.08-.4-4.24.48-6,1.52-1.52.96-3.2,2.24-3.68,4.08a3.581,3.581,0,0,0,1.12,3.68c2,1.68,5.28,1.52,7.76,1.2a20.537,20.537,0,0,0,6.48-1.76,19.064,19.064,0,0,0,3.12-1.6,16.133,16.133,0,0,0,3.04-2.16A.308.308,0,0,0,25.4-14.88ZM10.04-17.6a7.112,7.112,0,0,1,2.48-.64,3.743,3.743,0,0,1,1.36.16c.48.16.4.64.24,1.04-.64,1.44-2.56,2.32-4,2.56a7.355,7.355,0,0,1-4.16-.24l.08-.08A10.685,10.685,0,0,1,10.04-17.6Zm68.88,1.84c-1.28.64-2.48,1.52-3.76,2.24-1.28.64-2.64,1.28-4,1.84a27.456,27.456,0,0,1-8,1.68,10.841,10.841,0,0,1-5.28-.64,2.363,2.363,0,0,1-1.28-1.84,4.018,4.018,0,0,1,1.52-3.28,13.544,13.544,0,0,1,4.32-2.4A4.7,4.7,0,0,1,65-18.4c1.28.24.88,1.44.32,2.16-.08.16,0,.32.16.24.8-.8,1.6-2.32.24-3.04-1.44-.8-3.52-.24-4.96.32-2.56,1.12-6.08,3.44-5.28,6.8.56,2.24,3.04,2.96,5.12,3.04A22.858,22.858,0,0,0,69-9.84a27.01,27.01,0,0,0,5.52-2.08,14.461,14.461,0,0,0,4.8-3.36C79.56-15.52,79.24-15.92,78.92-15.76Zm53.68-.16c-2.24,1.36-4.64,2.56-6.96,3.68a34.67,34.67,0,0,1-7.36,2.48c-2,.4-4.24.64-6.08-.16a4.161,4.161,0,0,1-1.92-1.6c-.72-.96-.96-2.32-2-3.12-1.44-.96-3.36,0-4.8.56-1.04.4-2.16.96-3.2,1.44a35.323,35.323,0,0,0,2.72-4.8,5.249,5.249,0,0,0,.64-2.88,2.385,2.385,0,0,0-2.08-1.84,18.986,18.986,0,0,0-9.44.8,13.889,13.889,0,0,0,.56-2.32c.08-.4-.4-.56-.48-.16a1.29,1.29,0,0,0-.24.72c-.24.72-.56,1.44-.8,2.08a12.764,12.764,0,0,0-1.84.8,20.679,20.679,0,0,0-5.28,3.44,14.31,14.31,0,0,0-2.16,2.24,9.7,9.7,0,0,0-1.68,2.48c-.64,1.44-.4,3.52,1.6,3.36,1.6-.08,3.04-1.44,4.08-2.56a29.053,29.053,0,0,0,5.68-8.56A21.486,21.486,0,0,1,99-21.2a6.535,6.535,0,0,1,3.04.4c.96.56.4,2,0,2.8a30.308,30.308,0,0,1-3.92,6.56c-.32.48.08,1.2.64.88a31.4,31.4,0,0,1,4.96-2.4c1.2-.48,3.28-1.68,4.32-.32.64.96.96,2.16,1.68,3.04a6,6,0,0,0,2.24,1.44,11.759,11.759,0,0,0,6.24.32,32.878,32.878,0,0,0,7.2-2.32,34.842,34.842,0,0,0,7.6-4.56C133.32-15.6,132.92-16.16,132.6-15.92Zm-46,2.24a15.184,15.184,0,0,1-3.28,3.12,3.185,3.185,0,0,1-1.68.72c-.72,0-.72-.64-.56-1.28a8.115,8.115,0,0,1,1.28-2.08,21.8,21.8,0,0,1,1.84-2,18.916,18.916,0,0,1,4.32-3.2,8.061,8.061,0,0,1,1.84-.96A33.276,33.276,0,0,1,86.6-13.68Zm81.04-4.88c-4.8,1.2-9.12,3.76-13.6,5.76a35.554,35.554,0,0,1-6.96,2.32,14.463,14.463,0,0,1-4.56.24,13.514,13.514,0,0,0,2.88-2.4A10.971,10.971,0,0,0,147.72-16a2.366,2.366,0,0,0-1.36-3.04,3.76,3.76,0,0,0-2.8-.16,11.56,11.56,0,0,0-6.16,2.64c-1.76,1.44-4.56,4.4-2.88,6.8,1.52,2.32,4.56,1.36,6.72.32,2.64.72,5.68.16,8.32-.56,6.4-1.84,12-5.76,18.24-8.08C168.12-18.16,167.96-18.64,167.64-18.56Zm-20.96,1.2c.32.72-.16,1.44-.48,2a18.2,18.2,0,0,1-2.32,2.72,11.849,11.849,0,0,1-2.8,2,5.377,5.377,0,0,1-.96-.48,2.924,2.924,0,0,1-1.44-2.48,3.3,3.3,0,0,1,1.2-2.24c1.28-1.36,3.68-2.88,5.6-2.4A1.538,1.538,0,0,1,146.68-17.36Zm-9.6,7.92a2.6,2.6,0,0,1-1.76-.96,2.486,2.486,0,0,1,0-2,8.867,8.867,0,0,1,2.48-3.2,9.706,9.706,0,0,1,1.12-.8,5.421,5.421,0,0,0-1.12,1.84,3.842,3.842,0,0,0,2.08,4.48A5.752,5.752,0,0,1,137.08-9.44Zm63.2-6.64c-1.36.96-2.64,2-4,2.8a23.442,23.442,0,0,1-4.48,2.24,17.134,17.134,0,0,1-4.56.96,3.745,3.745,0,0,1-1.84-.32c-.72-.4-.72-1.2-.64-2,.24-2.08,1.52-6-1.6-6.64a8.288,8.288,0,0,0-3.44.32,28.856,28.856,0,0,0-4.88,2.08,20.128,20.128,0,0,0-4.72,3.12,13.906,13.906,0,0,0-1.2,1.04,26.422,26.422,0,0,1,2.48-4.08,41.664,41.664,0,0,1,5.44-5.84c.08-.08-.08-.32-.24-.24-4.64,2.88-8.08,7.76-10.08,12.8-.24.56.72.96.96.4a6.18,6.18,0,0,1,1.36-1.52c.64-.56,1.2-1.12,1.84-1.68A25.376,25.376,0,0,1,175-15.52a28.856,28.856,0,0,1,4.88-2.08c.96-.32,2.4-.8,3.44-.32,1.44.64.88,2.64.72,3.84-.24,1.2-.64,2.72.08,3.84a3.81,3.81,0,0,0,3.12,1.12,17.11,17.11,0,0,0,4.48-.88,22.125,22.125,0,0,0,4.8-2.32,18.024,18.024,0,0,0,4.16-3.2C200.92-15.84,200.6-16.32,200.28-16.08Z"
          transform="translate(206.44 59.704)" fill="#e31c3b"/>
</svg>
