<svg width="60" height="60" viewBox="0 0 60 60" fill="none" xmlns="http://www.w3.org/2000/svg">
    <path d="M59.9996 13.9285H55.7139V33.2142H59.9996V13.9285Z" fill="#E4C280"/>
    <path d="M28.691 37.4999H31.3099C36.441 37.4999 40.631 33.8922 40.7137 29.4286L35.7369 11.7856H24.264L19.2861 29.4286C19.3751 33.8922 23.5598 37.4999 28.691 37.4999Z"
          fill="#E4C280"/>
    <path d="M28.9287 5.35718H31.0716V9.64289H28.9287V5.35718Z" fill="#E4C280"/>
    <path d="M10.7143 34.2858C10.7179 31.3284 13.114 28.9323 16.0714 28.9286H17.202L20.2232 18.2144H11.7857C5.27972 18.2222 0.00784738 23.4941 0 30.0001V37.5001H10.7143V34.2858Z"
          fill="#E4C280"/>
    <path d="M19.2853 3.21439H40.7139C41.3056 3.21439 41.7853 2.73465 41.7853 2.14296C41.7853 1.55127 41.3056 1.07153 40.7139 1.07153H19.2853C18.6936 1.07153 18.2139 1.55127 18.2139 2.14296C18.2139 2.73465 18.6936 3.21439 19.2853 3.21439Z"
          fill="#E4C280"/>
    <path d="M42.7976 28.9286H53.571V18.2144H39.7764L42.7976 28.9286Z" fill="#E4C280"/>
    <path d="M8.57115 55.7144C8.57115 53.82 6.70923 49.8335 5.35686 47.2439C4.0045 49.8335 2.14258 53.82 2.14258 55.7144C2.14258 57.4894 3.58179 58.9286 5.35686 58.9286C7.13194 58.9286 8.57115 57.4894 8.57115 55.7144Z"
          fill="#E4C280"/>
</svg>
