<svg width="60" height="60" viewBox="0 0 60 60" fill="none" xmlns="http://www.w3.org/2000/svg">
<g clip-path="url(#clip0)">
<path d="M9.32774 12.4996C9.99157 13.0061 10.9399 12.8786 11.4465 12.2152C15.9053 6.37333 22.6679 3.02323 30.0007 3.02323C37.3334 3.02323 44.096 6.37354 48.5548 12.2152C48.8524 12.6048 49.3023 12.8095 49.7576 12.8095C50.0772 12.8095 50.3999 12.7085 50.6736 12.4996C51.337 11.9929 51.4643 11.0444 50.958 10.3808C45.9223 3.78364 38.2837 0 30.0007 0C21.7176 0 14.0791 3.78364 9.04349 10.3808C8.53703 11.0444 8.6643 11.9929 9.32774 12.4996Z" fill="#E4C280"/>
<path d="M46.0684 20.5628C46.0684 23.1658 48.1863 25.2838 50.7894 25.2838C53.3924 25.2838 55.5104 23.1658 55.5104 20.5628C55.5104 17.9598 53.3924 15.8418 50.7894 15.8418C48.1863 15.8418 46.0684 17.9596 46.0684 20.5628Z" fill="#E4C280"/>
<path d="M55.6206 26.8505C55.6097 26.8469 54.4202 26.4818 54.4202 26.4818C53.9895 26.3503 53.5217 26.4313 53.161 26.7012L50.7891 28.4772L48.4172 26.7012C48.0564 26.4311 47.5883 26.3501 47.158 26.4818C47.158 26.4818 45.9685 26.8469 45.9576 26.8505C44.0437 27.4887 42.7578 29.2727 42.7578 31.2901V38.4273C42.7578 38.7026 42.8382 38.9719 42.9897 39.2018L45.3833 42.8444V52.4105C45.3833 53.1897 46.0148 53.8212 46.794 53.8212H54.7845C55.5637 53.8212 56.1952 53.1897 56.1952 52.4105V42.8444L58.5887 39.2018C58.74 38.9717 58.8206 38.7024 58.8206 38.4273V31.2901C58.8206 29.2727 57.5346 27.4887 55.6206 26.8505Z" fill="#E4C280"/>
<path d="M9.21145 25.2838C11.8145 25.2838 13.9325 23.1658 13.9325 20.5628C13.9325 17.9598 11.8145 15.8418 9.21145 15.8418C6.60842 15.8418 4.49023 17.9596 4.49023 20.5628C4.49023 23.166 6.60821 25.2838 9.21145 25.2838Z" fill="#E4C280"/>
<path d="M14.0425 26.8505C14.0316 26.8469 12.8421 26.4818 12.8421 26.4818C12.4112 26.3503 11.9437 26.4313 11.5829 26.7012L9.211 28.4772L6.83908 26.7012C6.47848 26.4311 6.01019 26.3501 5.57989 26.4818C5.57989 26.4818 4.39039 26.8469 4.37949 26.8505C2.46555 27.4887 1.17969 29.2727 1.17969 31.2901V38.4273C1.17969 38.7026 1.26009 38.9719 1.41161 39.2018L3.80514 42.8444V52.4105C3.80514 53.1897 4.43666 53.8212 5.21585 53.8212H13.2062C13.9853 53.8212 14.6169 53.1897 14.6169 52.4105V42.8444L17.0104 39.2018C17.1617 38.9717 17.2423 38.7024 17.2423 38.4273V31.2901C17.2423 29.2727 15.9563 27.4887 14.0425 26.8505Z" fill="#E4C280"/>
<path d="M36.0897 13.9094C36.0897 10.5518 33.358 7.82007 30.0004 7.82007C26.6428 7.82007 23.9111 10.5518 23.9111 13.9094C23.9111 17.2671 26.6428 19.9987 30.0004 19.9987C33.358 19.9987 36.0897 17.2671 36.0897 13.9094Z" fill="#E4C280"/>
<path d="M36.6878 22.9498L36.6777 22.9465L34.9397 22.4132C34.6656 22.329 34.3726 22.474 34.2741 22.7445L30.6195 32.7718C30.4086 33.3502 29.5906 33.3502 29.3797 32.7718L25.7252 22.7445C25.6456 22.5261 25.4395 22.3892 25.2185 22.3892C25.1662 22.3892 23.3236 22.9457 23.3236 22.9457C21.1034 23.6855 19.6201 25.7437 19.6201 28.071V38.6783C19.6201 38.7835 19.651 38.8865 19.7088 38.9746L23.5221 44.7774V59.4603C23.5221 59.7585 23.7638 60.0001 24.0619 60.0001H35.9373C36.2355 60.0001 36.4771 59.7585 36.4771 59.4603V44.7774L40.2904 38.9746C40.3482 38.8865 40.3791 38.7835 40.3791 38.6783V28.0431C40.3789 25.7259 38.8898 23.6712 36.6878 22.9498Z" fill="#E4C280"/>
<path d="M31.4273 22.7385C31.2763 22.574 31.0555 22.4912 30.8321 22.4912H29.1664C28.9432 22.4912 28.7224 22.574 28.5713 22.7385C28.3376 22.9932 28.3036 23.3611 28.4695 23.6486L29.3598 24.9908L28.943 28.507L29.7638 30.6904C29.8438 30.91 30.1543 30.91 30.2345 30.6904L31.0553 28.507L30.6386 24.9908L31.5289 23.6486C31.6949 23.3611 31.661 22.9932 31.4273 22.7385Z" fill="#E4C280"/>
</g>
<defs>
<clipPath id="clip0">
<rect width="60" height="60" fill="white"/>
</clipPath>
</defs>
</svg>
