<svg width="60" height="60" viewBox="0 0 60 60" fill="none" xmlns="http://www.w3.org/2000/svg">
<g clip-path="url(#clip0)">
<path d="M31.7607 0C27.8829 0 24.6123 3.27058 24.6123 7.14842C24.6123 11.0263 27.8829 14.2968 31.7607 14.2968C35.6386 14.2968 38.7919 11.0263 38.7919 7.14842C38.7919 3.27058 35.6386 0 31.7607 0Z" fill="#E4C280"/>
<path d="M39.5644 14.2969C37.6326 16.4389 34.8657 17.8125 31.7607 17.8125C28.6557 17.8125 25.7716 16.4389 23.8398 14.2969C22.1532 16.1671 21.0967 18.6171 21.0967 21.3281V23.0859C21.0967 24.0575 21.8829 24.8437 22.8545 24.8437H40.5498C41.5214 24.8437 42.3076 24.0575 42.3076 23.0859V21.3281C42.3076 18.6171 41.251 16.1671 39.5644 14.2969Z" fill="#E4C280"/>
<path d="M16.9859 53.9535L8.02798 35.994C7.16302 34.2597 5.05787 33.5525 3.32151 34.4128L0.980223 35.5726C0.108467 36.0049 -0.246259 37.0644 0.188857 37.9346L10.7357 59.0283C11.1694 59.8982 12.2245 60.2444 13.0892 59.8179L15.4004 58.6729C17.1435 57.8095 17.854 55.6944 16.9859 53.9535Z" fill="#E4C280"/>
<path d="M58.5621 29.0274C57.1206 27.9727 55.1167 28.1837 53.9215 29.4844L44.3121 41.2969C43.6442 42.0001 42.3785 42.4219 41.7106 42.4219H33.5191C32.5346 42.4219 31.7612 41.6486 31.7612 40.6641C31.7612 39.6796 32.5346 38.9063 33.5191 38.9063C35.8734 38.9063 38.4798 38.9063 40.5503 38.9063C42.4839 38.9063 44.0659 37.3243 44.0659 35.3907C44.0659 33.4571 42.4839 31.8751 40.5503 31.8751C32.2949 31.8751 40.1694 31.8751 31.3394 31.8751C30.4633 31.8751 30.0264 31.3195 29.3355 30.7148C26.6157 28.2673 22.5446 27.0882 18.4231 28.0435C16.1347 28.5739 14.5914 29.4984 13.0263 30.738L12.9741 30.6957L10.4316 32.9333L20.4235 52.9688H23.3822H40.5503C43.855 52.9688 47.0191 51.3868 48.9879 48.75L59.3003 33.9844C60.4604 32.4375 60.144 30.1877 58.5621 29.0274Z" fill="#E4C280"/>
</g>
<defs>
<clipPath id="clip0">
<rect width="60" height="60" fill="white"/>
</clipPath>
</defs>
</svg>
