<svg width="32" height="32" viewBox="0 0 32 32" fill="none" xmlns="http://www.w3.org/2000/svg">
    <path d="M31.3625 5.65337H0.637436C0.285437 5.65337 0 5.93874 0 6.2908V23.0863C0 24.884 1.4625 26.3466 3.26031 26.3466H28.7397C30.5374 26.3466 32 24.884 32 23.0863V6.2908C31.9999 5.93874 31.7145 5.65337 31.3625 5.65337ZM30.7251 23.0862C30.7251 24.181 29.8344 25.0716 28.7397 25.0716H3.26031C2.16556 25.0716 1.27494 24.1809 1.27494 23.0862V7.68155L15.5962 19.4055C15.7137 19.5017 15.8568 19.5497 16 19.5497C16.1429 19.5497 16.2858 19.5018 16.4032 19.406L27.4848 10.3542C27.7574 10.1314 27.7979 9.72992 27.5753 9.45723C27.3524 9.18455 26.951 9.14405 26.6783 9.36686L16.0004 18.0888L2.36743 6.92824H30.7251V23.0862Z"
          fill="#535353"/>
    <path d="M29.3692 7.99122C29.1466 7.71854 28.7449 7.67804 28.4724 7.90079L28.2811 8.05697C28.0084 8.27972 27.9679 8.68122 28.1906 8.95391C28.3166 9.10816 28.4999 9.1881 28.6847 9.1881C28.8265 9.1881 28.9692 9.14097 29.0875 9.04435L29.2787 8.88816C29.5514 8.66547 29.5919 8.26391 29.3692 7.99122Z"
          fill="#535353"/>
</svg>
