<svg width="32" height="32" viewBox="0 0 32 32" fill="none" xmlns="http://www.w3.org/2000/svg">
    <path d="M30.5898 23.0399L25.8397 19.0517C25.8177 19.0333 25.7945 19.0164 25.7703 19.0012C24.5241 18.2179 22.924 18.3914 21.8792 19.4228L19.2892 21.9798C19.1099 22.1571 18.8422 22.2095 18.6076 22.1139C15.6831 20.9194 13.2807 19.1212 11.467 16.7696C10.0839 14.9764 9.58533 13.5514 9.51958 13.3507C9.51176 13.3077 9.4993 13.265 9.4817 13.2232C9.38467 12.9916 9.43771 12.7278 9.61759 12.5507L12.2073 9.99302C13.2521 8.96141 13.4275 7.38153 12.6342 6.15108C12.6279 6.14118 12.6213 6.13153 12.6144 6.12188L9.18402 1.41507C8.10475 -0.238168 5.75386 -0.487927 4.34294 0.904932L3.82432 1.417C3.82408 1.41748 3.82359 1.41796 3.8231 1.4182L1.97152 3.24639C-0.236394 5.42666 -0.597618 8.70272 0.927196 12.7211C2.23327 16.1632 4.84787 19.9303 8.28927 23.3282C11.8121 26.8065 15.7305 29.4359 19.3227 30.732C22.8783 32.0145 26.6604 32.1726 29.3373 29.5292L31.0835 27.8053C32.4881 26.4182 32.243 24.1123 30.5898 23.0399ZM25.0644 20.0222L29.8104 24.007C29.8322 24.0254 29.8554 24.0423 29.8796 24.0575C30.8934 24.6948 31.0469 26.0944 30.1986 26.9318L30.069 27.0599L21.9742 21.0758L22.7639 20.2964C23.381 19.6868 24.3215 19.5765 25.0644 20.0222ZM8.13872 2.09388C8.14507 2.10378 8.15167 2.11367 8.15852 2.12308L11.5875 6.8282C12.0533 7.56445 11.9455 8.50436 11.3225 9.11947L10.5573 9.87526L5.08078 1.92351L5.22767 1.77849C6.0794 0.937509 7.4957 1.09653 8.13872 2.09388ZM19.7519 29.5715C16.3274 28.336 12.5707 25.8084 9.174 22.4547C5.85602 19.1788 3.34334 15.5681 2.09861 12.2877C1.16426 9.82531 0.537378 6.40952 2.85625 4.12019L4.18017 2.81275L9.65669 10.7645L8.7331 11.6769C8.20764 12.1948 8.04243 12.9612 8.30467 13.6436C8.50214 14.4438 9.41082 16.1048 10.3276 17.3287C11.6767 19.1299 14.1253 21.62 18.1293 23.2556C18.833 23.543 19.6353 23.3852 20.174 22.8536L21.0805 21.9583L29.1752 27.9424L28.4526 28.6557C25.9668 31.1103 22.3491 30.5085 19.7519 29.5715Z"
          fill="#535353"/>
</svg>
