<svg width="32" height="32" viewBox="0 0 32 32" fill="none" xmlns="http://www.w3.org/2000/svg">
<path d="M27.9658 26.6052C30.4728 23.7799 32 20.0657 32 16C32 11.7699 30.347 7.9211 27.6568 5.0571V5.05655C27.6546 5.05324 27.6513 5.05214 27.6497 5.04938C24.8474 2.07062 20.9214 0.163862 16.5545 0.0143448L16.5539 0.0137931L16.2422 0.00551724C16.1617 0.00275862 16.0811 0 16 0C15.9189 0 15.8383 0.00275862 15.7578 0.00551724L15.4472 0.0137931L15.4466 0.0143448C11.0797 0.163862 7.15366 2.07062 4.35145 5.04938C4.34924 5.05214 4.34593 5.05324 4.34428 5.05655C4.34428 5.05655 4.34428 5.0571 4.34372 5.05765C1.65297 7.9211 0 11.7699 0 16C0 20.0657 1.52717 23.7799 4.03421 26.6052C4.03752 26.6102 4.03752 26.6157 4.04138 26.6207C4.05131 26.6345 4.06566 26.6411 4.07614 26.6538C6.89324 29.803 10.9352 31.8317 15.4461 31.9862L15.4466 31.9868L15.7572 31.995C15.8383 31.9972 15.9189 32 16 32C16.0811 32 16.1617 31.9972 16.2422 31.9945L16.5528 31.9862L16.5534 31.9857C21.0692 31.8306 25.1156 29.7981 27.9327 26.6422C27.9399 26.6328 27.9514 26.6301 27.9581 26.6201C27.9625 26.6157 27.9625 26.6102 27.9658 26.6052ZM1.11724 16.5517H7.73959C7.80193 18.8905 8.25876 21.163 9.072 23.2921C7.5029 23.8599 6.00276 24.6212 4.59697 25.5713C2.52965 23.1123 1.24303 19.9779 1.11724 16.5517ZM4.89821 6.08166C6.2709 6.97434 7.73241 7.68938 9.25683 8.22345C8.32331 10.4894 7.8069 12.9324 7.73959 15.4483H1.11724C1.2491 11.8582 2.6549 8.58924 4.89821 6.08166ZM30.8828 15.4483H24.2604C24.1931 12.9324 23.6767 10.4894 22.7432 8.22345C24.2676 7.68938 25.7291 6.97434 27.1018 6.08166C29.3451 8.58924 30.7509 11.8582 30.8828 15.4483ZM15.4483 8.25545C13.8532 8.21021 12.2874 7.97241 10.7746 7.54759C11.893 5.25352 13.472 3.1829 15.4483 1.45876V8.25545ZM15.4483 9.3589V15.4483H8.84303C8.9109 13.0494 9.41407 10.7228 10.3139 8.56552C11.9724 9.04607 13.6943 9.312 15.4483 9.3589ZM16.5517 9.3589C18.3057 9.312 20.0276 9.04662 21.6866 8.56552C22.5865 10.7228 23.0897 13.0494 23.1575 15.4483H16.5517V9.3589ZM16.5517 8.25545V1.45876C18.528 3.1829 20.107 5.25352 21.2254 7.54759C19.7126 7.97241 18.1468 8.21021 16.5517 8.25545ZM22.2946 7.21214C21.2348 4.99145 19.7639 2.96828 17.9426 1.23421C21.1735 1.65683 24.0806 3.11779 26.3194 5.27172C25.0483 6.07834 23.6999 6.72717 22.2946 7.21214ZM9.70538 7.21214C8.30014 6.72717 6.95172 6.07834 5.6811 5.27172C7.91945 3.11779 10.827 1.65683 14.0579 1.23421C12.2361 2.96828 10.7652 4.99145 9.70538 7.21214ZM8.84303 16.5517H15.4483V22.0899C13.6237 22.1385 11.8361 22.4232 10.1181 22.9401C9.34179 20.9236 8.90538 18.7691 8.84303 16.5517ZM15.4483 23.1934V30.5412C13.333 28.6957 11.6745 26.4535 10.5468 23.9663C12.1286 23.5001 13.7716 23.2408 15.4483 23.1934ZM16.5517 30.5412V23.1934C18.2284 23.2403 19.8714 23.5001 21.4532 23.9658C20.3255 26.4535 18.667 28.6957 16.5517 30.5412ZM16.5517 22.0899V16.5517H23.157C23.0946 18.7691 22.6582 20.9236 21.8814 22.9407C20.1639 22.4232 18.3763 22.1385 16.5517 22.0899ZM24.2604 16.5517H30.8828C30.757 19.9779 29.4709 23.1123 27.403 25.5713C25.9972 24.6212 24.4971 23.8599 22.928 23.2921C23.7418 21.163 24.1981 18.8905 24.2604 16.5517ZM5.34676 26.3978C6.65214 25.5305 8.04193 24.8331 9.49407 24.3117C10.5672 26.7172 12.1076 28.9092 14.0574 30.7658C10.6637 30.3217 7.62648 28.7327 5.34676 26.3978ZM17.9426 30.7658C19.8924 28.9098 21.4328 26.7178 22.5059 24.3117C23.9581 24.8331 25.3473 25.5305 26.6532 26.3978C24.3735 28.7327 21.3363 30.3217 17.9426 30.7658Z" fill="#535353"/>
</svg>
