<svg width="60" height="59" viewBox="0 0 60 59" fill="none" xmlns="http://www.w3.org/2000/svg">
    <path d="M34.83 4.6792C34.5724 4.2915 34.4897 4.02952 34.4897 4.02952L34.6125 3.9194C34.6125 3.9194 34.8512 4.01614 35.2685 4.18286C35.4654 4.25946 35.7065 4.3535 35.9829 4.45957C36.2551 4.5557 36.5514 4.66778 36.869 4.74291C37.0253 4.79018 37.1846 4.8372 37.3492 4.85524C37.432 4.86592 37.511 4.88814 37.5931 4.90288C37.6744 4.90828 37.756 4.91086 37.8371 4.92092C38.1651 4.96389 38.4667 4.92915 38.7973 4.91233C38.9507 4.85733 39.1212 4.84186 39.288 4.77189C39.4409 4.68386 39.6407 4.63279 39.7826 4.51997C39.8578 4.46964 39.9358 4.41722 40.0196 4.36541C40.1064 4.31778 40.1989 4.28009 40.2912 4.18273L40.8754 3.70444C40.8809 3.69707 40.8413 3.75342 40.8603 3.72715L40.8643 3.7231L40.8743 3.71451L40.8935 3.69842L40.9319 3.66491L41.009 3.59776L41.1622 3.46676L41.4514 3.19938C41.6333 3.01671 41.862 2.8743 42.0454 2.69825C42.2259 2.51607 42.4686 2.4046 42.6616 2.22794C42.8681 2.06932 43.1095 1.95049 43.3423 1.79666C43.8315 1.57225 44.4031 1.40565 44.9149 1.47563C45.0433 1.48901 45.1679 1.50853 45.2905 1.53063C45.4092 1.56279 45.5206 1.60257 45.6309 1.64284C45.8568 1.71551 46.0513 1.8195 46.2346 1.92225C46.6009 2.12862 46.892 2.36764 47.1247 2.59881C47.356 2.83059 47.5299 3.05636 47.6551 3.25315C47.7863 3.44577 47.8621 3.61592 47.9155 3.73218C47.9597 3.85176 47.983 3.91621 47.983 3.91621L47.8603 4.02768C47.8603 4.02768 47.5973 3.94101 47.1934 3.77638C46.9965 3.6999 46.7578 3.60389 46.4838 3.49635C46.2193 3.39016 45.9283 3.27329 45.6209 3.17188C45.468 3.11676 45.3097 3.05967 45.1498 3.02198C45.0686 3.00259 44.9887 2.97153 44.9071 2.94882C44.8258 2.93273 44.7447 2.91248 44.6631 2.88633C44.3331 2.78149 43.9921 2.67812 43.5699 2.63515C43.376 2.66007 43.1445 2.65197 42.9428 2.73398C42.7487 2.82998 42.5259 2.90388 42.3701 3.07453C42.2131 3.23903 42.0339 3.38292 41.9239 3.59248L41.7638 3.90479L41.6903 4.06205L41.6545 4.14001L41.6369 4.18028L41.6281 4.19832L41.6239 4.20778L41.6212 4.21379C41.637 4.19096 41.5965 4.25013 41.5993 4.24669L41.2844 4.92387C41.181 5.14227 40.9439 5.38878 40.7504 5.60571C40.5539 5.84216 40.2909 5.97793 40.0567 6.16331C39.8116 6.33125 39.5123 6.42799 39.2383 6.54953C38.6552 6.71195 38.046 6.74104 37.5334 6.60735C37.2716 6.551 37.0308 6.47698 36.8185 6.36956C36.5962 6.2781 36.4047 6.16405 36.2242 6.0538C35.8653 5.82214 35.5809 5.57686 35.3561 5.33636C35.1264 5.10372 34.9563 4.87403 34.83 4.6792ZM60 43.0944V57.0406H0V43.0944H4.08702V27.4283L15.6043 19.5495V27.4283L27.1199 19.5495V27.4283L38.6378 19.5495V35.0356H42.6116L44.7698 7.64178H51.3567L53.2456 35.0356H57.6773V43.0955H59.9999L60 43.0944ZM18.8083 37.0721H9.75338V45.2222H18.8083V37.0721ZM34.4113 37.0721H25.3561V45.2222H34.4113V37.0721ZM50.2102 37.0721H41.1553V45.2222H50.2102V37.0721Z"
          fill="#E4C280"/>
</svg>
