<svg width="60" height="60" viewBox="0 0 60 60" fill="none" xmlns="http://www.w3.org/2000/svg">
<g clip-path="url(#clip0)">
<path d="M18.1408 33.0596C18.1408 33.0596 18.0898 35.1632 15.5798 37.6652C13.0698 40.1682 10.6484 40.2937 10.6484 40.2937L20.9894 50.6377H20.1315V60.0001H42.1966V50.6377H35.7209L18.1408 33.0596ZM40.4528 58.2523H21.8774V52.3844H40.4538V58.2523H40.4528Z" fill="#E4C280"/>
<path d="M9.15567 33.7928C11.0064 33.7928 12.5066 32.2925 12.5066 30.4418C12.5066 28.5911 11.0064 27.0908 9.15567 27.0908C7.30497 27.0908 5.80469 28.5911 5.80469 30.4418C5.80469 32.2925 7.30497 33.7928 9.15567 33.7928Z" fill="white"/>
<path d="M17.6092 30.4419C17.6092 30.151 17.5948 29.8646 17.5664 29.5805C17.1255 25.2516 13.5113 21.9893 9.15541 21.9893C4.49351 21.9893 0.703125 25.7801 0.703125 30.4419C0.703125 35.1021 4.49351 38.8927 9.15541 38.8927C13.8198 38.8927 17.6092 35.1021 17.6092 30.4419ZM9.15657 36.7823C5.66106 36.7823 2.81719 33.9384 2.81719 30.4409C2.81719 26.9429 5.66106 24.099 9.15657 24.099C12.6546 24.099 15.4984 26.9429 15.4984 30.4409C15.4983 33.9384 12.6546 36.7823 9.15657 36.7823Z" fill="#E4C280"/>
<path d="M58.7858 5.86247C58.4878 5.69454 58.1103 5.69454 57.8075 5.86496C57.648 5.95573 57.5164 6.08931 57.4306 6.24612L51.2628 17.2776L44.3725 15.903L39.9652 7.91265L42.2809 2.03325L54.8788 2.81997L54.9716 2.82346C55.1241 2.82346 55.2804 2.78645 55.4249 2.70979C55.7347 2.54435 55.931 2.23836 55.9499 1.8927C55.9689 1.62421 55.8812 1.37016 55.7047 1.16937C55.5293 0.970081 55.2863 0.851932 55.0192 0.833513L41.6292 0C41.1988 0 40.849 0.235634 40.6945 0.628246L38.7156 5.64725L34.1578 8.05668L35.1383 9.91753L13.457 21.3854C13.457 21.3854 15.0987 21.4412 17.375 25.1883C19.6514 28.9368 18.6126 30.676 18.6126 30.676L40.011 19.1228L40.9915 20.9802L44.9633 18.8773L45.9786 18.4732L45.7754 18.2132L51.5836 19.3721C51.6493 19.3865 51.719 19.3935 51.7827 19.3935C52.1445 19.3935 52.4763 19.1977 52.6477 18.8854L59.1703 7.2177C59.4355 6.7383 59.2639 6.12913 58.7858 5.86247Z" fill="#E4C280"/>
</g>
<defs>
<clipPath id="clip0">
<rect width="60" height="60" fill="white"/>
</clipPath>
</defs>
</svg>
