<svg width="60" height="60" viewBox="0 0 60 60" fill="none" xmlns="http://www.w3.org/2000/svg">
    <g clip-path="url(#clip0)">
        <path d="M19.8398 31.7577H40.9335C41.9053 31.7577 42.6913 30.9713 42.6913 29.9999V8.78903C42.6913 7.81766 41.9053 7.03122 40.9335 7.03122H35.6601V5.27342C35.6601 2.36571 33.2944 0 30.3867 0C27.479 0 25.1133 2.36571 25.1133 5.27342V7.03122H19.8398C18.8685 7.03122 18.082 7.81766 18.082 8.78903V29.9999C18.082 30.9713 18.8685 31.7577 19.8398 31.7577ZM28.6289 5.27342C28.6289 4.30342 29.4185 3.51561 30.3867 3.51561C31.3548 3.51561 32.1445 4.30342 32.1445 5.27342V7.03122H28.6289V5.27342Z"
              fill="#E4C280"/>
        <path d="M55.9939 29.09C55.678 28.5649 55.1045 28.2422 54.4902 28.2422C51.3929 28.2422 48.5516 29.9611 47.1138 32.7045L41.7218 42.995C40.8054 44.739 39.0164 45.8203 37.0494 45.8203H25.1119C24.1405 45.8203 23.3541 45.0338 23.3541 44.0625C23.3541 43.0911 24.1405 42.3047 25.1119 42.3047H37.049C37.7049 42.3047 38.3023 41.9444 38.6081 41.3621C38.9125 40.7808 39.8322 39.0252 40.6227 37.5165C40.8717 37.0413 40.8543 36.4705 40.5765 36.0113C40.2982 35.5527 39.8006 35.2734 39.2641 35.2734H20.9921C18.6437 35.2734 16.4396 36.1885 14.7779 37.8483L4.38217 48.2441C3.69553 48.9308 3.69553 50.0431 4.38217 50.7298L13.1712 59.4849C13.5145 59.8283 13.9645 60.0004 14.414 60.0004C14.8635 60.0004 15.3135 59.8283 15.6568 59.4849L22.3241 52.8515H37.049C41.6394 52.8515 45.8174 50.3247 47.9497 46.2579L56.0452 30.8171C56.3336 30.2728 56.313 29.6173 55.9939 29.09Z"
              fill="#E4C280"/>
    </g>
    <defs>
        <clipPath id="clip0">
            <rect width="60" height="60" fill="white"/>
        </clipPath>
    </defs>
</svg>
