<svg width="60" height="60" viewBox="0 0 60 60" fill="none" xmlns="http://www.w3.org/2000/svg">
<path d="M26.5946 46.8688C24.2555 49.0303 21.0203 49.5144 18.1509 48.1328C17.1135 47.6332 16.2381 46.9434 15.5528 46.1173L11.6457 54.7591C11.4679 55.1523 11.6664 55.4487 11.7599 55.5578C11.8535 55.6668 12.1161 55.908 12.5316 55.7925L15.376 55.0008C15.7001 54.9107 16.0278 54.8672 16.3509 54.8672C17.7139 54.8672 18.9967 55.6386 19.6144 56.917L20.899 59.5754C21.0867 59.9639 21.4386 60.0027 21.5851 59.9998C21.7287 59.9979 22.0822 59.9513 22.2598 59.5581L28.4746 45.8115C27.7918 46.008 27.1451 46.36 26.5946 46.8688Z" fill="#E4C280"/>
<path d="M48.3546 54.7591L44.4474 46.1173C43.7621 46.9436 42.8867 47.6333 41.8494 48.1328C38.9798 49.5144 35.7447 49.0303 33.4057 46.8688C32.8551 46.36 32.2085 46.008 31.5254 45.8115L37.7402 59.5581C37.918 59.9514 38.2714 59.9979 38.415 59.9998C38.5614 60.0027 38.9134 59.9639 39.101 59.5754L40.3856 56.917C41.0032 55.6386 42.2861 54.8672 43.6491 54.8672C43.9722 54.8672 44.3 54.9107 44.624 55.0008L47.4684 55.7925C47.8839 55.9082 48.1467 55.6669 48.2401 55.5578C48.3338 55.4486 48.5323 55.1522 48.3546 54.7591Z" fill="#E4C280"/>
<path d="M51.4244 24.3505C48.1794 22.1286 47.1726 17.7171 49.1322 14.3073C50.31 12.2576 49.697 10.2321 48.7306 9.02004C47.764 7.80832 45.9256 6.76008 43.6654 7.45207C39.9055 8.60367 35.8282 6.64055 34.384 2.98242C33.5159 0.783516 31.5501 0 30 0C28.45 0 26.4842 0.783516 25.6161 2.98254C24.1718 6.64078 20.0949 8.60367 16.3347 7.45219C14.0743 6.76031 12.2362 7.80832 11.2695 9.02016C10.303 10.2322 9.69003 12.2575 10.8679 14.3074C12.8275 17.7171 11.8206 22.1288 8.5757 24.3506C6.625 25.6864 6.29863 27.7772 6.64339 29.2884C6.98816 30.7997 8.18957 32.5417 10.5266 32.8988C14.4142 33.4927 17.2354 37.0303 16.9496 40.9527C16.7775 43.3106 18.2087 44.8695 19.6053 45.5421C21.0019 46.2146 23.1129 46.3618 24.8492 44.7572C26.2932 43.4228 28.1469 42.7553 29.9999 42.7553C31.8536 42.7553 33.7063 43.4224 35.1505 44.7572C36.887 46.362 38.9982 46.2148 40.3947 45.5421C41.7912 44.8696 43.2223 43.3107 43.0504 40.9528C42.7646 37.0304 45.5857 33.4928 49.4733 32.8988C51.8104 32.5417 53.0116 30.7996 53.3566 29.2884C53.7014 27.777 53.3748 25.6862 51.4244 24.3505ZM30 39.366C21.4952 39.366 14.5759 32.4468 14.5759 23.9419C14.5759 15.437 21.495 8.51766 30 8.51766C38.505 8.51766 45.4241 15.4369 45.4241 23.9418C45.424 32.4466 38.5049 39.366 30 39.366Z" fill="#E4C280"/>
<path d="M29.9995 11.3936C23.0803 11.3936 17.4512 17.0228 17.4512 23.9419C17.4512 30.861 23.0802 36.4902 29.9995 36.4902C36.9188 36.4902 42.5478 30.861 42.5478 23.9419C42.5478 17.0228 36.9187 11.3936 29.9995 11.3936ZM36.4301 22.7252L28.6205 28.4293C28.3727 28.6104 28.0753 28.7061 27.7725 28.7061C27.6944 28.7061 27.616 28.6998 27.538 28.6869C27.1572 28.624 26.8176 28.4106 26.5957 28.0946L24.2596 24.7686C23.8032 24.1186 23.9601 23.2218 24.6099 22.7653C25.2598 22.3089 26.1566 22.4657 26.6131 23.1156L28.1073 25.243L34.734 20.4029C35.3753 19.9348 36.275 20.0745 36.7433 20.7159C37.2117 21.3572 37.0714 22.2567 36.4301 22.7252Z" fill="#E4C280"/>
</svg>
