<svg width="60" height="60" viewBox="0 0 60 60" fill="none" xmlns="http://www.w3.org/2000/svg">
<path d="M58.7585 52.7443L46.6163 40.5143C45.5766 39.4678 44.1307 39.0832 42.7907 39.3552L39.9651 36.5094C44.7407 30.0848 44.2337 20.9105 38.4377 15.0729C32.0828 8.67233 21.7422 8.67233 15.3873 15.0729C9.03237 21.4734 9.03237 31.8882 15.3873 38.2888C21.1833 44.1264 30.2922 44.6377 36.6715 39.8272L39.4971 42.673C39.2247 44.0233 39.6071 45.479 40.6479 46.5255L52.7901 58.7549C54.4381 60.4147 57.1106 60.4147 58.7585 58.7549C60.4065 57.0952 60.4065 54.4041 58.7585 52.7443ZM35.1441 34.9709C30.6048 39.5428 23.219 39.5428 18.6803 34.9709C14.1404 30.3996 14.1404 22.9608 18.6803 18.3883C23.2196 13.8158 30.6054 13.8164 35.1447 18.3883C39.684 22.9608 39.6834 30.3996 35.1441 34.9709Z" fill="#E4C280"/>
<path d="M9.18017 30.3197L0.254675 39.3415C-0.0858596 39.6856 -0.0846953 40.242 0.257003 40.585C0.427562 40.7562 0.65051 40.8418 0.873458 40.8418C1.09757 40.8418 1.32168 40.7556 1.49224 40.5832L9.86298 32.1213C9.61966 31.5215 9.41301 30.9059 9.23663 30.2798C9.21801 30.2956 9.19705 30.3027 9.18017 30.3197Z" fill="white"/>
<path d="M37.1679 4.99677L44.1905 2.37782L39.1092 13.8275C39.5458 14.327 39.9632 14.8394 40.334 15.3776L45.6999 3.28657L48.3258 9.96792C48.4614 10.3132 48.7909 10.5237 49.1384 10.5237C49.2461 10.5237 49.3544 10.5038 49.4598 10.4616C49.9086 10.2828 50.1274 9.7721 49.9505 9.32066L46.5061 0.555631C46.3315 0.111224 45.8355 -0.11098 45.3914 0.0549399L36.5625 3.34754C36.1108 3.51639 35.8791 4.02236 36.0468 4.47791C36.2144 4.93228 36.7191 5.16445 37.1679 4.99677Z" fill="white"/>
<path d="M27.5016 19.8149C27.2967 19.5986 26.9981 19.5025 26.707 19.557C26.4154 19.6127 26.1721 19.8138 26.0603 20.0899L20.3184 34.3033C20.8114 34.6264 21.3289 34.9037 21.8662 35.1382L27.1681 22.0141L33.2214 28.4269C33.4217 28.6392 33.7127 28.7359 34.002 28.6873C34.289 28.6374 34.5323 28.4475 34.6511 28.1795L36.4131 24.208C36.3037 23.257 36.0726 22.3336 35.7198 21.4607L33.5887 26.263L27.5016 19.8149Z" fill="white"/>
</svg>
