<svg width="60" height="60" viewBox="0 0 60 60" fill="none" xmlns="http://www.w3.org/2000/svg">
    <g clip-path="url(#clip0)">
        <path d="M58.7964 16.6561L31.2337 5.39778C30.2884 5.0117 29.2289 5.01464 28.2858 5.40611L1.19343 16.6523C0.470882 16.9523 0 17.6576 0 18.4399V22.4703C0 23.5393 0.866567 24.4058 1.93549 24.4058H3.38715C3.65441 24.4058 3.87107 24.6223 3.87107 24.8897V50.5349C3.87107 52.94 5.82077 54.8898 8.22597 54.8898H9.49077V31.6211H50.5093V54.8897H51.7741C54.1792 54.8897 56.129 52.94 56.129 50.5348V24.8897C56.129 24.6224 56.3457 24.4058 56.6129 24.4058H58.0646C59.1336 24.4058 60.0001 23.5392 60.0001 22.4703V18.4479C59.9999 17.6616 59.5241 16.9534 58.7964 16.6561ZM19.3549 24.4058H9.67743V20.0509H19.3548L19.3549 24.4058ZM34.8386 24.4058H25.1612V20.0509H34.8386V24.4058ZM50.3226 24.4058H40.645V20.0509H50.3225L50.3226 24.4058ZM21.8724 45.2157H19.1182V49.0153H17.8315V45.2157H15.0604C14.0588 45.2157 13.2469 46.0276 13.2469 47.0292V53.0762C13.2469 54.0778 14.0589 54.8895 15.0604 54.8895H21.8723C22.8739 54.8895 23.6857 54.0778 23.6857 53.0762V47.0292C23.6858 46.0276 22.8739 45.2157 21.8724 45.2157ZM33.4095 45.2157H30.6552V49.0153H29.3686V45.2157H26.5975C25.5959 45.2157 24.7841 46.0276 24.7841 47.0292V53.0762C24.7841 54.0778 25.596 54.8895 26.5975 54.8895H33.4094C34.4109 54.8895 35.2228 54.0778 35.2228 53.0762V47.0292C35.223 46.0276 34.411 45.2157 33.4095 45.2157ZM45.1609 45.2157H42.4067V49.0153H41.12V45.2157H38.349C37.3474 45.2157 36.5355 46.0276 36.5355 47.0292V53.0762C36.5355 54.0778 37.3474 54.8895 38.349 54.8895H45.1608C46.1624 54.8895 46.9742 54.0778 46.9742 53.0762V47.0292C46.9744 46.0276 46.1624 45.2157 45.1609 45.2157ZM27.6649 34.3035H24.9106V38.1032H23.624V34.3035H20.8529C19.8513 34.3035 19.0395 35.1155 19.0395 36.1169V42.164C19.0395 43.1655 19.8514 43.9774 20.8529 43.9774H27.6649C28.6664 43.9774 29.4783 43.1655 29.4783 42.164V36.1169C29.4784 35.1155 28.6663 34.3035 27.6649 34.3035ZM39.4835 34.3035H36.7292V38.1032H35.4426V34.3035H32.6715C31.6699 34.3035 30.8581 35.1155 30.8581 36.1169V42.164C30.8581 43.1655 31.67 43.9774 32.6715 43.9774H39.4835C40.485 43.9774 41.2968 43.1655 41.2968 42.164V36.1169C41.2969 35.1155 40.485 34.3035 39.4835 34.3035Z"
              fill="#E4C280"/>
    </g>
    <defs>
        <clipPath id="clip0">
            <rect width="60" height="60" fill="white"/>
        </clipPath>
    </defs>
</svg>
