<svg width="60" height="60" viewBox="0 0 60 60" fill="none" xmlns="http://www.w3.org/2000/svg">
    <g clip-path="url(#clip0)">
        <path d="M54.3085 21.5932L16.2338 18.0425C16.0249 18.018 15.8283 18.018 15.6318 18.0303L14.1083 10.6586C14.0714 10.5111 14.0346 10.3637 13.9731 10.2408C13.7397 9.65111 13.2482 9.17195 12.5971 8.97538L5.33596 6.83759C4.21792 6.50586 3.03845 7.14474 2.70673 8.27507C2.375 9.39311 3.01388 10.5726 4.14421 10.9043L10.2013 12.6858L17.487 47.7996C17.6221 48.8316 18.5067 49.6302 19.5879 49.6302L50.9176 49.6179C52.0847 49.6179 53.0308 48.6719 53.0308 47.5047C53.0308 46.3375 52.0847 45.3915 50.9176 45.3915L21.3202 45.4038L20.3128 40.5508H51.4704C53.1045 40.5508 54.5174 39.4696 54.8123 37.983L57.3309 25.2914C57.6626 23.473 56.2866 21.7775 54.3085 21.5932Z"
              fill="#E4C280"/>
        <path d="M25.6073 59.9997C27.9415 59.9997 29.8337 58.1075 29.8337 55.7733C29.8337 53.4391 27.9415 51.5469 25.6073 51.5469C23.2731 51.5469 21.3809 53.4391 21.3809 55.7733C21.3809 58.1075 23.2731 59.9997 25.6073 59.9997Z"
              fill="#E4C280"/>
        <path d="M45.8046 59.9997C48.1388 59.9997 50.031 58.1075 50.031 55.7733C50.031 53.4391 48.1388 51.5469 45.8046 51.5469C43.4704 51.5469 41.5781 53.4391 41.5781 55.7733C41.5781 58.1075 43.4704 59.9997 45.8046 59.9997Z"
              fill="#E4C280"/>
        <path d="M21.9818 16.4087L22.4609 16.4579L23.9599 16.593L30.1275 17.1705L30.3486 14.7992C30.6558 11.5926 33.4939 9.24591 36.7006 9.54078C39.9073 9.84793 42.2539 12.686 41.9591 15.8927L41.7379 18.2639L47.9056 18.8414L49.8713 19.0257C50.5962 19.0994 51.2474 18.5588 51.3088 17.8339L51.5054 15.7207C51.5791 14.9958 51.0385 14.3447 50.3136 14.2832L48.3479 14.0989C48.1881 12.4649 47.6967 10.9168 46.9349 9.52849L48.4584 8.26302C49.0236 7.79614 49.0973 6.96069 48.6304 6.39553L47.279 4.76147C46.8121 4.19631 45.9766 4.12259 45.4115 4.58946L43.8757 5.84265C42.6471 4.84747 41.2219 4.07344 39.6493 3.60657L39.8336 1.64079C39.9073 0.915905 39.3667 0.264739 38.6418 0.203309L36.5286 0.00673046C35.8037 -0.0669864 35.1525 0.473604 35.0911 1.19849L34.9068 3.16427C33.2728 3.32399 31.7247 3.81544 30.3364 4.57718L29.0709 3.05369C28.604 2.48853 27.7686 2.41481 27.2034 2.88169L25.5693 4.23316C25.0042 4.70004 24.9305 5.5355 25.3973 6.10066L26.6628 7.62414C25.6676 8.85275 24.8936 10.2779 24.4267 11.8506L22.4609 11.6663C21.7361 11.5926 21.0849 12.1332 21.0235 12.858L20.8269 14.9713C20.7163 15.6961 21.2569 16.335 21.9818 16.4087Z"
              fill="white"/>
    </g>
    <defs>
        <clipPath id="clip0">
            <rect width="60" height="60" fill="white"/>
        </clipPath>
    </defs>
</svg>
