<svg width="60" height="60" viewBox="0 0 60 60" fill="none" xmlns="http://www.w3.org/2000/svg">
    <g clip-path="url(#clip0)">
        <path d="M59.9789 11.5088C59.9789 20.6244 56.0049 27.247 55.8378 27.5232C55.5012 28.0734 54.9186 28.3751 54.3174 28.3751C54.0017 28.3751 53.6836 28.2916 53.3958 28.1175C52.5555 27.6068 52.2862 26.5135 52.7946 25.6732C52.8317 25.6128 56.4181 19.5845 56.4181 11.5088C56.4181 6.90344 53.4237 3.56082 49.2965 3.56082C45.3689 3.56082 42.1748 6.75488 42.1748 10.6848C42.1748 12.3584 42.9849 16.611 43.296 18.1082C43.4979 19.0715 42.8782 20.0139 41.9148 20.2159C40.9515 20.4132 40.0091 19.798 39.8095 18.837C39.6864 18.2498 38.6094 13.0292 38.6094 10.6848C38.6094 4.79341 43.4028 0 49.2965 0C55.3851 0 59.9789 4.94661 59.9789 11.5088ZM49.5982 14.3106C50.3062 20.2275 51.3322 31.7572 50.153 32.9318L24.2802 58.8069C22.6901 60.3993 20.1066 60.3993 18.5142 58.8046L1.21382 41.5065C-0.378565 39.9164 -0.378565 37.3329 1.21382 35.7405L27.0889 9.86769C27.4998 9.45682 31.9752 9.43825 37.0077 9.70056C36.9798 10.0325 36.9079 10.3459 36.9079 10.6848C36.9079 11.9754 37.1934 13.9763 37.4928 15.7358C36.9659 16.5181 36.6572 17.4582 36.6572 18.4726C36.6572 21.1746 38.8485 23.3658 41.5504 23.3658C44.2524 23.3658 46.4436 21.1746 46.4436 18.4726C46.4436 16.8083 45.6103 15.3412 44.3406 14.4591C44.0806 12.9109 43.8717 11.416 43.8717 10.6848C43.8717 10.5269 43.9042 10.3807 43.9181 10.2252C44.5379 10.2902 45.1484 10.3575 45.7264 10.4294C49.1456 10.8496 49.1804 10.8426 49.5982 14.3106ZM35.8076 33.6746C35.406 32.558 34.7375 31.2187 33.2867 29.6773L35.2505 27.7112L33.0639 25.5269L30.9446 27.6486C28.108 25.7057 25.1832 25.8635 23.1985 27.8482C21.0351 30.0116 21.5458 32.7577 23.1335 35.9494C24.2245 38.1592 24.4241 39.4313 23.5769 40.2785C22.7064 41.149 21.302 40.7707 20.0277 39.4986C18.5792 38.0501 17.7296 36.2604 17.3071 34.8097L14.0249 36.7549C14.4056 38.0687 15.4316 39.942 16.88 41.4833L14.7398 43.6258L16.9241 45.8124L19.2245 43.5144C22.2584 45.6546 25.3178 45.3668 27.3025 43.3821C29.3336 41.3463 29.5123 39.0715 27.7714 35.4573C26.5643 32.8668 26.2742 31.5947 26.9891 30.8821C27.6159 30.2553 28.7301 30.0766 30.1809 31.5274C31.7895 33.136 32.3234 34.6982 32.6135 35.5246L35.8076 33.6746Z"
              fill="#E4C280"/>
    </g>
    <defs>
        <clipPath id="clip0">
            <rect width="60" height="60" fill="white"/>
        </clipPath>
    </defs>
</svg>
