<svg width="60" height="60" viewBox="0 0 60 60" fill="none" xmlns="http://www.w3.org/2000/svg">
    <path d="M19.4531 40.5469C16.5452 40.5469 14.1797 42.9124 14.1797 45.8203V47.5781H31.7578V45.8203C31.7578 42.9124 29.3923 40.5469 26.4844 40.5469H19.4531Z"
          fill="#E4C280"/>
    <path d="M22.9688 33.5156C25.8812 33.5156 28.2422 31.1546 28.2422 28.2422C28.2422 25.3297 25.8812 22.9688 22.9688 22.9688C20.0563 22.9688 17.6953 25.3297 17.6953 28.2422C17.6953 31.1546 20.0563 33.5156 22.9688 33.5156Z"
          fill="#E4C280"/>
    <path d="M10.6641 45.8203C10.6641 40.9743 14.6071 37.0312 19.4531 37.0312H22.9688C18.1227 37.0312 14.1797 33.0882 14.1797 28.2422C14.1797 23.3961 18.1227 19.4531 22.9688 19.4531C27.8148 19.4531 31.7578 23.3961 31.7578 28.2422C31.7578 33.0882 27.8148 37.0312 22.9688 37.0312H26.4844C31.3304 37.0312 35.2734 40.9743 35.2734 45.8203V47.5781H56.3672V19.4531H43.1338L31.7578 25.142V12.4219H3.51562V47.5781H10.6641V45.8203Z"
          fill="#E4C280"/>
    <path d="M0 52.8516C0 55.764 2.36098 58.125 5.27344 58.125H54.6094C57.5218 58.125 60 55.764 60 52.8516V51.0938H0V52.8516Z"
          fill="#E4C280"/>
    <path d="M35.2734 19.4531L42.3047 15.9375H60V1.875H35.2734V19.4531ZM52.8516 7.14844H56.3672V10.6641H52.8516V7.14844ZM45.8203 7.14844H49.3359V10.6641H45.8203V7.14844ZM38.7891 7.14844H42.3047V10.6641H38.7891V7.14844Z"
          fill="#E4C280"/>
</svg>
