<svg width="569" height="470" viewBox="0 0 569 470" fill="none" xmlns="http://www.w3.org/2000/svg">
<mask id="path-1-inside-1" fill="white">
<path d="M187 110.5C187 111.328 184.985 112 182.5 112C180.015 112 178 111.328 178 110.5C178 109.672 180.015 109 182.5 109C184.985 109 187 109.672 187 110.5Z"/>
<path d="M137.5 105.5V50L175.5 39L236.5 52.5C243.333 52.1667 258.6 52.2 265 55C273 58.5 293 70.5 302.5 74C307.7 71.2 317.667 67.8333 322 66.5L325 70.5L394 87V149.5C383.667 153.5 361.8 161.6 357 162C352.2 162.4 325 160.167 312 159C308.333 161 300.2 165 297 165V176L333.5 187.5L336 190H344C351.167 190 367.4 195.7 375 218.5C378.2 220.1 383.667 223.167 386 224.5L387.25 228.5L388.5 232.5C389.849 232.919 391.754 233.54 394 234.314C396.781 235.272 400.084 236.465 403.5 237.796C407.208 239.241 411.049 240.849 414.5 242.5C426 248 435.5 272.5 429.5 303C422 331.5 394 355 380.5 353C374.346 352.088 367.359 350.051 361.5 348.036C357.076 346.514 353.295 345.004 351 344C348.5 347 343 353 341 353C339 353 334.5 350.333 332.5 349C328.5 351.833 319 357.4 313 357C305.5 356.5 291.5 352.5 291 352C290.706 352.294 287.221 351.854 282 350.58C269.446 347.516 246.86 339.626 234.5 325.5C227.5 323.5 187 307.5 184.5 297C181 294.5 166.5 288 161.5 268C160.3 270.8 158.333 280.167 157.5 284.5L126 274C121.833 262 115.7 231.4 124.5 205C134 188 155 162.5 167 156.5C178.6 159.7 193.167 163.833 199 165.5H203L221 172.5V165.5C213.333 162.667 197.5 155.7 195.5 150.5C195.1 146.5 195.333 142.5 195.5 141L171 133.5L170.5 121.5L137.5 105.5Z"/>
<path d="M199 270.5C199 271.881 198.328 273 197.5 273C196.672 273 196 271.881 196 270.5C196 269.119 196.672 268 197.5 268C198.328 268 199 269.119 199 270.5Z"/>
<path d="M419.513 303.907C412.05 327.154 395.89 342.754 383.418 338.75C370.946 334.747 366.886 312.655 374.348 289.408C381.811 266.161 397.972 250.561 410.444 254.565C422.916 258.569 426.976 280.66 419.513 303.907Z"/>
</mask>
<path d="M388.5 232.5V233H389.725L388.85 232.143L388.5 232.5ZM351 344L350.814 344.464L352.451 345.119L351.402 343.702L351 344ZM192.5 62.5L192.968 62.3244L192.874 62.0721L192.611 62.0124L192.5 62.5ZM194 66.5L194.495 66.4293L194.487 66.3754L194.468 66.3244L194 66.5ZM187.5 105.5V105H187.461L187.423 105.006L187.5 105.5ZM196.5 60L196.385 60.4866L196.504 60.5149L196.624 60.4845L196.5 60ZM150 49L149.868 48.5178L149.885 49.4866L150 49ZM175.5 42L175.62 41.5146L175.493 41.4833L175.368 41.5178L175.5 42ZM222 53.5L222.124 53.9845L222.12 53.0146L222 53.5ZM181.5 50V50.5H181.783L181.929 50.2572L181.5 50ZM183 47.5L183.3 47.1L182.856 46.7674L182.571 47.2428L183 47.5ZM185 49L184.7 49.4L184.833 49.5H185V49ZM192.5 49L192.947 49.2236L193.309 48.5H192.5V49ZM191.5 51L191.053 50.7764L190.691 51.5H191.5V51ZM194.5 51L194.676 51.4682L194.5 50.5V51ZM190.5 52.5L190.324 52.0318L190 52.1535V52.5H190.5ZM190.5 53.5L190.379 53.9851L191 54.1404V53.5H190.5ZM186.5 52.5L186.621 52.0149L186.562 52H186.5V52.5ZM177.5 52.5L177.2 52.1L176 53H177.5V52.5ZM179.5 51L179.8 51.4L180.64 50.7697L179.621 50.5149L179.5 51ZM175.5 50V49.5L175.379 50.4851L175.5 50ZM293 86.5L293.095 86.0092L293 86.5ZM298.5 82L298.365 81.5185L298.391 82.4879L298.5 82ZM323.5 75L323.603 74.5107L323.483 74.4855L323.365 74.5185L323.5 75ZM380.5 87L380.658 87.4743L382.409 86.8909L380.603 86.5107L380.5 87ZM356.5 95L356.391 95.4879L356.526 95.5183L356.658 95.4743L356.5 95ZM189 183.5L189.354 183.854L189 183.5ZM160 244.5L160.5 244.479L160.498 244.449L160.493 244.419L160 244.5ZM255 197.5L255.398 197.803L255.426 197.766L255.447 197.724L255 197.5ZM259.5 188.5L259.344 188.025L259.146 188.09L259.053 188.276L259.5 188.5ZM178.5 230.5L178.99 230.6L178.5 230.5ZM200 254L199.7 254.4L199.706 254.404L199.712 254.409L200 254ZM212.5 278.5L212.001 278.467L212.5 278.5ZM191.5 268L191.924 268.265L192.066 268.037L191.955 267.793L191.5 268ZM189 262.5L189.144 262.021L188.089 261.705L188.545 262.707L189 262.5ZM194 264L193.856 264.479L194.142 264.565L194.354 264.354L194 264ZM198.5 259.5L198.974 259.342L198.719 258.574L198.146 259.146L198.5 259.5ZM201 267L200.526 267.158L200.64 267.5H201V267ZM206.5 267L206.929 267.257L207.383 266.5H206.5V267ZM203.5 272L203.071 271.743L202.915 272.003L203.074 272.262L203.5 272ZM207.5 278.5L207.424 278.994L208.492 279.159L207.926 278.238L207.5 278.5ZM201 277.5L201.076 277.006L200.543 276.924L200.501 277.462L201 277.5ZM200.5 284L200.113 284.317L200.903 285.282L200.999 284.038L200.5 284ZM196 278.5L196.387 278.183L196.237 278H196V278.5ZM191.5 278.5L191.012 278.392L190.877 279H191.5V278.5ZM192.5 274L192.988 274.108L193.068 273.749L192.748 273.566L192.5 274ZM189 272L188.576 271.735L188.3 272.176L188.752 272.434L189 272ZM341 340L340.543 340.202L340.625 340.388L340.814 340.464L341 340ZM326 334L325.527 334.162L325.598 334.368L325.797 334.457L326 334ZM282 331H281.5V331.353L281.832 331.471L282 331ZM282 255.5L281.607 255.191L281.5 255.327V255.5H282ZM326 199.5L326.181 199.034L325.836 198.9L325.607 199.191L326 199.5ZM342.5 205.898L342.681 205.432L342.5 205.898ZM332.5 226L332.851 226.356L332.911 226.297L332.948 226.223L332.5 226ZM297 261L296.649 260.644L296.461 260.829L296.508 261.089L297 261ZM297 336.347L296.832 336.818L297 336.347ZM228.5 242.5L228.958 242.7L228.5 242.5ZM269.5 158H269V158.64L269.621 158.485L269.5 158ZM283.093 156.481L283.102 156.981L283.093 156.481ZM137.389 50.4876L192.389 62.9876L192.611 62.0124L137.611 49.5124L137.389 50.4876ZM192.032 62.6756L193.532 66.6756L194.468 66.3244L192.968 62.3244L192.032 62.6756ZM193.5 66.4936C193.417 72.9919 193.242 82.7386 192.988 90.8594C192.861 94.9206 192.714 98.5706 192.549 101.203C192.467 102.521 192.381 103.575 192.291 104.296C192.246 104.659 192.202 104.921 192.161 105.085C192.152 105.124 192.143 105.154 192.136 105.176C192.128 105.199 192.124 105.207 192.126 105.204C192.127 105.202 192.131 105.194 192.138 105.183C192.145 105.172 192.159 105.153 192.181 105.13C192.222 105.088 192.33 105 192.5 105V106C192.695 106 192.827 105.899 192.893 105.832C192.959 105.766 192.999 105.694 193.023 105.646C193.071 105.548 193.106 105.433 193.132 105.325C193.187 105.102 193.237 104.792 193.283 104.419C193.377 103.667 193.465 102.588 193.547 101.266C193.713 98.6169 193.86 94.9544 193.987 90.8906C194.242 82.7614 194.417 73.0081 194.5 66.5064L193.5 66.4936ZM192.5 105H187.5V106H192.5V105ZM187.423 105.006C184.746 105.424 180.703 106.177 177.273 107.079C175.56 107.529 173.982 108.021 172.798 108.533C172.208 108.789 171.695 109.058 171.309 109.342C170.941 109.613 170.598 109.962 170.51 110.402L171.49 110.598C171.502 110.538 171.583 110.382 171.901 110.148C172.201 109.927 172.637 109.693 173.196 109.451C174.31 108.969 175.831 108.492 177.527 108.046C180.913 107.156 184.921 106.409 187.577 105.994L187.423 105.006ZM170.51 110.402C170.3 111.449 170.175 113.534 170.1 115.67C170.025 117.823 170 120.079 170 121.5H171C171 120.088 171.025 117.844 171.1 115.705C171.175 113.549 171.3 111.551 171.49 110.598L170.51 110.402ZM196.615 59.5134L150.115 48.5134L149.885 49.4866L196.385 60.4866L196.615 59.5134ZM150.132 49.4822L175.632 42.4822L175.368 41.5178L149.868 48.5178L150.132 49.4822ZM175.38 42.4854L221.88 53.9854L222.12 53.0146L175.62 41.5146L175.38 42.4854ZM221.876 53.0155L196.376 59.5155L196.624 60.4845L222.124 53.9845L221.876 53.0155ZM181.929 50.2572L183.429 47.7572L182.571 47.2428L181.071 49.7428L181.929 50.2572ZM182.7 47.9L184.7 49.4L185.3 48.6L183.3 47.1L182.7 47.9ZM185 49.5H192.5V48.5H185V49.5ZM192.053 48.7764L191.053 50.7764L191.947 51.2236L192.947 49.2236L192.053 48.7764ZM191.5 51.5H194.5V50.5H191.5V51.5ZM194.324 50.5318L190.324 52.0318L190.676 52.9682L194.676 51.4682L194.324 50.5318ZM190 52.5V53.5H191V52.5H190ZM190.621 53.0149L186.621 52.0149L186.379 52.9851L190.379 53.9851L190.621 53.0149ZM186.5 52H177.5V53H186.5V52ZM177.8 52.9L179.8 51.4L179.2 50.6L177.2 52.1L177.8 52.9ZM179.621 50.5149L175.621 49.5149L175.379 50.4851L179.379 51.4851L179.621 50.5149ZM175.5 50.5H181.5V49.5H175.5V50.5ZM184 51.5H187.5V50.5H184V51.5ZM193.505 66.5707C194.253 71.8075 195.259 79.361 197.591 85.9176C199.915 92.45 203.625 98.1825 209.898 99.4895L210.102 98.5105C204.375 97.3175 200.835 92.05 198.534 85.5824C196.241 79.139 195.247 71.6925 194.495 66.4293L193.505 66.5707ZM209.898 99.4895C215.981 100.757 220.947 100.379 225.787 98.7231C230.607 97.0741 235.281 94.1636 240.782 90.4131L240.218 89.5869C234.719 93.3364 230.143 96.1759 225.463 97.7769C220.803 99.3713 216.019 99.7433 210.102 98.5105L209.898 99.4895ZM292.905 86.9908C307.304 89.7906 341.236 96.4905 356.403 99.4905L356.597 98.5095C341.431 95.5095 307.496 88.8094 293.095 86.0092L292.905 86.9908ZM356.652 99.4762L394.152 87.4762L393.848 86.5238L356.348 98.5238L356.652 99.4762ZM356 99.004L356.5 162.004L357.5 161.996L357 98.996L356 99.004ZM298.635 82.4815L323.635 75.4815L323.365 74.5185L298.365 81.5185L298.635 82.4815ZM323.397 75.4893L380.397 87.4893L380.603 86.5107L323.603 74.5107L323.397 75.4893ZM380.342 86.5257L356.342 94.5257L356.658 95.4743L380.658 87.4743L380.342 86.5257ZM356.609 94.5121L298.609 81.5121L298.391 82.4879L356.391 95.4879L356.609 94.5121ZM298.573 76.0054C296.345 75.6753 292.618 74.9303 288.705 73.7706C284.783 72.6088 280.715 71.0424 277.777 69.084L277.223 69.916C280.285 71.9576 284.467 73.5579 288.42 74.7294C292.382 75.9031 296.155 76.658 298.427 76.9946L298.573 76.0054ZM277.777 69.084C275.931 67.8528 274.245 66.3498 272.334 64.7708C270.435 63.2012 268.342 61.5828 265.736 60.1844C260.509 57.3796 253.283 55.4954 241.458 56.5018L241.542 57.4982C253.217 56.5046 260.241 58.3704 265.264 61.0656C267.783 62.4172 269.815 63.9863 271.697 65.5417C273.568 67.0877 275.319 68.6472 277.223 69.916L277.777 69.084ZM241.458 56.5018C229.703 57.5022 221.271 58.8808 215.704 60.9051C210.143 62.9272 207.273 65.6628 207.001 69.4644L207.999 69.5356C208.227 66.3372 210.607 63.8228 216.046 61.8449C221.479 59.8692 229.797 58.4978 241.542 57.4982L241.458 56.5018ZM207.001 69.4644C206.871 71.291 207.197 73.5375 207.788 75.91C208.381 78.2895 209.249 80.8277 210.224 83.2492C212.165 88.0723 214.565 92.5107 216.12 94.3254L216.88 93.6746C215.435 91.9893 213.085 87.6777 211.151 82.8758C210.189 80.4848 209.338 77.9917 208.759 75.6682C208.178 73.3375 207.879 71.209 207.999 69.5356L207.001 69.4644ZM216.12 94.3254C216.588 94.8709 217.284 95.2112 218.085 95.415C218.889 95.6198 219.845 95.6986 220.889 95.6856C222.978 95.6597 225.501 95.2649 228.047 94.6912C233.135 93.545 238.431 91.6577 240.733 90.4422L240.267 89.5578C238.069 90.7181 232.865 92.5808 227.828 93.7157C225.312 94.2825 222.866 94.661 220.877 94.6857C219.882 94.6981 219.021 94.6215 218.331 94.4459C217.638 94.2693 217.162 94.0041 216.88 93.6746L216.12 94.3254ZM124.366 205.982L154.866 214.482L155.134 213.518L124.634 205.018L124.366 205.982ZM155.333 214.373C166.154 204.717 188.14 185.067 189.354 183.854L188.646 183.146C187.46 184.333 165.513 203.949 154.667 213.627L155.333 214.373ZM189.354 183.854C189.54 183.668 189.798 183.324 190.098 182.893C190.405 182.451 190.779 181.884 191.201 181.224C192.045 179.904 193.088 178.203 194.191 176.37C196.397 172.704 198.849 168.501 200.433 165.749L199.567 165.251C197.984 167.999 195.536 172.196 193.334 175.855C192.233 177.684 191.195 179.377 190.358 180.685C189.94 181.34 189.574 181.895 189.277 182.322C188.972 182.76 188.76 183.032 188.646 183.146L189.354 183.854ZM154.507 214.081L159.507 244.581L160.493 244.419L155.493 213.919L154.507 214.081ZM159.5 244.521L160.5 268.521L161.5 268.479L160.5 244.479L159.5 244.521ZM226.776 197.947C230.896 200.007 236.503 200.417 241.778 200.124C247.068 199.83 252.103 198.824 255.134 197.982L254.866 197.018C251.897 197.843 246.932 198.836 241.722 199.126C236.497 199.416 231.104 198.993 227.224 197.053L226.776 197.947ZM255.447 197.724L259.947 188.724L259.053 188.276L254.553 197.276L255.447 197.724ZM259.656 188.975L297.656 176.475L297.344 175.525L259.344 188.025L259.656 188.975ZM220.51 172.402C220.304 173.428 220.115 174.63 219.97 175.945L220.964 176.055C221.106 174.767 221.291 173.594 221.49 172.598L220.51 172.402ZM219.97 175.945C219.565 179.615 219.498 184.2 220.399 188.313C221.298 192.416 223.185 196.152 226.776 197.947L227.224 197.053C224.028 195.455 222.248 192.079 221.376 188.099C220.506 184.13 220.566 179.663 220.964 176.055L219.97 175.945ZM220.14 175.622C213.879 181.053 204.268 190.296 195.768 200.39C191.517 205.438 187.538 210.705 184.394 215.821C181.253 220.931 178.927 225.918 178.01 230.4L178.99 230.6C179.873 226.282 182.132 221.41 185.246 216.345C188.356 211.284 192.302 206.058 196.533 201.035C204.994 190.987 214.566 181.78 220.795 176.378L220.14 175.622ZM178.01 230.4C173.493 252.482 175.992 280.598 184.05 297.218L184.95 296.782C177.008 280.402 174.507 252.518 178.99 230.6L178.01 230.4ZM199.712 254.409C201.911 255.956 205.189 259.033 207.814 263.204C210.438 267.371 212.392 272.601 212.001 278.467L212.999 278.533C213.408 272.399 211.362 266.962 208.661 262.671C205.961 258.383 202.589 255.211 200.288 253.591L199.712 254.409ZM212.001 278.467C211.758 282.107 210.433 284.487 208.585 285.856C206.73 287.231 204.269 287.647 201.647 287.195C196.391 286.288 190.666 281.917 188.474 275.342L187.526 275.658C189.834 282.583 195.859 287.212 201.478 288.18C204.294 288.666 207.052 288.237 209.181 286.66C211.317 285.076 212.742 282.393 212.999 278.533L212.001 278.467ZM188.474 275.342C186.247 268.66 186.263 263.885 187.11 260.561C187.955 257.239 189.639 255.329 190.812 254.39L190.188 253.61C188.861 254.671 187.045 256.761 186.14 260.314C185.237 263.865 185.253 268.84 187.526 275.658L188.474 275.342ZM190.812 254.39C191.345 253.964 192.096 253.689 192.979 253.544C193.858 253.4 194.831 253.391 195.772 253.466C196.712 253.542 197.606 253.701 198.32 253.886C198.678 253.978 198.985 254.075 199.227 254.169C199.479 254.266 199.63 254.348 199.7 254.4L200.3 253.6C200.12 253.464 199.865 253.343 199.587 253.236C199.3 253.125 198.955 253.017 198.57 252.917C197.8 252.719 196.85 252.55 195.853 252.47C194.856 252.389 193.798 252.396 192.818 252.557C191.842 252.717 190.905 253.036 190.188 253.61L190.812 254.39ZM191.955 267.793L189.455 262.293L188.545 262.707L191.045 268.207L191.955 267.793ZM188.856 262.979L193.856 264.479L194.144 263.521L189.144 262.021L188.856 262.979ZM194.354 264.354L198.854 259.854L198.146 259.146L193.646 263.646L194.354 264.354ZM198.026 259.658L200.526 267.158L201.474 266.842L198.974 259.342L198.026 259.658ZM201 267.5H206.5V266.5H201V267.5ZM206.071 266.743L203.071 271.743L203.929 272.257L206.929 267.257L206.071 266.743ZM203.074 272.262L207.074 278.762L207.926 278.238L203.926 271.738L203.074 272.262ZM207.576 278.006L201.076 277.006L200.924 277.994L207.424 278.994L207.576 278.006ZM200.501 277.462L200.001 283.962L200.999 284.038L201.499 277.538L200.501 277.462ZM200.887 283.683L196.387 278.183L195.613 278.817L200.113 284.317L200.887 283.683ZM196 278H191.5V279H196V278ZM191.988 278.608L192.988 274.108L192.012 273.892L191.012 278.392L191.988 278.608ZM192.748 273.566L189.248 271.566L188.752 272.434L192.252 274.434L192.748 273.566ZM189.424 272.265L191.924 268.265L191.076 267.735L188.576 271.735L189.424 272.265ZM403.396 237.307C395.779 238.934 383.95 245.42 373.846 254.859C363.74 264.3 355.261 276.788 354.501 290.472L355.499 290.528C356.239 277.212 364.51 264.95 374.529 255.59C384.55 246.228 396.221 239.862 403.604 238.285L403.396 237.307ZM354.501 290.472C353.752 303.957 353.242 317.168 356.394 328.262C359.56 339.404 366.417 348.411 380.329 353.47L380.671 352.53C367.083 347.589 360.441 338.846 357.356 327.988C354.258 317.082 354.748 304.043 355.499 290.528L354.501 290.472ZM361.871 347.7C354.72 339.793 349.492 325.278 347.872 309.89C346.253 294.505 348.257 278.386 355.42 267.271L354.58 266.729C347.243 278.114 345.247 294.495 346.878 309.994C348.508 325.489 353.78 340.243 361.129 348.371L361.871 347.7ZM355.42 267.271C362.648 256.055 369.989 247.881 376.687 242.541C383.398 237.189 389.41 234.724 393.99 234.814L394.01 233.814C389.09 233.718 382.852 236.346 376.063 241.759C369.261 247.183 361.852 255.445 354.58 266.729L355.42 267.271ZM351.402 343.702C348.952 340.395 346.691 335.271 344.87 329.085C343.052 322.908 341.683 315.706 340.998 308.267C339.626 293.364 341.011 277.614 346.934 267.248L346.066 266.752C339.989 277.386 338.624 293.386 340.002 308.358C340.692 315.857 342.073 323.123 343.911 329.368C345.747 335.604 348.048 340.855 350.598 344.298L351.402 343.702ZM346.934 267.248C352.915 256.782 359.63 248.209 366.697 242.257C373.765 236.306 381.155 233 388.5 233V232C380.845 232 373.235 235.444 366.053 241.493C358.87 247.541 352.085 256.218 346.066 266.752L346.934 267.248ZM351.186 343.536L341.186 339.536L340.814 340.464L350.814 344.464L351.186 343.536ZM341.458 339.798C338.061 332.094 333.977 318.898 332.786 304.397C331.595 289.891 333.303 274.14 341.423 261.267L340.577 260.733C332.297 273.86 330.589 289.859 331.789 304.478C332.99 319.102 337.106 332.406 340.543 340.202L341.458 339.798ZM341.423 261.267C351.657 245.042 360.094 236.835 367.591 233.244C375.05 229.672 381.65 230.636 388.335 232.972L388.665 232.028C381.85 229.647 374.951 228.611 367.159 232.343C359.406 236.056 350.843 244.458 340.577 260.733L341.423 261.267ZM339.703 339.543L326.203 333.543L325.797 334.457L339.297 340.457L339.703 339.543ZM326.473 333.838C323.407 324.889 320.218 309.673 320.637 293.163C321.057 276.651 325.083 258.898 336.39 244.813L335.61 244.187C324.117 258.502 320.06 276.499 319.638 293.137C319.215 309.777 322.426 325.111 325.527 334.162L326.473 333.838ZM336.39 244.813C347.724 230.695 358.725 225.833 367.823 225.412C376.939 224.99 384.234 229.022 388.15 232.857L388.85 232.143C384.767 228.144 377.211 223.976 367.777 224.413C358.325 224.85 347.076 229.905 335.61 244.187L336.39 244.813ZM325.25 334.567C323.739 333.695 322.278 331.982 320.926 329.536C319.579 327.1 318.365 323.983 317.324 320.37C315.244 313.143 313.873 303.981 313.5 294.418C313.126 284.856 313.75 274.915 315.645 266.129C317.543 257.332 320.704 249.748 325.363 244.844L324.637 244.156C319.796 249.252 316.582 257.043 314.667 265.918C312.75 274.804 312.124 284.832 312.5 294.457C312.877 304.082 314.256 313.326 316.363 320.646C317.417 324.306 318.656 327.498 320.051 330.02C321.441 332.534 323.011 334.43 324.75 335.433L325.25 334.567ZM325.363 244.844C334.822 234.887 344.245 228.629 354.283 225.998C364.315 223.368 375.019 224.347 387.071 228.967L387.429 228.033C375.231 223.357 364.31 222.336 354.03 225.03C343.755 227.723 334.178 234.113 324.637 244.156L325.363 244.844ZM282.5 331V255.5H281.5V331H282.5ZM282.393 255.809L326.393 199.809L325.607 199.191L281.607 255.191L282.393 255.809ZM325.819 199.966L342.319 206.364L342.681 205.432L326.181 199.034L325.819 199.966ZM342.319 206.364L374.819 218.966L375.181 218.034L342.681 205.432L342.319 206.364ZM342.052 205.675L332.052 225.777L332.948 226.223L342.948 206.121L342.052 205.675ZM332.149 225.644L296.649 260.644L297.351 261.356L332.851 226.356L332.149 225.644ZM296.508 261.089C298.006 269.413 300.899 289.739 300.5 304.486L301.5 304.514C301.901 289.661 298.994 269.254 297.492 260.911L296.508 261.089ZM332.668 348.529L297.168 335.876L296.832 336.818L332.332 349.471L332.668 348.529ZM297.168 335.876L282.168 330.529L281.832 331.471L296.832 336.818L297.168 335.876ZM300.5 304.486C300.101 319.247 297.674 331.807 296.516 336.22L297.484 336.473C298.66 331.989 301.099 319.353 301.5 304.514L300.5 304.486ZM291.354 351.646C274.498 334.791 261.036 296.003 277.465 254.183L276.535 253.817C259.964 295.997 273.502 335.209 290.646 352.354L291.354 351.646ZM277.465 254.183C293.913 212.317 317.303 196.925 336.162 190.473L335.838 189.527C316.697 196.075 293.087 211.683 276.535 253.817L277.465 254.183ZM282.368 350.242C273.459 340.551 265.611 322.138 262.432 301.496C259.254 280.864 260.759 258.107 270.442 239.733L269.558 239.267C259.741 257.893 258.246 280.886 261.443 301.649C264.639 322.402 272.541 341.029 281.632 350.918L282.368 350.242ZM270.442 239.733C280.181 221.254 289.394 208.323 299.444 200.01C309.474 191.713 320.36 188 333.5 188V187C320.14 187 309.026 190.787 298.806 199.24C288.606 207.677 279.319 220.746 269.558 239.267L270.442 239.733ZM234.965 325.316C231.23 315.855 227.116 301.147 225.246 285.814C223.375 270.469 223.762 254.577 228.958 242.7L228.042 242.3C222.738 254.423 222.375 270.531 224.254 285.936C226.134 301.353 230.27 316.145 234.035 325.684L234.965 325.316ZM228.958 242.7C237.337 223.548 250.08 204.783 255.398 197.803L254.602 197.197C249.254 204.217 236.463 223.052 228.042 242.3L228.958 242.7ZM283.938 85.5656C287.019 85.9504 290.032 86.4323 292.905 86.9908L293.095 86.0092C290.201 85.4463 287.165 84.9608 284.062 84.5733L283.938 85.5656ZM312.093 158.509C305.968 157.353 294.088 155.783 283.084 155.981L283.102 156.981C294.019 156.784 305.828 158.344 311.907 159.491L312.093 158.509ZM283.084 155.981C278.158 156.07 273.388 156.513 269.379 157.515L269.621 158.485C273.528 157.508 278.215 157.069 283.102 156.981L283.084 155.981ZM283.5 85.0631L282.593 156.475L283.593 156.487L284.5 85.0758L283.5 85.0631ZM240.782 90.4131C247.169 86.0582 257.951 84.4186 269.494 84.5544L269.506 83.5544C257.93 83.4183 246.876 85.0474 240.218 89.5869L240.782 90.4131ZM269.494 84.5544C274.286 84.6107 279.191 84.9727 283.938 85.5656L284.062 84.5733C279.281 83.9762 274.339 83.6113 269.506 83.5544L269.494 84.5544ZM270 158V84.0544H269V158H270ZM220.955 165.998C230.215 166.835 245.128 167.814 259.78 168.032C274.411 168.25 288.853 167.71 297.13 165.483L296.87 164.517C288.747 166.703 274.439 167.25 259.795 167.032C245.172 166.815 230.285 165.837 221.045 165.002L220.955 165.998ZM137.5 105.5H136.5V106.126L137.064 106.4L137.5 105.5ZM137.5 50L137.222 49.0394L136.5 49.2484V50H137.5ZM175.5 39L175.716 38.0236L175.467 37.9685L175.222 38.0394L175.5 39ZM236.5 52.5L236.284 53.4764L236.415 53.5053L236.549 53.4988L236.5 52.5ZM265 55L264.599 55.9162L265 55ZM302.5 74L302.154 74.9383L302.577 75.0942L302.974 74.8805L302.5 74ZM322 66.5L322.8 65.9L322.378 65.3374L321.706 65.5442L322 66.5ZM325 70.5L324.2 71.1L324.417 71.3887L324.767 71.4726L325 70.5ZM394 87H395V86.2109L394.233 86.0274L394 87ZM394 149.5L394.361 150.433L395 150.185V149.5H394ZM312 159L312.089 158.004L311.787 157.977L311.521 158.122L312 159ZM297 165V164H296V165H297ZM297 176H296V176.733L296.7 176.954L297 176ZM333.5 187.5L334.207 186.793L334.034 186.62L333.801 186.546L333.5 187.5ZM336 190L335.293 190.707L335.586 191H336V190ZM375 218.5L374.051 218.816L374.182 219.209L374.553 219.394L375 218.5ZM386 224.5L386.955 224.202L386.837 223.827L386.496 223.632L386 224.5ZM388.5 232.5L387.546 232.798L387.702 233.299L388.204 233.455L388.5 232.5ZM414.5 242.5L414.932 241.598L414.5 242.5ZM429.5 303L430.467 303.254L430.475 303.224L430.481 303.193L429.5 303ZM380.5 353L380.354 353.989L380.5 353ZM351 344L351.401 343.084L350.713 342.783L350.232 343.36L351 344ZM332.5 349L333.055 348.168L332.483 347.787L331.922 348.184L332.5 349ZM313 357L312.934 357.998L313 357ZM291 352L291.707 351.293L291 350.586L290.293 351.293L291 352ZM234.5 325.5L235.253 324.841L235.058 324.62L234.775 324.538L234.5 325.5ZM184.5 297L185.473 296.768L185.386 296.404L185.081 296.186L184.5 297ZM161.5 268L162.47 267.757L161.75 264.878L160.581 267.606L161.5 268ZM157.5 284.5L157.184 285.449L158.267 285.81L158.482 284.689L157.5 284.5ZM126 274L125.055 274.328L125.217 274.793L125.684 274.949L126 274ZM124.5 205L123.627 204.512L123.581 204.594L123.551 204.684L124.5 205ZM167 156.5L167.266 155.536L166.896 155.434L166.553 155.606L167 156.5ZM199 165.5L198.725 166.462L198.86 166.5H199V165.5ZM203 165.5L203.362 164.568L203.188 164.5H203V165.5ZM221 172.5L220.638 173.432L222 173.962V172.5H221ZM221 165.5H222V164.803L221.347 164.562L221 165.5ZM195.5 150.5L194.505 150.6L194.518 150.733L194.567 150.859L195.5 150.5ZM195.5 141L196.494 141.11L196.585 140.286L195.793 140.044L195.5 141ZM171 133.5L170.001 133.542L170.03 134.249L170.707 134.456L171 133.5ZM170.5 121.5L171.499 121.458L171.474 120.861L170.936 120.6L170.5 121.5ZM403.5 237.796L403.863 236.864L403.5 237.796ZM361.5 348.036L361.825 347.09L361.5 348.036ZM394 234.314L394.326 233.369L394 234.314ZM282 350.58L281.763 351.551L282 350.58ZM186 110.5C186 110.269 186.141 110.209 186.027 110.298C185.925 110.379 185.715 110.496 185.366 110.612C184.678 110.841 183.665 111 182.5 111V113C183.82 113 185.057 112.823 185.998 112.509C186.464 112.354 186.912 112.147 187.265 111.869C187.607 111.6 188 111.145 188 110.5H186ZM182.5 111C181.335 111 180.322 110.841 179.634 110.612C179.285 110.496 179.075 110.379 178.973 110.298C178.859 110.209 179 110.269 179 110.5H177C177 111.145 177.393 111.6 177.735 111.869C178.088 112.147 178.536 112.354 179.002 112.509C179.943 112.823 181.18 113 182.5 113V111ZM179 110.5C179 110.731 178.859 110.791 178.973 110.702C179.075 110.621 179.285 110.504 179.634 110.388C180.322 110.159 181.335 110 182.5 110V108C181.18 108 179.943 108.177 179.002 108.491C178.536 108.646 178.088 108.853 177.735 109.131C177.393 109.4 177 109.855 177 110.5H179ZM182.5 110C183.665 110 184.678 110.159 185.366 110.388C185.715 110.504 185.925 110.621 186.027 110.702C186.141 110.791 186 110.731 186 110.5H188C188 109.855 187.607 109.4 187.265 109.131C186.912 108.853 186.464 108.646 185.998 108.491C185.057 108.177 183.82 108 182.5 108V110ZM138.5 105.5V50H136.5V105.5H138.5ZM137.778 50.9606L175.778 39.9606L175.222 38.0394L137.222 49.0394L137.778 50.9606ZM175.284 39.9764L236.284 53.4764L236.716 51.5236L175.716 38.0236L175.284 39.9764ZM236.549 53.4988C239.936 53.3336 245.425 53.2591 250.855 53.5733C256.331 53.8903 261.582 54.5961 264.599 55.9162L265.401 54.0838C262.018 52.6039 256.435 51.893 250.97 51.5767C245.458 51.2576 239.897 51.3331 236.451 51.5012L236.549 53.4988ZM264.599 55.9162C268.55 57.6445 275.492 61.4869 282.713 65.3802C289.88 69.2442 297.324 73.1586 302.154 74.9383L302.846 73.0617C298.176 71.3414 290.87 67.5058 283.662 63.6198C276.509 59.7631 269.45 55.8555 265.401 54.0838L264.599 55.9162ZM302.974 74.8805C308.077 72.1327 317.956 68.7905 322.294 67.4558L321.706 65.5442C317.377 66.8761 307.323 70.2673 302.026 73.1195L302.974 74.8805ZM321.2 67.1L324.2 71.1L325.8 69.9L322.8 65.9L321.2 67.1ZM324.767 71.4726L393.767 87.9726L394.233 86.0274L325.233 69.5274L324.767 71.4726ZM393 87V149.5H395V87H393ZM393.639 148.567C388.479 150.565 380.44 153.586 373.095 156.156C369.421 157.442 365.93 158.612 363.062 159.484C360.156 160.368 357.993 160.914 356.917 161.003L357.083 162.997C358.408 162.886 360.777 162.27 363.644 161.397C366.55 160.513 370.07 159.333 373.755 158.044C381.127 155.464 389.187 152.435 394.361 150.433L393.639 148.567ZM356.917 161.003C355.797 161.097 353.269 161.038 349.822 160.865C346.405 160.694 342.157 160.417 337.647 160.09C328.63 159.436 318.586 158.587 312.089 158.004L311.911 159.996C318.414 160.58 328.47 161.43 337.503 162.085C342.018 162.412 346.283 162.691 349.722 162.863C353.131 163.033 355.803 163.103 357.083 162.997L356.917 161.003ZM311.521 158.122C309.708 159.111 306.786 160.597 303.928 161.832C302.499 162.45 301.101 162.999 299.873 163.391C298.622 163.792 297.637 164 297 164V166C297.963 166 299.195 165.708 300.483 165.296C301.795 164.876 303.259 164.3 304.722 163.668C307.648 162.403 310.625 160.889 312.479 159.878L311.521 158.122ZM296 165V176H298V165H296ZM296.7 176.954L333.2 188.454L333.801 186.546L297.301 175.046L296.7 176.954ZM332.793 188.207L335.293 190.707L336.707 189.293L334.207 186.793L332.793 188.207ZM336 191H344V189H336V191ZM344 191C350.733 191 366.586 196.421 374.051 218.816L375.949 218.184C368.214 194.979 351.601 189 344 189V191ZM374.553 219.394C377.725 220.981 383.17 224.035 385.504 225.368L386.496 223.632C384.164 222.299 378.675 219.219 375.447 217.606L374.553 219.394ZM414.069 243.402C419.439 245.971 424.571 253.137 427.602 263.652C430.617 274.112 431.491 287.7 428.519 302.807L430.481 303.193C433.509 287.8 432.633 273.888 429.523 263.098C426.429 252.363 421.061 244.529 414.932 241.598L414.069 243.402ZM428.533 302.746C424.84 316.78 416.081 329.625 406.56 338.714C401.802 343.256 396.88 346.834 392.343 349.148C387.779 351.476 383.722 352.466 380.647 352.011L380.354 353.989C384.028 354.534 388.534 353.336 393.251 350.93C397.995 348.51 403.073 344.807 407.941 340.161C417.669 330.875 426.66 317.72 430.467 303.254L428.533 302.746ZM350.232 343.36C348.997 344.842 347.021 347.063 345.117 348.906C344.163 349.83 343.248 350.638 342.466 351.208C342.074 351.493 341.737 351.703 341.461 351.838C341.168 351.982 341.026 352 341 352V354C341.474 354 341.941 353.83 342.342 353.634C342.759 353.43 343.199 353.148 343.644 352.824C344.534 352.175 345.525 351.295 346.508 350.344C348.479 348.437 350.503 346.158 351.768 344.64L350.232 343.36ZM341 352C340.682 352 340.162 351.885 339.455 351.624C338.772 351.372 337.999 351.017 337.206 350.61C335.622 349.798 334.031 348.818 333.055 348.168L331.945 349.832C332.97 350.515 334.628 351.535 336.294 352.39C337.126 352.817 337.978 353.211 338.763 353.501C339.526 353.782 340.318 354 341 354V352ZM331.922 348.184C329.963 349.572 326.639 351.64 323.076 353.307C319.471 354.993 315.795 356.184 313.067 356.002L312.934 357.998C316.205 358.216 320.279 356.823 323.924 355.118C327.611 353.393 331.037 351.262 333.078 349.816L331.922 348.184ZM313.067 356.002C309.412 355.759 304.11 354.653 299.618 353.53C297.381 352.971 295.365 352.412 293.883 351.965C293.14 351.74 292.54 351.546 292.116 351.396C291.902 351.32 291.746 351.259 291.643 351.215C291.591 351.192 291.566 351.18 291.559 351.176C291.528 351.159 291.612 351.197 291.707 351.293L290.293 352.707C290.42 352.834 290.561 352.91 290.612 352.938C290.689 352.979 290.771 353.017 290.851 353.051C291.012 353.121 291.215 353.198 291.447 353.28C291.913 353.446 292.547 353.65 293.305 353.879C294.822 354.338 296.869 354.904 299.133 355.47C303.64 356.597 309.088 357.741 312.934 357.998L313.067 356.002ZM234.775 324.538C231.351 323.56 219.534 319.087 208.254 313.54C202.618 310.769 197.156 307.749 192.96 304.785C190.861 303.302 189.105 301.852 187.808 300.472C186.497 299.079 185.726 297.833 185.473 296.768L183.527 297.232C183.899 298.792 184.941 300.343 186.351 301.842C187.774 303.355 189.647 304.893 191.806 306.418C196.126 309.47 201.695 312.544 207.371 315.335C218.716 320.913 230.649 325.44 234.225 326.462L234.775 324.538ZM185.081 296.186C181.456 293.597 167.361 287.319 162.47 267.757L160.53 268.243C165.64 288.681 180.544 295.403 183.919 297.814L185.081 296.186ZM160.581 267.606C159.939 269.104 159.129 272.24 158.388 275.45C157.639 278.698 156.936 282.135 156.518 284.311L158.482 284.689C158.897 282.531 159.594 279.119 160.337 275.9C161.088 272.643 161.861 269.696 162.419 268.394L160.581 267.606ZM157.816 283.551L126.316 273.051L125.684 274.949L157.184 285.449L157.816 283.551ZM126.945 273.672C122.815 261.777 116.747 231.423 125.449 205.316L123.551 204.684C114.654 231.377 120.852 262.223 125.055 274.328L126.945 273.672ZM125.373 205.488C130.083 197.059 137.666 186.489 145.571 177.276C149.522 172.672 153.541 168.421 157.31 164.955C161.09 161.477 164.572 158.832 167.447 157.394L166.553 155.606C163.428 157.168 159.785 159.96 155.956 163.483C152.115 167.016 148.041 171.328 144.054 175.974C136.084 185.261 128.417 195.941 123.627 204.512L125.373 205.488ZM166.734 157.464C178.33 160.663 192.893 164.795 198.725 166.462L199.275 164.538C193.44 162.871 178.87 158.737 167.266 155.536L166.734 157.464ZM199 166.5H203V164.5H199V166.5ZM202.638 166.432L220.638 173.432L221.362 171.568L203.362 164.568L202.638 166.432ZM222 172.5V165.5H220V172.5H222ZM221.347 164.562C217.543 163.156 211.711 160.724 206.594 158.004C204.034 156.644 201.68 155.226 199.854 153.842C197.987 152.428 196.826 151.161 196.433 150.141L194.567 150.859C195.174 152.439 196.742 153.993 198.646 155.436C200.591 156.91 203.049 158.385 205.656 159.771C210.872 162.543 216.791 165.01 220.653 166.438L221.347 164.562ZM196.495 150.4C196.104 146.485 196.333 142.557 196.494 141.11L194.506 140.89C194.334 142.443 194.096 146.515 194.505 150.6L196.495 150.4ZM195.793 140.044L171.293 132.544L170.707 134.456L195.207 141.956L195.793 140.044ZM171.999 133.458L171.499 121.458L169.501 121.542L170.001 133.542L171.999 133.458ZM170.936 120.6L137.936 104.6L137.064 106.4L170.064 122.4L170.936 120.6ZM403.137 238.728C406.83 240.167 410.647 241.766 414.069 243.402L414.932 241.598C411.45 239.933 407.585 238.314 403.863 236.864L403.137 238.728ZM380.647 352.011C374.581 351.112 367.661 349.097 361.825 347.09L361.175 348.981C367.058 351.005 374.111 353.064 380.354 353.989L380.647 352.011ZM361.825 347.09C357.425 345.576 353.669 344.076 351.401 343.084L350.599 344.916C352.92 345.932 356.727 347.451 361.175 348.981L361.825 347.09ZM388.204 233.455C389.541 233.87 391.437 234.488 393.674 235.259L394.326 233.369C392.072 232.592 390.157 231.967 388.796 231.545L388.204 233.455ZM393.674 235.259C396.445 236.214 399.735 237.402 403.137 238.728L403.863 236.864C400.433 235.527 397.117 234.33 394.326 233.369L393.674 235.259ZM385.046 224.798L386.296 228.798L388.205 228.202L386.955 224.202L385.046 224.798ZM386.296 228.798L387.546 232.798L389.455 232.202L388.205 228.202L386.296 228.798ZM290.293 351.293C290.451 351.135 290.611 351.091 290.626 351.087C290.664 351.076 290.675 351.077 290.642 351.081C290.578 351.087 290.452 351.091 290.248 351.082C289.848 351.065 289.26 351.003 288.495 350.889C286.972 350.662 284.826 350.24 282.237 349.608L281.763 351.551C284.394 352.194 286.602 352.629 288.2 352.867C288.996 352.986 289.661 353.058 290.16 353.08C290.406 353.091 290.641 353.091 290.844 353.07C290.945 353.06 291.066 353.042 291.19 353.006C291.29 352.976 291.513 352.902 291.707 352.707L290.293 351.293ZM282.237 349.608C276.011 348.089 267.291 345.37 258.603 341.283C249.905 337.191 241.305 331.759 235.253 324.841L233.747 326.159C240.055 333.367 248.928 338.942 257.752 343.093C266.585 347.248 275.436 350.007 281.763 351.551L282.237 349.608ZM198 270.5C198 271.04 197.867 271.481 197.703 271.753C197.528 272.045 197.425 272 197.5 272V274C198.403 274 199.051 273.395 199.418 272.782C199.798 272.15 200 271.34 200 270.5H198ZM197.5 272C197.575 272 197.472 272.045 197.297 271.753C197.133 271.481 197 271.04 197 270.5H195C195 271.34 195.202 272.15 195.582 272.782C195.949 273.395 196.597 274 197.5 274V272ZM197 270.5C197 269.96 197.133 269.519 197.297 269.247C197.472 268.955 197.575 269 197.5 269V267C196.597 267 195.949 267.605 195.582 268.218C195.202 268.85 195 269.66 195 270.5H197ZM197.5 269C197.425 269 197.528 268.955 197.703 269.247C197.867 269.519 198 269.96 198 270.5H200C200 269.66 199.798 268.85 199.418 268.218C199.051 267.605 198.403 267 197.5 267V269ZM418.561 303.602C414.87 315.1 409.041 324.659 402.65 330.829C396.224 337.031 389.44 339.633 383.724 337.798L383.112 339.703C389.868 341.871 397.4 338.676 404.039 332.267C410.711 325.827 416.694 315.962 420.466 304.213L418.561 303.602ZM383.724 337.798C378.008 335.963 374.006 329.898 372.391 321.115C370.785 312.378 371.609 301.212 375.301 289.714L373.396 289.103C369.625 300.852 368.748 312.355 370.424 321.476C372.092 330.551 376.357 337.534 383.112 339.703L383.724 337.798ZM375.301 289.714C378.992 278.216 384.821 268.657 391.212 262.487C397.638 256.284 404.422 253.682 410.138 255.517L410.749 253.613C403.994 251.444 396.462 254.64 389.823 261.048C383.151 267.489 377.168 277.353 373.396 289.103L375.301 289.714ZM410.138 255.517C415.854 257.352 419.856 263.417 421.471 272.201C423.077 280.938 422.252 292.104 418.561 303.602L420.466 304.213C424.237 292.464 425.114 280.96 423.438 271.839C421.77 262.764 417.505 255.782 410.749 253.613L410.138 255.517Z" fill="white" mask="url(#path-1-inside-1)"/>
</svg>
