<svg width="72" height="53" viewBox="0 0 72 53" fill="none" xmlns="http://www.w3.org/2000/svg">
    <path d="M71.4355 18.8797C71.4355 18.1447 71.1874 17.406 70.6797 16.7973C62.0667 6.56169 49.5223 0.652129 36.2251 0.564131L35.6414 0.564131C22.3483 0.65213 9.80635 6.56169 1.19354 16.7985C0.699534 17.3869 0.452167 18.1014 0.435545 18.8147L0.435545 18.9467C0.454123 19.8494 0.847905 20.7394 1.59393 21.3671C2.19623 21.8748 2.93567 22.1249 3.6724 22.1249C4.60543 22.1249 5.52086 21.7355 6.15518 20.9672C13.5942 12.1217 24.4522 7.04421 35.933 7.04421C47.4307 7.04421 58.2771 12.1217 65.7179 20.9763C66.3502 21.7355 67.2703 22.1249 68.1987 22.1249C68.9357 22.1249 69.677 21.8748 70.2771 21.3671C71.0415 20.7228 71.4375 19.8054 71.4355 18.8797V18.8797ZM61.5086 27.2168C61.5086 26.4773 61.2583 25.734 60.7489 25.1227C54.5516 17.756 45.5079 13.5394 35.933 13.5375C26.3632 13.5375 17.3194 17.756 11.1244 25.1227C10.6081 25.734 10.3554 26.4774 10.3554 27.2148C10.3554 28.1393 10.7494 29.0515 11.5138 29.6905C12.1297 30.2126 12.8645 30.4529 13.6059 30.4529C14.5252 30.4509 15.4407 30.062 16.087 29.307C21.0442 23.4035 28.2723 20.0163 35.933 20.0163C43.5991 20.0163 50.8291 23.4016 55.7863 29.307C56.4304 30.062 57.3478 30.4529 58.2678 30.4509C59.0021 30.4509 59.7455 30.2026 60.3549 29.6937C61.1173 29.0542 61.5086 28.1393 61.5086 27.2168V27.2168ZM51.5842 35.5328C51.5842 34.7995 51.3366 34.0652 50.8291 33.4624C47.1109 29.0422 41.6873 26.5055 35.933 26.5055C30.183 26.5055 24.7621 29.0423 21.0466 33.4624C20.5372 34.0652 20.2869 34.8039 20.2869 35.5382C20.2869 36.4602 20.6802 37.3796 21.4453 38.019C22.0476 38.5404 22.7863 38.7809 23.523 38.7809C24.4522 38.7809 25.3695 38.392 26.0158 37.6296C28.4876 34.6739 32.1058 32.9858 35.933 32.9858C39.7646 32.9858 43.3837 34.6766 45.8552 37.6296C46.5015 38.3901 47.417 38.7809 48.3456 38.7809C49.087 38.7809 49.8257 38.538 50.4258 38.019C51.1901 37.3776 51.5842 36.4575 51.5842 35.5328V35.5328ZM42.4177 45.9577L42.4177 45.9564C42.4177 42.3813 39.5145 39.4671 35.933 39.4624C32.3588 39.4624 29.4561 42.3813 29.4561 45.9564C29.4561 49.5069 32.3148 52.3911 35.8543 52.4358L36.0144 52.4358C39.5565 52.3911 42.4177 49.5096 42.4177 45.9577V45.9577Z"
          fill="#90A6BA"/>
</svg>
