<svg width="133" height="105" viewBox="0 0 133 105" fill="none" xmlns="http://www.w3.org/2000/svg" style="">
    <path stroke="#90A6BA" stroke-width="2" stroke-linecap="round" stroke-linejoin="round"
          d="M18.074199999999998,64.5513A32.4307,32.4307 0,1,1 82.9356,64.5513A32.4307,32.4307 0,1,1 18.074199999999998,64.5513"
          class="wfIyBxLk_0"></path>
    <path d="M28.641 64.9195L25.3242 60.3742L55.7894 39.8594L59.7204 45.1416L28.641 64.9195Z" stroke="#90A6BA"
          stroke-width="2" stroke-linecap="round" stroke-linejoin="round" class="wfIyBxLk_1"></path>
    <path d="M32.9386 60.4976L31.5873 58.6549C31.5054 58.6549 31.2188 57.9179 31.7102 57.5493C32.0149 57.3208 32.664 57.4289 32.9386 57.795C33.2662 58.3273 33.7986 59.0235 34.0443 59.392C34.237 59.6811 34.4127 60.2519 33.9213 60.6204C33.5282 60.9152 33.1024 60.6614 32.9386 60.4976Z"
          stroke="#90A6BA" stroke-width="2" stroke-linecap="round" stroke-linejoin="round" class="wfIyBxLk_2"></path>
    <path d="M36.5362 57.7913L35.185 55.9486C35.1031 55.9486 34.8165 55.2116 35.3078 54.843C35.6125 54.6145 36.2617 54.7226 36.5362 55.0887C36.8638 55.621 37.3963 56.3172 37.642 56.6857C37.8347 56.9748 38.0104 57.5456 37.519 57.9141C37.1259 58.2089 36.7 57.9551 36.5362 57.7913Z"
          stroke="#90A6BA" stroke-width="2" stroke-linecap="round" stroke-linejoin="round" class="wfIyBxLk_3"></path>
    <path d="M40.4679 55.3347L39.1166 53.4921C39.0347 53.4921 38.7481 52.755 39.2395 52.3865C39.5442 52.1579 40.1933 52.2661 40.4679 52.6322C40.7955 53.1645 41.3279 53.8606 41.5736 54.2291C41.7663 54.5182 41.942 55.089 41.4506 55.4576C41.0575 55.7524 40.6317 55.4985 40.4679 55.3347Z"
          stroke="#90A6BA" stroke-width="2" stroke-linecap="round" stroke-linejoin="round" class="wfIyBxLk_4"></path>
    <path d="M44.3995 52.6321L43.0482 50.7894C42.9663 50.7894 42.6798 50.0524 43.1711 49.6838C43.4758 49.4553 44.1249 49.5634 44.3995 49.9295C44.7271 50.4618 45.2596 51.158 45.5052 51.5265C45.698 51.8156 45.8736 52.3864 45.3823 52.7549C44.9892 53.0498 44.5633 52.7959 44.3995 52.6321Z"
          stroke="#90A6BA" stroke-width="2" stroke-linecap="round" stroke-linejoin="round" class="wfIyBxLk_5"></path>
    <path d="M48.0831 50.1753L46.7318 48.3326C46.6499 48.3326 46.3633 47.5956 46.8547 47.2271C47.1594 46.9985 47.8085 47.1066 48.0831 47.4727C48.4107 48.0051 48.9431 48.7012 49.1888 49.0697C49.3816 49.3588 49.5572 49.9296 49.0659 50.2981C48.6728 50.593 48.2469 50.3391 48.0831 50.1753Z"
          stroke="#90A6BA" stroke-width="2" stroke-linecap="round" stroke-linejoin="round" class="wfIyBxLk_6"></path>
    <path d="M52.0148 47.9639L50.6635 46.1212C50.5816 46.1212 50.295 45.3842 50.7863 45.0156C51.091 44.7871 51.7402 44.8952 52.0148 45.2613C52.3423 45.7936 52.8748 46.4898 53.1205 46.8583C53.3132 47.1474 53.4889 47.7182 52.9975 48.0867C52.6044 48.3815 52.1785 48.1277 52.0148 47.9639Z"
          stroke="#90A6BA" stroke-width="2" stroke-linecap="round" stroke-linejoin="round" class="wfIyBxLk_7"></path>
    <path d="M55.7003 45.5073L54.349 43.6647C54.2671 43.6647 53.9805 42.9276 54.4719 42.5591C54.7766 42.3305 55.4257 42.4387 55.7003 42.8048C56.0279 43.3371 56.5603 44.0332 56.806 44.4017C56.9988 44.6908 57.1744 45.2616 56.6831 45.6302C56.29 45.925 55.8641 45.6711 55.7003 45.5073Z"
          stroke="#90A6BA" stroke-width="2" stroke-linecap="round" stroke-linejoin="round" class="wfIyBxLk_8"></path>
    <path d="M27.7812 70.6932L37.9773 63.6912M29.7467 73.273L39.5742 66.6394M31.3437 75.4841L41.4169 68.7277M32.695 80.6436L34.5376 83.5918L45.7164 76.5897L43.7509 74.1329L32.695 80.6436Z"
          stroke="#90A6BA" stroke-width="2" stroke-linecap="round" stroke-linejoin="round" class="wfIyBxLk_9"></path>
    <path stroke="#90A6BA" stroke-width="2" stroke-linecap="round" stroke-linejoin="round"
          d="M45.10154,72.9047A2.70256,2.70256 0,1,1 50.50666,72.9047A2.70256,2.70256 0,1,1 45.10154,72.9047"
          class="wfIyBxLk_10"></path>
    <path d="M55.284 65.96C53.582 67.1421 50.129 69.5106 49.9333 69.5283L51.5006 71.8533L56.718 68.1737L55.284 65.96Z"
          stroke="#90A6BA" stroke-width="2" stroke-linecap="round" stroke-linejoin="round" class="wfIyBxLk_11"></path>
    <path stroke="#90A6BA" stroke-width="2" stroke-linecap="round" stroke-linejoin="round"
          d="M44.117140000000006,61.8487A4.66806,4.66806 0,1,1 53.45326,61.8487A4.66806,4.66806 0,1,1 44.117140000000006,61.8487"
          class="wfIyBxLk_12"></path>
    <path stroke="#90A6BA" stroke-width="2" stroke-linecap="round" stroke-linejoin="round"
          d="M60.57813,64.3057A4.42237,4.42237 0,1,1 69.42287,64.3057A4.42237,4.42237 0,1,1 60.57813,64.3057"
          class="wfIyBxLk_13"></path>
    <path stroke="#90A6BA" stroke-width="2" stroke-linecap="round" stroke-linejoin="round"
          d="M21.269600000000004,63.814A28.0083,28.0083 0,1,1 77.28620000000001,63.814A28.0083,28.0083 0,1,1 21.269600000000004,63.814"
          class="wfIyBxLk_14"></path>
    <path d="M6.28227 95.1394C4.70988 92.6825 2.10559 86.4994 1 83.7149L6.28227 80.2753L10.2133 82.855C13.0796 81.4628 19.1317 78.6046 20.4093 78.3098C22.9644 83.7149 30.7281 90.1437 34.2906 92.6825L18.8123 97.3506V99.1932C17.1335 100.422 13.6037 103.1 12.9158 103.984C12.3016 104.353 8.24777 98.2105 6.28227 95.1394Z"
          stroke="#90A6BA" stroke-width="2" stroke-linecap="round" stroke-linejoin="round" class="wfIyBxLk_15"></path>
    <path d="M10 83L19 97.5M83.5 36L92.5 49.5" stroke="#90A6BA" stroke-width="2" class="wfIyBxLk_16"></path>
    <path d="M83.6087 35.9801L75 43C80.451 48.4903 82.9651 56.4161 83.0409 60L92.4665 49.477L95.0784 51.3071C96.5547 50.2777 99.5982 48.0815 99.9616 47.5325C100.757 43.8723 88.9461 29.1173 88.6054 29.0029C88.3328 28.9114 84.7821 31.0236 83.0409 32.0912L83.6087 35.9801Z"
          stroke="#90A6BA" stroke-width="2" stroke-linecap="round" stroke-linejoin="round" class="wfIyBxLk_17"></path>
    <path d="M82.1992 71.5534C84.6561 71.4306 80.147 76.4977 87.113 89.8571C96.0805 107.055 103.083 89.8571 103.943 79.0469M99.1516 73.7646C99.2499 74.1577 99.1926 75.6482 99.1516 76.3443L100.38 77.3271H105.171L107.996 76.3443V73.7646L104.925 74.8702L100.38 74.6245L99.1516 73.7646Z"
          stroke="#90A6BA" stroke-width="2" stroke-linecap="round" stroke-linejoin="round" class="wfIyBxLk_18"></path>
    <path d="M99.8884 77.0812C100.585 77.8592 102.37 79.3661 103.942 79.1695C105.515 78.973 107.136 77.3678 107.75 76.5898M98.9056 73.5187L99.8884 72.6588V71.6761L107.505 70.939L107.75 73.8873M93.3777 51V67.9908L99.397 71.6761C109.88 70.7343 130.845 68.6787 130.845 67.9908C130.845 67.3029 130.845 60.3335 130.845 56.9349H128.388L128.879 54.478L130.845 53.7409V48.5815H128.879V43.2992H131.582V32.489H128.879V23.3986H131.582V1.40957C120.895 0.631562 98.144 0.426823 92.6406 5.83194C93.0041 8.31589 93.1996 23.5558 93.296 34.5"
          stroke="#90A6BA" stroke-width="2" stroke-linecap="round" stroke-linejoin="round" class="wfIyBxLk_19"></path>
    <path width="3.93099" height="3.68531" stroke="#90A6BA" stroke-width="2" stroke-linecap="round"
          stroke-linejoin="round"
          d="M126.424 10.7456 L130.35499000000002 10.7456 L130.35499000000002 14.430909999999999 L126.424 14.430909999999999 Z"
          class="wfIyBxLk_20"></path>
    <path width="3.93099" height="3.68531" stroke="#90A6BA" stroke-width="2" stroke-linecap="round"
          stroke-linejoin="round"
          d="M126.424 36.7888 L130.35499000000002 36.7888 L130.35499000000002 40.47411 L126.424 40.47411 Z"
          class="wfIyBxLk_21"></path>
    <path d="M114.138 24.0129L105.293 29.7866V39.9826L114.138 44.405L122.491 39.2455V29.1724L114.138 24.0129Z"
          stroke="#90A6BA" stroke-width="2" stroke-linecap="round" stroke-linejoin="round" class="wfIyBxLk_22"></path>
    <path stroke="#90A6BA" stroke-width="2" stroke-linecap="round" stroke-linejoin="round"
          d="M103.57435,29.2953A1.84265,1.84265 0,1,1 107.25965000000001,29.2953A1.84265,1.84265 0,1,1 103.57435,29.2953"
          class="wfIyBxLk_23"></path>
    <path stroke="#90A6BA" stroke-width="2" stroke-linecap="round" stroke-linejoin="round"
          d="M111.92734999999999,23.8898A1.84265,1.84265 0,1,1 115.61265,23.8898A1.84265,1.84265 0,1,1 111.92734999999999,23.8898"
          class="wfIyBxLk_24"></path>
    <path stroke="#90A6BA" stroke-width="2" stroke-linecap="round" stroke-linejoin="round"
          d="M120.52735,29.2953A1.84265,1.84265 0,1,1 124.21265000000001,29.2953A1.84265,1.84265 0,1,1 120.52735,29.2953"
          class="wfIyBxLk_25"></path>
    <path stroke="#90A6BA" stroke-width="2" stroke-linecap="round" stroke-linejoin="round"
          d="M120.52735,38.6315A1.84265,1.84265 0,1,1 124.21265000000001,38.6315A1.84265,1.84265 0,1,1 120.52735,38.6315"
          class="wfIyBxLk_26"></path>
    <path stroke="#90A6BA" stroke-width="2" stroke-linecap="round" stroke-linejoin="round"
          d="M112.17335,43.7906A1.84265,1.84265 0,1,1 115.85865000000001,43.7906A1.84265,1.84265 0,1,1 112.17335,43.7906"
          class="wfIyBxLk_27"></path>
    <path stroke="#90A6BA" stroke-width="2" stroke-linecap="round" stroke-linejoin="round"
          d="M103.57435,40.1053A1.84265,1.84265 0,1,1 107.25965000000001,40.1053A1.84265,1.84265 0,1,1 103.57435,40.1053"
          class="wfIyBxLk_28"></path>
    <path d="M105.293 29.6637L114.138 34.5774M114.138 34.5774C114.138 34.3809 114.138 27.5344 114.138 24.1357M114.138 34.5774L122.614 29.0495M114.138 34.5774L122.368 39.2455"
          stroke="#90A6BA" stroke-width="2" stroke-linecap="round" stroke-linejoin="round" class="wfIyBxLk_29"></path>
    <path d="M114.017 44.282V34.7002L105.172 40.1053" stroke="#90A6BA" stroke-width="2" stroke-linecap="round"
          stroke-linejoin="round" class="wfIyBxLk_30"></path>
    <path d="M99.6445 71.0617V10.1313C105.828 7.83824 129.373 9.27141 131.092 1.40942" stroke="#90A6BA" stroke-width="2"
          stroke-linecap="round" stroke-linejoin="round" class="wfIyBxLk_31"></path>
    <path d="M92.5 6L99.5 10" stroke="#90A6BA" stroke-width="2" class="wfIyBxLk_32"></path>
    <style data-made-with="vivus-instant">.wfIyBxLk_0{stroke-dasharray:204
        206;stroke-dashoffset:205;animation:wfIyBxLk_draw 2000ms linear 0ms forwards;}.wfIyBxLk_1{stroke-dasharray:86
        88;stroke-dashoffset:87;animation:wfIyBxLk_draw 2000ms linear 31ms forwards;}.wfIyBxLk_2{stroke-dasharray:10
        12;stroke-dashoffset:11;animation:wfIyBxLk_draw 2000ms linear 62ms forwards;}.wfIyBxLk_3{stroke-dasharray:10
        12;stroke-dashoffset:11;animation:wfIyBxLk_draw 2000ms linear 93ms forwards;}.wfIyBxLk_4{stroke-dasharray:10
        12;stroke-dashoffset:11;animation:wfIyBxLk_draw 2000ms linear 125ms forwards;}.wfIyBxLk_5{stroke-dasharray:10
        12;stroke-dashoffset:11;animation:wfIyBxLk_draw 2000ms linear 156ms forwards;}.wfIyBxLk_6{stroke-dasharray:10
        12;stroke-dashoffset:11;animation:wfIyBxLk_draw 2000ms linear 187ms forwards;}.wfIyBxLk_7{stroke-dasharray:10
        12;stroke-dashoffset:11;animation:wfIyBxLk_draw 2000ms linear 218ms forwards;}.wfIyBxLk_8{stroke-dasharray:10
        12;stroke-dashoffset:11;animation:wfIyBxLk_draw 2000ms linear 250ms forwards;}.wfIyBxLk_9{stroke-dasharray:69
        71;stroke-dashoffset:70;animation:wfIyBxLk_draw 2000ms linear 281ms forwards;}.wfIyBxLk_10{stroke-dasharray:17
        19;stroke-dashoffset:18;animation:wfIyBxLk_draw 2000ms linear 312ms forwards;}.wfIyBxLk_11{stroke-dasharray:19
        21;stroke-dashoffset:20;animation:wfIyBxLk_draw 2000ms linear 343ms forwards;}.wfIyBxLk_12{stroke-dasharray:30
        32;stroke-dashoffset:31;animation:wfIyBxLk_draw 2000ms linear 375ms forwards;}.wfIyBxLk_13{stroke-dasharray:28
        30;stroke-dashoffset:29;animation:wfIyBxLk_draw 2000ms linear 406ms forwards;}.wfIyBxLk_14{stroke-dasharray:177
        179;stroke-dashoffset:178;animation:wfIyBxLk_draw 2000ms linear 437ms forwards;}.wfIyBxLk_15{stroke-dasharray:92
        94;stroke-dashoffset:93;animation:wfIyBxLk_draw 2000ms linear 468ms forwards;}.wfIyBxLk_16{stroke-dasharray:34
        36;stroke-dashoffset:35;animation:wfIyBxLk_draw 2000ms linear 500ms forwards;}.wfIyBxLk_17{stroke-dasharray:87
        89;stroke-dashoffset:88;animation:wfIyBxLk_draw 2000ms linear 531ms forwards;}.wfIyBxLk_18{stroke-dasharray:76
        78;stroke-dashoffset:77;animation:wfIyBxLk_draw 2000ms linear 562ms forwards;}.wfIyBxLk_19{stroke-dasharray:228
        230;stroke-dashoffset:229;animation:wfIyBxLk_draw 2000ms linear 593ms forwards;}.wfIyBxLk_20{stroke-dasharray:16
        18;stroke-dashoffset:17;animation:wfIyBxLk_draw 2000ms linear 625ms forwards;}.wfIyBxLk_21{stroke-dasharray:16
        18;stroke-dashoffset:17;animation:wfIyBxLk_draw 2000ms linear 656ms forwards;}.wfIyBxLk_22{stroke-dasharray:61
        63;stroke-dashoffset:62;animation:wfIyBxLk_draw 2000ms linear 687ms forwards;}.wfIyBxLk_23{stroke-dasharray:12
        14;stroke-dashoffset:13;animation:wfIyBxLk_draw 2000ms linear 718ms forwards;}.wfIyBxLk_24{stroke-dasharray:12
        14;stroke-dashoffset:13;animation:wfIyBxLk_draw 2000ms linear 750ms forwards;}.wfIyBxLk_25{stroke-dasharray:12
        14;stroke-dashoffset:13;animation:wfIyBxLk_draw 2000ms linear 781ms forwards;}.wfIyBxLk_26{stroke-dasharray:12
        14;stroke-dashoffset:13;animation:wfIyBxLk_draw 2000ms linear 812ms forwards;}.wfIyBxLk_27{stroke-dasharray:12
        14;stroke-dashoffset:13;animation:wfIyBxLk_draw 2000ms linear 843ms forwards;}.wfIyBxLk_28{stroke-dasharray:12
        14;stroke-dashoffset:13;animation:wfIyBxLk_draw 2000ms linear 875ms forwards;}.wfIyBxLk_29{stroke-dasharray:41
        43;stroke-dashoffset:42;animation:wfIyBxLk_draw 2000ms linear 906ms forwards;}.wfIyBxLk_30{stroke-dasharray:20
        22;stroke-dashoffset:21;animation:wfIyBxLk_draw 2000ms linear 937ms forwards;}.wfIyBxLk_31{stroke-dasharray:95
        97;stroke-dashoffset:96;animation:wfIyBxLk_draw 2000ms linear 968ms forwards;}.wfIyBxLk_32{stroke-dasharray:9
        11;stroke-dashoffset:10;animation:wfIyBxLk_draw 2000ms linear 1000ms forwards;}@keyframes
        wfIyBxLk_draw{100%{stroke-dashoffset:0;}}@keyframes
        wfIyBxLk_fade{0%{stroke-opacity:1;}94.44444444444444%{stroke-opacity:1;}100%{stroke-opacity:0;}}
    </style>
</svg>