<svg id="_002-viber" data-name="002-viber" xmlns="http://www.w3.org/2000/svg" width="20" height="20" viewBox="0 0 20 20">
  <circle id="Ellipse_11" data-name="Ellipse 11" cx="10" cy="10" r="10" fill="#6f3faa"/>
  <path id="Path_26" data-name="Path 26" d="M139.743,120.341c-2.412-.583-4.828-1.264-7.3-.4-1.6.6-1.6,2.336-1.535,3.8,0,.4-.467.934-.267,1.4.4,1.335.734,2.669,2.135,3.336.2.133,0,.4.133.6-.067,0-.2.067-.2.133a4.46,4.46,0,0,1,.048,1.124l4.258,4.256a9.914,9.914,0,0,0,8.28-8.706Z" transform="translate(-125.354 -114.723)" fill="#512d84"/>
  <g id="Group_13" data-name="Group 13" transform="translate(4.512 4.328)">
    <path id="Path_27" data-name="Path 27" d="M124.964,112.2l0-.013a3.784,3.784,0,0,0-2.555-2.458l-.012,0a14.2,14.2,0,0,0-5.344,0l-.013,0a3.785,3.785,0,0,0-2.555,2.458l0,.013a10.459,10.459,0,0,0,0,4.506l0,.013a3.816,3.816,0,0,0,2.414,2.422v1.195a.48.48,0,0,0,.827.333l1.211-1.258c.263.015.525.023.788.023a14.246,14.246,0,0,0,2.672-.253l.012,0a3.784,3.784,0,0,0,2.555-2.458l0-.013A10.46,10.46,0,0,0,124.964,112.2Zm-.958,4.289a2.862,2.862,0,0,1-1.8,1.727,13.233,13.233,0,0,1-2.842.23.067.067,0,0,0-.05.02l-.884.907-.94.965a.11.11,0,0,1-.19-.076v-1.979a.068.068,0,0,0-.055-.067h0a2.863,2.863,0,0,1-1.8-1.727,9.491,9.491,0,0,1,0-4.072,2.863,2.863,0,0,1,1.8-1.727,13.222,13.222,0,0,1,4.962,0,2.861,2.861,0,0,1,1.8,1.727A9.481,9.481,0,0,1,124.006,116.485Z" transform="translate(-114.234 -109.469)" fill="#fff"/>
    <path id="Path_28" data-name="Path 28" d="M186.614,178.919c-.111-.034-.216-.056-.314-.1a7.138,7.138,0,0,1-2.69-1.8,6.98,6.98,0,0,1-1.029-1.575c-.132-.268-.243-.547-.357-.824a.715.715,0,0,1,.209-.7,1.654,1.654,0,0,1,.554-.416.356.356,0,0,1,.445.105,5.734,5.734,0,0,1,.688.963.459.459,0,0,1-.129.621c-.052.035-.1.077-.148.117a.485.485,0,0,0-.112.118.323.323,0,0,0-.022.283,2.565,2.565,0,0,0,1.441,1.6.734.734,0,0,0,.369.09c.226-.026.3-.274.457-.4a.431.431,0,0,1,.519-.023c.167.105.328.219.488.333a5.572,5.572,0,0,1,.46.35.365.365,0,0,1,.109.451,1.526,1.526,0,0,1-.656.723,1.586,1.586,0,0,1-.284.09C186.5,178.885,186.71,178.889,186.614,178.919Z" transform="translate(-179.56 -170.989)" fill="#fff"/>
    <path id="Path_29" data-name="Path 29" d="M250.127,165.413a2.7,2.7,0,0,1,2.653,2.232c.04.224.054.452.072.68a.159.159,0,0,1-.15.188c-.106,0-.154-.088-.161-.183-.014-.189-.023-.379-.049-.566a2.373,2.373,0,0,0-1.911-1.983c-.148-.026-.3-.033-.45-.049-.095-.01-.219-.016-.24-.134a.162.162,0,0,1,.16-.183c.026,0,.051,0,.077,0C251.455,165.45,250.1,165.413,250.127,165.413Z" transform="translate(-244.637 -163.247)" fill="#fff"/>
    <path id="Path_30" data-name="Path 30" d="M258.2,185.66a.61.61,0,0,1-.013.092.151.151,0,0,1-.284.015.4.4,0,0,1-.016-.128,1.608,1.608,0,0,0-.2-.807,1.5,1.5,0,0,0-.63-.591,1.81,1.81,0,0,0-.5-.154c-.076-.013-.152-.02-.228-.031a.144.144,0,0,1-.137-.162.143.143,0,0,1,.159-.141,2.088,2.088,0,0,1,.87.227,1.76,1.76,0,0,1,.958,1.367c0,.028.011.055.013.083.005.069.008.138.014.229C258.2,185.676,258.2,185.569,258.2,185.66Z" transform="translate(-250.693 -180.877)" fill="#fff"/>
    <path id="Path_31" data-name="Path 31" d="M262.386,203.694a.164.164,0,0,1-.182-.161,1.677,1.677,0,0,0-.031-.212.6.6,0,0,0-.22-.346.577.577,0,0,0-.179-.087c-.081-.024-.166-.017-.247-.037a.152.152,0,0,1-.123-.176.159.159,0,0,1,.168-.128.913.913,0,0,1,.935.91.42.42,0,0,1,0,.129.132.132,0,0,1-.119.108C262.275,203.7,262.437,203.691,262.386,203.694Z" transform="translate(-255.704 -198.944)" fill="#fff"/>
  </g>
  <path id="Path_32" data-name="Path 32" d="M150.545,137.388l0-.013a3.524,3.524,0,0,0-1.14-1.7l-.745.661a2.68,2.68,0,0,1,.931,1.269,9.48,9.48,0,0,1,0,4.072,2.862,2.862,0,0,1-1.8,1.727,13.232,13.232,0,0,1-2.842.23.067.067,0,0,0-.05.02l-.884.907-.94.965a.11.11,0,0,1-.19-.076V143.47a.068.068,0,0,0-.055-.067h0a2.679,2.679,0,0,1-1.24-.8l-.737.653a3.738,3.738,0,0,0,1.632,1.07v1.195a.48.48,0,0,0,.827.333l1.211-1.258c.263.015.525.023.788.023a14.246,14.246,0,0,0,2.672-.254l.012,0a3.784,3.784,0,0,0,2.555-2.458l0-.013A10.461,10.461,0,0,0,150.545,137.388Z" transform="translate(-135.293 -130.323)" fill="#d1d1d1"/>
  <path id="Path_33" data-name="Path 33" d="M295.637,313.737c.1-.03-.111-.034,0,0Z" transform="translate(-284.056 -301.459)" fill="#fff"/>
  <path id="Path_34" data-name="Path 34" d="M221.32,252.332a5.609,5.609,0,0,0-.46-.35c-.16-.114-.322-.227-.488-.333a.431.431,0,0,0-.519.023c-.158.129-.231.377-.457.4a.734.734,0,0,1-.369-.09,2.389,2.389,0,0,1-1.049-.835l-.548.486.055.065a7.139,7.139,0,0,0,2.69,1.8c.1.041.2.063.314.1-.111-.034.1-.03,0,0a1.586,1.586,0,0,0,.284-.09,1.526,1.526,0,0,0,.656-.723A.365.365,0,0,0,221.32,252.332Z" transform="translate(-208.917 -241.328)" fill="#d1d1d1"/>
  <g id="Group_14" data-name="Group 14" transform="translate(10.005 6.462)">
    <path id="Path_35" data-name="Path 35" d="M256.067,165.427h0Z" transform="translate(-256.064 -165.427)" fill="#fff"/>
    <path id="Path_36" data-name="Path 36" d="M256.072,165.426h0C256.149,165.429,257.348,165.462,256.072,165.426Z" transform="translate(-256.072 -165.426)" fill="#fff"/>
  </g>
  <g id="Group_15" data-name="Group 15" transform="translate(11.219 7.268)">
    <path id="Path_37" data-name="Path 37" d="M299.482,185.837l-.234.207a2.345,2.345,0,0,1,.693,1.352c.026.187.036.377.049.566.007.1.055.185.161.183a.159.159,0,0,0,.15-.188c-.018-.227-.032-.456-.072-.68A2.666,2.666,0,0,0,299.482,185.837Z" transform="translate(-298.774 -185.837)" fill="#d1d1d1"/>
    <path id="Path_38" data-name="Path 38" d="M287.786,197.807a1.773,1.773,0,0,0-.562-1.092l-.233.207a1.514,1.514,0,0,1,.305.371,1.608,1.608,0,0,1,.2.807.4.4,0,0,0,.016.128.151.151,0,0,0,.284-.015.61.61,0,0,0,.013-.092c0,.017-.005-.091,0,0-.005-.091-.009-.16-.014-.229C287.8,197.863,287.79,197.835,287.786,197.807Z" transform="translate(-286.991 -196.294)" fill="#d1d1d1"/>
  </g>
  <g id="Group_16" data-name="Group 16" transform="translate(11.17 9.065)">
    <path id="Path_39" data-name="Path 39" d="M308.14,232.1c-.005-.091,0,.017,0,0Z" transform="translate(-307.274 -232.061)" fill="#fff"/>
    <path id="Path_40" data-name="Path 40" d="M286.519,232.158h0Z" transform="translate(-286.479 -232.153)" fill="#fff"/>
    <path id="Path_41" data-name="Path 41" d="M285.882,232.168h-.014C285.843,232.168,285.819,232.169,285.882,232.168Z" transform="translate(-285.842 -232.163)" fill="#fff"/>
    <path id="Path_42" data-name="Path 42" d="M286.877,232.157h-.005C286.885,232.157,286.884,232.157,286.877,232.157Z" transform="translate(-286.832 -232.153)" fill="#fff"/>
  </g>
  <path id="Path_43" data-name="Path 43" d="M274.923,207.525l-.237.21.038.025a.6.6,0,0,1,.22.346,1.674,1.674,0,0,1,.031.212.162.162,0,0,0,.168.161h.019a.132.132,0,0,0,.114-.107.42.42,0,0,0,0-.129A.942.942,0,0,0,274.923,207.525Z" transform="translate(-263.953 -199.415)" fill="#d1d1d1"/>
</svg>
