<svg xmlns="http://www.w3.org/2000/svg" width="17.254" height="17.215" viewBox="0 0 17.254 17.215">
  <g id="call-answer" transform="translate(0 -0.394)" opacity="0.7">
    <g id="Group_14" data-name="Group 14" transform="translate(0 0.394)">
      <g id="Group_13" data-name="Group 13" transform="translate(0)">
        <path id="Path_50" data-name="Path 50" d="M16.867,14.01,14.2,11.345a1.389,1.389,0,0,0-1.959.037L10.9,12.724l-.265-.147a13.359,13.359,0,0,1-3.229-2.335,13.433,13.433,0,0,1-2.34-3.235c-.05-.09-.1-.177-.144-.259l.9-.9L6.266,5.4A1.388,1.388,0,0,0,6.3,3.445L3.638.78A1.388,1.388,0,0,0,1.679.817l-.751.755.021.02A4.343,4.343,0,0,0,.329,2.684,4.525,4.525,0,0,0,.054,3.791c-.352,2.917.981,5.583,4.6,9.2,5,5,9.03,4.622,9.2,4.6a4.5,4.5,0,0,0,1.11-.279,4.328,4.328,0,0,0,1.088-.616l.016.015.761-.745A1.391,1.391,0,0,0,16.867,14.01Z" transform="translate(0 -0.394)" fill="#e78319"/>
      </g>
    </g>
  </g>
</svg>
