<svg xmlns="http://www.w3.org/2000/svg" width="134.012" height="119.901" viewBox="0 0 134.012 119.901">
    <g id="logo_w2" transform="translate(1.5 1.5)">
        <path id="Union_1" data-name="Union 1"
              d="M23.784,82.642h-.079l-.262,0c-3.707-.066-3.988-1.221-5.708-2.958-1.308-1.317-5.2-5.077-8.619-8.537A12.36,12.36,0,0,1,8,69.878L2.171,64.059C1.244,63.142,0,62.133,0,60.389V22.252c0-1.744,1.244-2.752,2.171-3.669l3.415-3.411a12.655,12.655,0,0,1,1.105-1.239c3.415-3.46,9.736-9.655,11.044-10.972,1.72-1.737,2-2.892,5.708-2.958l.262,0H57.571l.262,0c3.708.065,3.988,1.221,5.708,2.958,1.308,1.317,7.629,7.511,11.044,10.972a12.655,12.655,0,0,1,1.105,1.239l3.415,3.411c.926.917,2.171,1.925,2.171,3.669V60.389c0,1.744-1.244,2.752-2.171,3.669l-5.825,5.819a12.359,12.359,0,0,1-1.12,1.265c-3.424,3.46-7.311,7.22-8.619,8.537-1.72,1.737-2,2.893-5.708,2.958l-.262,0ZM23.751,11.7c-.718.709-1.39,1.471-2.125,2.116a16.1,16.1,0,0,0-1.244,1.062l-7.511,7.5c-1.835,1.826-3.5,2.907-3.5,5.168V55.095c0,2.262,1.662,3.342,3.5,5.168l7.511,7.5a16.165,16.165,0,0,0,1.244,1.063c.736.645,1.408,1.408,2.125,2.117.781.781,1.3,1.635,2.779,1.635H54.746c1.48,0,2-.854,2.779-1.635.717-.709,1.39-1.471,2.125-2.117A16.223,16.223,0,0,0,60.9,67.765l7.511-7.5c1.835-1.826,3.5-2.906,3.5-5.168V27.547c0-2.262-1.662-3.343-3.5-5.168l-7.511-7.5a16.154,16.154,0,0,0-1.244-1.062c-.736-.645-1.408-1.408-2.125-2.116-.781-.781-1.3-1.635-2.779-1.635H26.53C25.05,10.063,24.532,10.917,23.751,11.7Z"
              transform="translate(0.001 34.26)" fill="none" stroke="#ba7122" stroke-width="3"/>
        <path id="Path_22" data-name="Path 22"
              d="M2875.149,6212.664h-11.317v-6.712h10.79c2.053,0,3.887,1.344,3.887,3.36A3.423,3.423,0,0,1,2875.149,6212.664Zm.354-13.415h-11.671v-6.712h10.963c3.387,0,4.8,3.479,2.8,5.613A3.548,3.548,0,0,1,2875.5,6199.249Zm-15.921-13.778c0,.409-.118.527-.527.527h-4.423v6.539h2.125v20.127c-2.825,0-2.125-1.071-2.125,6.712h4.95v2.825h6.548c.8,0,.527-.908.527-2.825h1.944v2.825h6.9v-2.825a11.747,11.747,0,0,0,6.857-2.869,9.24,9.24,0,0,0,3.224-7.548c0-2.933-1.48-4.614-2.652-6.357a19.418,19.418,0,0,0,1.771-2.643,9.744,9.744,0,0,0-2.162-11.09,11.062,11.062,0,0,0-7.039-2.87v-3h-6.9c0,3.506.445,3-1.944,3,0-2.007.291-3-.527-3h-6.548Z"
              transform="translate(-2828.627 -6126.844)" fill="none" stroke="#ba7122" stroke-width="3"
              fill-rule="evenodd"/>
        <path id="Path_29" data-name="Path 29"
              d="M7344.182,1817.914c0,1.58.354,1.444.354,4.06,0,2.034-3.8,12.543-7.783,12.543-2.5,0-6.041-4.06-9.8-6.285a10.535,10.535,0,0,0-10.536-.245,24.58,24.58,0,0,0-3.187,2.461c-.636-.953-3.788-4.232-4.95-4.232-1.235,0-2.461,1.58-3.769,2.861-1.354,1.262-2.943,2.316-2.779,4.2.127.854,11.008,11.826,13.269,13.07.972.472,2.662-1.408,3.715-2.661.654-.781,3.007-2.8,3.007-4.051,0-1.19-1.554-2.343-2.253-3.043a26.741,26.741,0,0,0-2.7-2.607,11.1,11.1,0,0,1,1.208-1.617,5.373,5.373,0,0,1,6.458-.563,36.261,36.261,0,0,1,5.376,4.169c3.134,2.571,6.7,4.1,10.6,2.016l2.307-1.762a4.351,4.351,0,0,0,.382-.5,17.61,17.61,0,0,0,2.915-4.505,30.314,30.314,0,0,0,2.952-9.418c.236-1.8,1.7-3.469.128-5.259a2.828,2.828,0,0,0-1.826-.836C7345.9,1815.525,7344.182,1816.542,7344.182,1817.914Z"
              transform="translate(-7235.4 -1799.194)" fill="none" stroke="#ba7122" stroke-width="3"
              fill-rule="evenodd"/>
        <path id="Path_30" data-name="Path 30"
              d="M12873,2119.881c0,1.5.5,1.717,2.227,2.026,3.1.554,7.973,1.508,10.861,1.508,1.01,0,1.6-1.8.02-2.479a24.5,24.5,0,0,0-3.8-.8,69.873,69.873,0,0,0-8.057-1.135C12873.646,2119,12873,2119.318,12873,2119.881Z"
              transform="translate(-12756.08 -2099.755)" fill="none" stroke="#ba7122" stroke-width="3"
              fill-rule="evenodd"/>
        <path id="Path_31" data-name="Path 31"
              d="M12270,12.189c0,1.09.471,1.589,1.406,1.589,1.745,0,2.054-6.5,2.616-8.874.663-2.725,1.39-4.9-1.372-4.9-.763,0-.953,1.807-1.107,2.607C12271.037,5.168,12270,9.9,12270,12.189Z"
              transform="translate(-12158.56)" fill="none" stroke="#ba7122" stroke-width="3" fill-rule="evenodd"/>
        <path id="Path_32" data-name="Path 32"
              d="M10244,1654.054c0,1.744,2.906,1.835,5.141,2.289,1.253.245,7.773,1.962,7.773.009,0-1.1-.162-1.417-2.053-1.835a45.4,45.4,0,0,0-9.8-1.517A1.348,1.348,0,0,0,10244,1654.054Z"
              transform="translate(-10150.959 -1637.987)" fill="none" stroke="#ba7122" stroke-width="3"
              fill-rule="evenodd"/>
        <path id="Path_33" data-name="Path 33"
              d="M12737,942.6c0,.963.906,1.235,1.771,1.235a51.126,51.126,0,0,0,4.8-3.143c1.226-.817,4.215-2.57,4.215-3.751,0-.935-.918-1.807-2.626-.672-.473.318-.809.509-1.3.817C12742.371,938.022,12737,941.228,12737,942.6Z"
              transform="translate(-12621.319 -927.232)" fill="none" stroke="#ba7122" stroke-width="3"
              fill-rule="evenodd"/>
        <path id="Path_34" data-name="Path 34"
              d="M12640,2728.652c0,.927,3.732,5.668,4.487,6.812.3.454.527.772.809,1.145.907,1.2,5,1.581.263-4.677-1.879-2.48-3.506-5.759-5.148-4.278A1.111,1.111,0,0,0,12640,2728.652Z"
              transform="translate(-12525.196 -2702.513)" fill="none" stroke="#ba7122" stroke-width="3"
              fill-rule="evenodd"/>
        <path id="Path_35" data-name="Path 35"
              d="M11120,507.054c0,1.426,3.615,5.84,4.6,7.239.6.854,1.663,2.652,2.942,1.7,1.309-.972-1.289-3.987-2.378-5.613-.491-.736-2.634-4.378-3.4-4.378C11120.762,506,11120,506.445,11120,507.054Z"
              transform="translate(-11019.003 -501.404)" fill="none" stroke="#ba7122" stroke-width="3"
              fill-rule="evenodd"/>
        <path id="Path_36" data-name="Path 36"
              d="M10731,2455.65c0,1.644.173,1.589,1.416,1.589,1.1,0,3.08-1.817,4.388-2.688,1.235-.818,3.388-1.971,3.751-3.5-.107-.808-.908-1.053-1.6-1.053-1.108,0-3.278,1.925-4.169,2.543C10734.017,2453.079,10731,2454.805,10731,2455.65Z"
              transform="translate(-10633.534 -2427.748)" fill="none" stroke="#ba7122" stroke-width="3"
              fill-rule="evenodd"/>
    </g>
</svg>
