<?xml version="1.0" encoding="UTF-8"?>
<!DOCTYPE svg PUBLIC "-//W3C//DTD SVG 1.1//EN" "http://www.w3.org/Graphics/SVG/1.1/DTD/svg11.dtd">
<!-- Creator: CorelDRAW 2018 (64-Bit) -->
<svg xmlns="http://www.w3.org/2000/svg" xml:space="preserve" width="149.074mm" height="33.78mm" version="1.1" style="shape-rendering:geometricPrecision; text-rendering:geometricPrecision; image-rendering:optimizeQuality; fill-rule:evenodd; clip-rule:evenodd"
viewBox="0 0 14907.4 3378"
 xmlns:xlink="http://www.w3.org/1999/xlink">
 <defs>
  <style type="text/css">
   <![CDATA[
    .fil1 {fill:white;fill-rule:nonzero}
    .fil0 {fill:url(#id0)}
   ]]>
  </style>
  <linearGradient id="id0" gradientUnits="userSpaceOnUse" x1="-0.03" y1="1687.95" x2="3773.07" y2="1687.95">
   <stop offset="0" style="stop-opacity:1; stop-color:#EF5A27"/>
   <stop offset="1" style="stop-opacity:1; stop-color:#F0920B"/>
  </linearGradient>
 </defs>
 <g id="Слой_x0020_1">
  <metadata id="CorelCorpID_0Corel-Layer"/>
  <path class="fil0" d="M1334.93 2830.55c141.46,0.5 292.32,-10.9 434.96,-15.7 144.81,-4.87 288.85,-6.72 433.86,-16.04 138.26,-8.88 294.76,-9.66 431.61,-15.91 71.07,-3.24 607.05,-8.86 647.49,-29.59 52.47,-26.9 77.32,-101.13 25.68,-149.29 -38.4,-35.82 -122.65,-27.42 -188.27,-30.57l-1083.06 -42.72c-26.74,-0.82 -289.27,1.78 -311.84,-13.28 -47.93,10.27 -103.36,-0.83 -153.24,0.59 -191.22,4.45 -398.26,-14.53 -594.31,-20.26 -97.25,-2.84 -194.3,-6.49 -292.36,-11.16 -99.6,-4.74 -167.92,2.3 -219.32,79.97 -53.78,81.25 -32.24,176.16 19.93,230.58 72.64,75.76 151.04,56.41 258.01,53.58 187.16,-4.96 408.22,-27.01 590.86,-20.2zm387.17 -2831.57c-77.52,-0.05 -124.07,59.3 -124.26,148.33 -0.05,23.15 5.26,46.72 14.03,69.05 15.06,38.35 45.97,70.52 91.35,84.96 90.52,28.8 284.41,-36.53 381.25,-56.2 106.78,-21.69 101.69,-112.41 70.4,-148.93 -52.49,-61.23 -332.83,-96.27 -432.77,-97.21zm335.47 750.28c113.26,3.01 247.65,-13.42 361.4,-18.88 100.7,-4.84 294.42,20.29 272.07,-117.74 -8.83,-54.57 -53.01,-76.01 -109.22,-77.77 -429.97,-21.75 -815.96,-42.75 -1233.94,-62.47 -82.73,-3.91 -151.93,5.64 -192.82,56.24 -41.37,51.2 -44.75,141.89 -2.38,199.17 72.2,97.62 298.88,53.18 428.95,46.25 107.36,-5.71 394.46,-26.63 475.94,-24.8zm-995.33 213.79c-194.95,0.27 -480.53,-63.16 -536.24,85.6 -22.61,60.35 -8.2,130.88 25.01,170.64 67.72,81.08 249.37,50.29 368.36,46.86 140,-4.04 287.72,-12.71 426.13,-11.28l966.03 -24.97 769.79 -21.49c79.72,-2.12 173.09,8.2 199.2,-66.34 11.35,-32.42 -0.27,-69.85 -21.36,-92.13 -27.35,-28.92 -49.91,-28.91 -99.76,-29.64 -243.35,-3.55 -547.09,-26.12 -773.17,-20.73l-1323.99 -36.52zm2114.63 2322.86c76.51,0.57 152.06,-11.05 159.26,-84.88 11.67,-119.62 -126.44,-99.89 -219.1,-105.56l-588.75 -19.83c0.4,-0.39 0.86,-0.81 1.39,-1.26l-1345.65 -48.41c-146.76,0.88 -300.84,-13.4 -446.26,-16.97 -79.39,-1.94 -147.26,-13.13 -210.34,21.03 -111.8,60.55 -128.14,230.6 -14.77,312.23 61.2,44.08 113.38,34.27 199.2,32.48 145.81,-3.04 301.85,-17.82 453.78,-17.25 608.23,-20.68 1680.71,-74.05 2011.24,-71.58zm-704.83 -1018.35c143.96,1.49 306.83,-8.08 452.45,-15.76 72.66,-3.84 151.12,-3.3 225.22,-7.78 72.39,-4.37 149.24,7.79 178.41,-55.69 32.62,-70.97 -20.42,-129.27 -84.31,-133.8 -75.33,-5.34 -156.84,-2.44 -233.27,-6.14 -143.51,-6.96 -304.07,-18.38 -449.34,-16.6l-1090.94 -38.71c-166.8,1.25 -778.15,-37.15 -869.27,-28.85 -176.86,16.12 -229.92,257.33 -69.39,346.38 65.38,36.26 185.27,18.7 270.91,15.95 190.5,-6.14 388.54,-20.41 578.23,-20.33l1091.3 -38.67zm347.38 -526.42c187.48,3.23 382.18,-12.72 566.93,-16.13 94.21,-1.73 199.81,0.31 292.56,-5.62 84.7,-5.41 126.75,-99.82 64.15,-159.97 -42.54,-40.87 -189.97,-29.57 -258.89,-31.42 -97.44,-2.62 -195.17,-3.3 -292.64,-5.83 -184.69,-4.8 -379.06,-18.66 -565.12,-16.11l-1488.22 -39.52c-195.68,1.71 -491.31,-14.09 -705.76,-18.81 -86.24,-1.9 -267.87,-22.84 -334.93,15.45 -81.91,46.77 -124.39,146.39 -79.03,242.94 50.1,106.64 132.35,105.53 264.63,102.81 337.92,-6.96 747.62,-31.6 1065.5,-28.58l1470.82 -39.21z"/>
  <path class="fil1" d="M4746.1 1275.94c-7.2,0 -13.5,-2.7 -18.9,-8.1 -5.4,-5.4 -8.1,-11.7 -8.1,-18.9l0 -701c0,-7.92 2.52,-14.58 7.56,-19.98 5.04,-5.4 11.52,-8.1 19.44,-8.1l502.26 0c7.92,0 14.58,2.7 19.98,8.1 5.4,5.4 8.1,12.06 8.1,19.98l0 114.49c0,7.92 -2.7,14.4 -8.1,19.44 -5.4,5.04 -12.06,7.56 -19.98,7.56l-330.52 0 0 150.14 308.91 0c7.93,0 14.59,2.7 19.99,8.1 5.4,5.4 8.1,12.06 8.1,19.98l0 114.5c0,7.92 -2.7,14.4 -8.1,19.44 -5.4,5.04 -12.06,7.56 -19.99,7.56l-308.91 0 0 239.79c0,7.2 -2.52,13.5 -7.56,18.9 -5.04,5.4 -11.52,8.1 -19.44,8.1l-144.74 0z"/>
  <path id="1" class="fil1" d="M5347.72 1275.94c-5.76,0 -10.98,-2.34 -15.66,-7.02 -4.68,-4.68 -7.02,-9.9 -7.02,-15.66 0,-4.32 0.36,-7.56 1.08,-9.72l251.67 -692.36c7.2,-20.88 21.6,-31.32 43.2,-31.32l168.5 0c21.6,0 36.01,10.44 43.21,31.32l251.67 692.36c0.72,2.16 1.08,5.4 1.08,9.72 0,5.76 -2.34,10.98 -7.03,15.66 -4.68,4.68 -9.9,7.02 -15.66,7.02l-140.41 0c-17.28,0 -29.53,-7.92 -36.73,-23.76l-38.88 -104.77 -282.99 0 -38.89 104.77c-7.2,15.84 -19.44,23.76 -36.72,23.76l-140.42 0zm261.39 -290.55l192.26 0 -96.13 -275.43 -96.13 275.43z"/>
  <path id="2" class="fil1" d="M6441.89 1286.74c-69.85,0 -129.25,-10.08 -178.22,-30.24 -48.97,-20.16 -86.05,-46.81 -111.25,-79.93 -25.2,-33.12 -38.53,-69.13 -39.97,-108.01 0,-6.48 2.34,-11.88 7.02,-16.2 4.68,-4.33 10.27,-6.49 16.75,-6.49l143.65 0c8.64,0 15.66,1.44 21.06,4.32 5.4,2.89 11.35,7.93 17.83,15.13 9.36,17.28 23.94,31.5 43.74,42.66 19.8,11.16 46.27,16.74 79.39,16.74 38.88,0 68.77,-5.94 89.65,-17.82 20.88,-11.88 31.32,-28.26 31.32,-49.14 0,-15.13 -5.4,-27.55 -16.2,-37.27 -10.8,-9.72 -28.08,-18.36 -51.84,-25.92 -23.77,-7.56 -57.97,-16.02 -102.62,-25.38 -87.13,-17.29 -152.29,-43.57 -195.5,-78.85 -43.2,-35.29 -64.8,-85.69 -64.8,-151.22 0,-44.64 12.42,-84.43 37.26,-119.35 24.84,-34.93 60.13,-62.11 105.85,-81.55 45.73,-19.44 98.83,-29.17 159.32,-29.17 63.37,0 118.27,10.99 164.72,32.95 46.44,21.96 82.09,49.32 106.93,82.09 24.84,32.76 37.98,64.98 39.42,96.67 0,6.48 -2.16,12.06 -6.48,16.74 -4.32,4.68 -9.72,7.02 -16.2,7.02l-151.22 0c-15.84,0 -28.08,-6.48 -36.72,-19.44 -4.32,-15.12 -15.48,-27.9 -33.48,-38.35 -18.01,-10.44 -40.33,-15.66 -66.97,-15.66 -30.24,0 -53.65,5.4 -70.21,16.2 -16.56,10.81 -24.84,26.65 -24.84,47.53 0,20.88 10.8,37.26 32.4,49.15 21.6,11.88 61.93,23.94 120.98,36.18 67.68,12.24 121.51,27.54 161.47,45.9 39.97,18.37 69.49,42.13 88.57,71.29 19.09,29.17 28.63,66.07 28.63,110.71 0,48.97 -14.04,91.45 -42.13,127.46 -28.08,36 -66.97,63.55 -116.65,82.63 -49.69,19.08 -106.57,28.62 -170.66,28.62z"/>
  <path id="3" class="fil1" d="M7061.88 1275.94c-7.92,0 -14.58,-2.52 -19.98,-7.56 -5.4,-5.04 -8.1,-11.52 -8.1,-19.44l0 -553.02 -190.1 0c-7.93,0 -14.59,-2.52 -19.99,-7.57 -5.4,-5.04 -8.1,-11.52 -8.1,-19.44l0 -120.97c0,-7.92 2.7,-14.58 8.1,-19.98 5.4,-5.4 12.06,-8.1 19.99,-8.1l586.5 0c7.92,0 14.58,2.7 19.98,8.1 5.4,5.4 8.1,12.06 8.1,19.98l0 120.97c0,7.92 -2.7,14.4 -8.1,19.44 -5.4,5.05 -12.06,7.57 -19.98,7.57l-190.1 0 0 553.02c0,7.92 -2.7,14.4 -8.1,19.44 -5.4,5.04 -12.06,7.56 -19.98,7.56l-150.14 0z"/>
  <path id="4" class="fil1" d="M7580.34 1275.94c-7.2,0 -13.5,-2.7 -18.9,-8.1 -5.4,-5.4 -8.1,-11.7 -8.1,-18.9l0 -701c0,-7.92 2.52,-14.58 7.56,-19.98 5.04,-5.4 11.52,-8.1 19.44,-8.1l305.68 0c93.61,0 167.05,21.24 220.34,63.72 53.29,42.49 79.93,104.77 79.93,186.86 0,82.09 -26.64,143.48 -79.93,184.16 -53.29,40.69 -126.73,61.03 -220.34,61.03l-123.14 0 0 233.31c0,7.2 -2.52,13.5 -7.56,18.9 -5.04,5.4 -11.52,8.1 -19.44,8.1l-155.54 0zm300.27 -414.77c29.53,0 52.75,-7.74 69.67,-23.22 16.92,-15.48 25.39,-38.34 25.39,-68.59 0,-28.08 -7.75,-50.76 -23.23,-68.04 -15.48,-17.29 -39.42,-25.93 -71.83,-25.93l-120.97 0 0 185.78 120.97 0z"/>
  <path id="5" class="fil1" d="M8313.74 1275.94c-7.2,0 -13.5,-2.7 -18.9,-8.1 -5.4,-5.4 -8.1,-11.7 -8.1,-18.9l0 -702.08c0,-7.92 2.7,-14.4 8.1,-19.44 5.4,-5.04 11.7,-7.56 18.9,-7.56l151.22 0c7.92,0 14.4,2.52 19.44,7.56 5.04,5.04 7.56,11.52 7.56,19.44l0 559.5 324.04 0c7.92,0 14.58,2.7 19.98,8.1 5.4,5.4 8.1,12.06 8.1,19.98l0 114.5c0,7.92 -2.7,14.4 -8.1,19.44 -5.4,5.04 -12.06,7.56 -19.98,7.56l-502.26 0z"/>
  <path id="6" class="fil1" d="M8892.68 1275.94c-5.76,0 -10.98,-2.34 -15.66,-7.02 -4.68,-4.68 -7.02,-9.9 -7.02,-15.66 0,-4.32 0.36,-7.56 1.08,-9.72l251.67 -692.36c7.2,-20.88 21.6,-31.32 43.2,-31.32l168.5 0c21.6,0 36.01,10.44 43.21,31.32l251.67 692.36c0.72,2.16 1.08,5.4 1.08,9.72 0,5.76 -2.34,10.98 -7.03,15.66 -4.68,4.68 -9.9,7.02 -15.66,7.02l-140.41 0c-17.28,0 -29.53,-7.92 -36.73,-23.76l-38.88 -104.77 -282.99 0 -38.89 104.77c-7.2,15.84 -19.44,23.76 -36.72,23.76l-140.42 0zm261.39 -290.55l192.26 0 -96.13 -275.43 -96.13 275.43z"/>
  <path id="7" class="fil1" d="M9986.85 1286.74c-69.85,0 -129.25,-10.08 -178.22,-30.24 -48.97,-20.16 -86.05,-46.81 -111.25,-79.93 -25.2,-33.12 -38.53,-69.13 -39.97,-108.01 0,-6.48 2.34,-11.88 7.02,-16.2 4.68,-4.33 10.27,-6.49 16.75,-6.49l143.65 0c8.64,0 15.66,1.44 21.06,4.32 5.4,2.89 11.35,7.93 17.83,15.13 9.36,17.28 23.94,31.5 43.74,42.66 19.8,11.16 46.27,16.74 79.39,16.74 38.88,0 68.77,-5.94 89.65,-17.82 20.88,-11.88 31.32,-28.26 31.32,-49.14 0,-15.13 -5.4,-27.55 -16.2,-37.27 -10.8,-9.72 -28.08,-18.36 -51.84,-25.92 -23.77,-7.56 -57.97,-16.02 -102.62,-25.38 -87.13,-17.29 -152.29,-43.57 -195.5,-78.85 -43.2,-35.29 -64.8,-85.69 -64.8,-151.22 0,-44.64 12.42,-84.43 37.26,-119.35 24.84,-34.93 60.13,-62.11 105.85,-81.55 45.73,-19.44 98.83,-29.17 159.32,-29.17 63.37,0 118.27,10.99 164.72,32.95 46.44,21.96 82.09,49.32 106.93,82.09 24.84,32.76 37.98,64.98 39.42,96.67 0,6.48 -2.16,12.06 -6.48,16.74 -4.32,4.68 -9.72,7.02 -16.2,7.02l-151.22 0c-15.84,0 -28.08,-6.48 -36.72,-19.44 -4.32,-15.12 -15.48,-27.9 -33.48,-38.35 -18.01,-10.44 -40.33,-15.66 -66.97,-15.66 -30.24,0 -53.65,5.4 -70.21,16.2 -16.56,10.81 -24.84,26.65 -24.84,47.53 0,20.88 10.8,37.26 32.4,49.15 21.6,11.88 61.93,23.94 120.98,36.18 67.68,12.24 121.51,27.54 161.47,45.9 39.97,18.37 69.49,42.13 88.57,71.29 19.09,29.17 28.63,66.07 28.63,110.71 0,48.97 -14.04,91.45 -42.13,127.46 -28.08,36 -66.97,63.55 -116.65,82.63 -49.69,19.08 -106.57,28.62 -170.66,28.62z"/>
  <path id="8" class="fil1" d="M10606.84 1275.94c-7.92,0 -14.58,-2.52 -19.98,-7.56 -5.4,-5.04 -8.1,-11.52 -8.1,-19.44l0 -553.02 -190.1 0c-7.93,0 -14.59,-2.52 -19.99,-7.57 -5.4,-5.04 -8.1,-11.52 -8.1,-19.44l0 -120.97c0,-7.92 2.7,-14.58 8.1,-19.98 5.4,-5.4 12.06,-8.1 19.99,-8.1l586.5 0c7.92,0 14.58,2.7 19.98,8.1 5.4,5.4 8.1,12.06 8.1,19.98l0 120.97c0,7.92 -2.7,14.4 -8.1,19.44 -5.4,5.05 -12.06,7.57 -19.98,7.57l-190.1 0 0 553.02c0,7.92 -2.7,14.4 -8.1,19.44 -5.4,5.04 -12.06,7.56 -19.98,7.56l-150.14 0z"/>
  <path id="9" class="fil1" d="M11125.3 1275.94c-7.2,0 -13.5,-2.7 -18.9,-8.1 -5.4,-5.4 -8.1,-11.7 -8.1,-18.9l0 -701c0,-7.92 2.52,-14.58 7.56,-19.98 5.04,-5.4 11.52,-8.1 19.44,-8.1l509.82 0c7.92,0 14.58,2.7 19.98,8.1 5.4,5.4 8.1,12.06 8.1,19.98l0 106.93c0,7.92 -2.7,14.4 -8.1,19.44 -5.4,5.04 -12.06,7.56 -19.98,7.56l-341.32 0 0 137.18 317.56 0c7.92,0 14.58,2.7 19.98,8.1 5.4,5.4 8.1,12.06 8.1,19.98l0 98.29c0,7.92 -2.7,14.58 -8.1,19.99 -5.4,5.4 -12.06,8.1 -19.98,8.1l-317.56 0 0 140.41 349.96 0c7.92,0 14.58,2.7 19.98,8.1 5.4,5.4 8.1,12.06 8.1,19.99l0 106.93c0,7.92 -2.7,14.4 -8.1,19.44 -5.4,5.04 -12.06,7.56 -19.98,7.56l-518.46 0z"/>
  <path id="10" class="fil1" d="M11818.74 1275.94c-7.2,0 -13.5,-2.7 -18.9,-8.1 -5.4,-5.4 -8.1,-11.7 -8.1,-18.9l0 -701c0,-7.92 2.52,-14.58 7.56,-19.98 5.04,-5.4 11.52,-8.1 19.44,-8.1l297.03 0c95.05,0 169.4,21.6 223.05,64.8 53.64,43.21 80.47,104.05 80.47,182.54 0,50.41 -11.7,93.25 -35.11,128.54 -23.4,35.28 -55.62,62.64 -96.67,82.09l145.82 263.55c2.16,4.32 3.24,8.28 3.24,11.88 0,5.76 -2.16,10.98 -6.48,15.66 -4.32,4.68 -9.72,7.02 -16.2,7.02l-152.3 0c-20.88,0 -35.64,-9.72 -44.28,-29.16l-118.82 -234.39 -103.69 0 0 236.55c0,7.92 -2.7,14.4 -8.1,19.44 -5.4,5.04 -12.06,7.56 -19.98,7.56l-147.98 0zm295.95 -422.33c30.97,0 54.55,-7.74 70.75,-23.22 16.2,-15.48 24.3,-36.9 24.3,-64.27 0,-27.36 -8.1,-49.32 -24.3,-65.88 -16.2,-16.57 -39.78,-24.85 -70.75,-24.85l-119.89 0 0 178.22 119.89 0z"/>
  <path class="fil1" d="M4754.11 2334.93c-3.96,0 -7.22,-1.29 -9.79,-3.86 -2.58,-2.57 -3.86,-5.84 -3.86,-9.79l0 -387.64c0,-4.35 1.19,-7.81 3.56,-10.39 2.37,-2.57 5.74,-3.85 10.09,-3.85l27.9 0c7.13,0 12.07,2.96 14.84,8.9l126.44 242.79 127.63 -242.79c3.17,-5.94 7.92,-8.9 14.25,-8.9l27.9 0c4.35,0 7.72,1.28 10.09,3.85 2.37,2.58 3.56,6.04 3.56,10.39l0 387.64c0,3.95 -1.28,7.22 -3.86,9.79 -2.57,2.57 -5.83,3.86 -9.79,3.86l-27.31 0c-3.96,0 -7.12,-1.29 -9.5,-3.86 -2.37,-2.57 -3.56,-5.84 -3.56,-9.79l0 -295.03 -101.51 196.49c-3.95,8.31 -10.29,12.46 -18.99,12.46l-17.81 0c-8.31,0 -14.64,-4.15 -19,-12.46l-100.91 -196.49 0 295.03c0,3.95 -1.29,7.22 -3.86,9.79 -2.57,2.57 -5.84,3.86 -9.8,3.86l-26.71 0z"/>
  <path id="1" class="fil1" d="M5288.96 2340.87c-19.39,0 -37.3,-3.96 -53.72,-11.88 -16.42,-7.91 -29.48,-18.7 -39.18,-32.35 -9.69,-13.65 -14.54,-28.79 -14.54,-45.41 0,-26.12 10.68,-47.49 32.05,-64.11 21.37,-16.62 50.46,-27.7 87.27,-33.24l89.04 -12.47 0 -17.22c0,-40.76 -23.55,-61.14 -70.64,-61.14 -18.21,0 -32.85,3.66 -43.93,10.98 -11.08,7.33 -19.19,15.93 -24.34,25.83 -1.58,3.95 -3.26,6.63 -5.04,8.01 -1.79,1.39 -4.26,2.08 -7.42,2.08l-23.16 0c-3.56,0 -6.62,-1.29 -9.2,-3.86 -2.57,-2.57 -3.86,-5.64 -3.86,-9.2 0,-9.1 4.26,-19.69 12.77,-31.76 8.51,-12.07 21.66,-22.56 39.47,-31.46 17.81,-8.91 39.58,-13.36 65.3,-13.36 44.32,0 76.08,10.29 95.28,30.87 19.19,20.58 28.79,46.3 28.79,77.17l0 192.93c0,3.95 -1.29,7.22 -3.86,9.79 -2.57,2.57 -5.84,3.86 -9.8,3.86l-26.11 0c-3.96,0 -7.13,-1.29 -9.5,-3.86 -2.38,-2.57 -3.56,-5.84 -3.56,-9.79l0 -26.12c-8.71,13.06 -21.37,23.94 -38,32.65 -16.62,8.7 -37.99,13.06 -64.11,13.06zm11.88 -43.34c26.11,0 47.48,-8.51 64.11,-25.52 16.62,-17.02 24.93,-41.75 24.93,-74.21l0 -16.62 -69.46 10.09c-28.49,3.96 -50.06,10.69 -64.7,20.19 -14.64,9.49 -21.96,21.37 -21.96,35.61 0,16.23 6.62,28.7 19.88,37.4 13.26,8.71 28.99,13.06 47.2,13.06z"/>
  <path id="2" class="fil1" d="M5543.62 2334.93c-3.95,0 -7.22,-1.29 -9.79,-3.86 -2.57,-2.57 -3.86,-5.84 -3.86,-9.79l0 -281.38c0,-3.96 1.29,-7.22 3.86,-9.79 2.57,-2.58 5.84,-3.86 9.79,-3.86l24.94 0c4.35,0 7.71,1.18 10.09,3.56 2.37,2.37 3.56,5.74 3.56,10.09l0 248.73 110.41 0 0 -248.73c0,-3.96 1.29,-7.22 3.86,-9.79 2.57,-2.58 5.84,-3.86 9.8,-3.86l23.74 0c3.96,0 7.22,1.28 9.8,3.86 2.57,2.57 3.85,5.83 3.85,9.79l0 248.73 110.42 0 0 -248.73c0,-3.96 1.28,-7.22 3.86,-9.79 2.57,-2.58 5.83,-3.86 9.79,-3.86l24.93 0c4.36,0 7.72,1.18 10.09,3.56 2.38,2.37 3.57,5.74 3.57,10.09l0 281.38c0,3.95 -1.29,7.22 -3.86,9.79 -2.57,2.57 -5.84,3.86 -9.8,3.86l-349.05 0z"/>
  <path id="3" class="fil1" d="M6255.97 2026.25c3.16,0 6.13,1.18 8.9,3.56 2.77,2.37 4.16,5.14 4.16,8.31l0 283.16c0,3.95 -1.29,7.22 -3.86,9.79 -2.57,2.57 -5.84,3.86 -9.8,3.86l-26.12 0c-3.95,0 -7.22,-1.29 -9.79,-3.86 -2.57,-2.57 -3.86,-5.84 -3.86,-9.79l0 -217.27 -166.21 222.02c-4.36,5.93 -9.5,8.9 -15.44,8.9l-25.52 0c-3.17,0 -6.04,-1.29 -8.61,-3.86 -2.57,-2.57 -3.86,-5.44 -3.86,-8.61l0 -282.56c0,-3.96 1.29,-7.22 3.86,-9.79 2.57,-2.58 5.84,-3.86 9.79,-3.86l26.12 0c3.96,0 7.23,1.28 9.8,3.86 2.57,2.57 3.86,5.83 3.86,9.79l0 217.27 166.21 -222.02c4.35,-5.93 9.5,-8.9 15.44,-8.9l24.93 0z"/>
  <path id="4" class="fil1" d="M6369.94 2334.93c-3.95,0 -7.22,-1.29 -9.79,-3.86 -2.57,-2.57 -3.86,-5.84 -3.86,-9.79l0 -281.38c0,-3.96 1.29,-7.22 3.86,-9.79 2.57,-2.58 5.84,-3.86 9.79,-3.86l26.12 0c3.96,0 7.23,1.28 9.8,3.86 2.57,2.57 3.86,5.83 3.86,9.79l0 114.57 163.84 0 0 -114.57c0,-3.96 1.28,-7.22 3.85,-9.79 2.58,-2.58 5.84,-3.86 9.8,-3.86l26.12 0c4.35,0 7.72,1.18 10.09,3.56 2.37,2.37 3.56,5.74 3.56,10.09l0 281.38c0,3.95 -1.28,7.22 -3.86,9.79 -2.57,2.57 -5.83,3.86 -9.79,3.86l-26.12 0c-3.96,0 -7.22,-1.29 -9.8,-3.86 -2.57,-2.57 -3.85,-5.84 -3.85,-9.79l0 -121.1 -163.84 0 0 121.1c0,3.95 -1.29,7.22 -3.86,9.79 -2.57,2.57 -5.84,3.86 -9.8,3.86l-26.12 0z"/>
  <path id="5" class="fil1" d="M6730.27 2334.93c-3.95,0 -7.22,-1.29 -9.79,-3.86 -2.57,-2.57 -3.86,-5.84 -3.86,-9.79l0 -281.38c0,-3.96 1.29,-7.22 3.86,-9.79 2.57,-2.58 5.84,-3.86 9.79,-3.86l26.12 0c3.96,0 7.23,1.28 9.8,3.86 2.57,2.57 3.86,5.83 3.86,9.79l0 114.57 163.84 0 0 -114.57c0,-3.96 1.28,-7.22 3.85,-9.79 2.58,-2.58 5.84,-3.86 9.8,-3.86l26.12 0c4.35,0 7.72,1.18 10.09,3.56 2.37,2.37 3.56,5.74 3.56,10.09l0 281.38c0,3.95 -1.28,7.22 -3.86,9.79 -2.57,2.57 -5.83,3.86 -9.79,3.86l-26.12 0c-3.96,0 -7.22,-1.29 -9.8,-3.86 -2.57,-2.57 -3.85,-5.84 -3.85,-9.79l0 -121.1 -163.84 0 0 121.1c0,3.95 -1.29,7.22 -3.86,9.79 -2.57,2.57 -5.84,3.86 -9.8,3.86l-26.12 0z"/>
  <path id="6" class="fil1" d="M7162.43 2340.87c-19.39,0 -37.3,-3.96 -53.72,-11.88 -16.42,-7.91 -29.48,-18.7 -39.18,-32.35 -9.69,-13.65 -14.54,-28.79 -14.54,-45.41 0,-26.12 10.68,-47.49 32.05,-64.11 21.37,-16.62 50.46,-27.7 87.27,-33.24l89.04 -12.47 0 -17.22c0,-40.76 -23.55,-61.14 -70.64,-61.14 -18.21,0 -32.85,3.66 -43.93,10.98 -11.08,7.33 -19.19,15.93 -24.34,25.83 -1.58,3.95 -3.26,6.63 -5.04,8.01 -1.79,1.39 -4.26,2.08 -7.42,2.08l-23.16 0c-3.56,0 -6.62,-1.29 -9.2,-3.86 -2.57,-2.57 -3.86,-5.64 -3.86,-9.2 0,-9.1 4.26,-19.69 12.77,-31.76 8.51,-12.07 21.66,-22.56 39.47,-31.46 17.81,-8.91 39.58,-13.36 65.3,-13.36 44.32,0 76.08,10.29 95.28,30.87 19.19,20.58 28.79,46.3 28.79,77.17l0 192.93c0,3.95 -1.29,7.22 -3.86,9.79 -2.57,2.57 -5.84,3.86 -9.8,3.86l-26.11 0c-3.96,0 -7.13,-1.29 -9.5,-3.86 -2.38,-2.57 -3.56,-5.84 -3.56,-9.79l0 -26.12c-8.71,13.06 -21.37,23.94 -38,32.65 -16.62,8.7 -37.99,13.06 -64.11,13.06zm11.88 -43.34c26.11,0 47.48,-8.51 64.11,-25.52 16.62,-17.02 24.93,-41.75 24.93,-74.21l0 -16.62 -69.46 10.09c-28.49,3.96 -50.06,10.69 -64.7,20.19 -14.64,9.49 -21.96,21.37 -21.96,35.61 0,16.23 6.62,28.7 19.88,37.4 13.26,8.71 28.99,13.06 47.2,13.06z"/>
  <path id="7" class="fil1" d="M7621.89 2026.25c3.96,0 7.23,1.28 9.8,3.86 2.57,2.57 3.86,5.83 3.86,9.79l0 281.38c0,3.95 -1.29,7.22 -3.86,9.79 -2.57,2.57 -5.84,3.86 -9.8,3.86l-26.71 0c-3.96,0 -7.22,-1.29 -9.79,-3.86 -2.58,-2.57 -3.86,-5.84 -3.86,-9.79l0 -97.36 -64.11 0 -68.27 102.11c-1.58,2.37 -3.76,4.45 -6.53,6.23 -2.77,1.78 -5.74,2.67 -8.9,2.67l-26.72 0c-3.16,0 -5.93,-1.19 -8.31,-3.56 -2.37,-2.38 -3.56,-5.15 -3.56,-8.31 0,-3.96 1.39,-7.72 4.16,-11.28l66.48 -97.35c-20.58,-7.13 -36.11,-18.6 -46.6,-34.43 -10.48,-15.83 -15.73,-34.83 -15.73,-56.99 0,-32.85 9.8,-57.19 29.39,-73.02 19.59,-15.83 49.17,-23.74 88.74,-23.74l100.32 0zm-39.77 43.33l-62.92 0c-22.96,0 -39.58,4.06 -49.87,12.17 -10.29,8.11 -15.43,21.87 -15.43,41.26 0,17.41 5.04,31.36 15.14,41.85 10.09,10.49 25.23,15.73 45.41,15.73l67.67 0 0 -111.01z"/>
  <path id="8" class="fil1" d="M10989.5 2340.87c-19.39,0 -37.3,-3.96 -53.72,-11.88 -16.42,-7.91 -29.48,-18.7 -39.18,-32.35 -9.69,-13.65 -14.54,-28.79 -14.54,-45.41 0,-26.12 10.68,-47.49 32.05,-64.11 21.37,-16.62 50.46,-27.7 87.27,-33.24l89.04 -12.47 0 -17.22c0,-40.76 -23.55,-61.14 -70.64,-61.14 -18.21,0 -32.85,3.66 -43.93,10.98 -11.08,7.33 -19.19,15.93 -24.34,25.83 -1.58,3.95 -3.26,6.63 -5.04,8.01 -1.79,1.39 -4.26,2.08 -7.42,2.08l-23.16 0c-3.56,0 -6.62,-1.29 -9.2,-3.86 -2.57,-2.57 -3.86,-5.64 -3.86,-9.2 0,-9.1 4.26,-19.69 12.77,-31.76 8.51,-12.07 21.66,-22.56 39.47,-31.46 17.81,-8.91 39.58,-13.36 65.3,-13.36 44.32,0 76.08,10.29 95.28,30.87 19.19,20.58 28.79,46.3 28.79,77.17l0 192.93c0,3.95 -1.29,7.22 -3.86,9.79 -2.57,2.57 -5.84,3.86 -9.8,3.86l-26.11 0c-3.96,0 -7.13,-1.29 -9.5,-3.86 -2.38,-2.57 -3.56,-5.84 -3.56,-9.79l0 -26.12c-8.71,13.06 -21.37,23.94 -38,32.65 -16.62,8.7 -37.99,13.06 -64.11,13.06zm11.88 -43.34c26.11,0 47.48,-8.51 64.11,-25.52 16.62,-17.02 24.93,-41.75 24.93,-74.21l0 -16.62 -69.46 10.09c-28.49,3.96 -50.06,10.69 -64.7,20.19 -14.64,9.49 -21.96,21.37 -21.96,35.61 0,16.23 6.62,28.7 19.88,37.4 13.26,8.71 28.99,13.06 47.2,13.06z"/>
  <path id="9" class="fil1" d="M7884.86 2334.93c-3.95,0 -7.22,-1.29 -9.79,-3.86 -2.57,-2.57 -3.86,-5.84 -3.86,-9.79l0 -281.38c0,-3.96 1.29,-7.22 3.86,-9.79 2.57,-2.58 5.84,-3.86 9.79,-3.86l24.94 0c4.35,0 7.71,1.18 10.09,3.56 2.37,2.37 3.56,5.74 3.56,10.09l0 248.73 110.41 0 0 -248.73c0,-3.96 1.29,-7.22 3.86,-9.79 2.57,-2.58 5.84,-3.86 9.8,-3.86l23.74 0c3.96,0 7.22,1.28 9.8,3.86 2.57,2.57 3.85,5.83 3.85,9.79l0 248.73 110.42 0 0 -248.73c0,-3.96 1.28,-7.22 3.86,-9.79 2.57,-2.58 5.83,-3.86 9.79,-3.86l24.93 0c4.36,0 7.72,1.18 10.09,3.56 2.38,2.37 3.57,5.74 3.57,10.09l0 281.38c0,3.95 -1.29,7.22 -3.86,9.79 -2.57,2.57 -5.84,3.86 -9.8,3.86l-349.05 0z"/>
  <path id="10" class="fil1" d="M8431.59 2334.93c-3.96,0 -7.23,-1.29 -9.8,-3.86 -2.57,-2.57 -3.86,-5.84 -3.86,-9.79l0 -249.32 -103.88 0c-3.96,0 -7.22,-1.19 -9.79,-3.57 -2.58,-2.37 -3.86,-5.54 -3.86,-9.49l0 -19c0,-3.96 1.28,-7.22 3.86,-9.79 2.57,-2.58 5.83,-3.86 9.79,-3.86l260.6 0c3.96,0 7.12,1.28 9.5,3.86 2.37,2.57 3.56,5.83 3.56,9.79l0 19c0,3.95 -1.19,7.12 -3.56,9.49 -2.38,2.38 -5.54,3.57 -9.5,3.57l-103.88 0 0 249.32c0,3.95 -1.29,7.22 -3.86,9.79 -2.57,2.57 -5.84,3.86 -9.8,3.86l-25.52 0z"/>
  <path id="11" class="fil1" d="M8891.64 2026.25c3.17,0 6.04,1.18 8.61,3.56 2.57,2.37 3.86,5.14 3.86,8.31 0,1.58 -1.19,5.14 -3.56,10.69l-112.79 267.12 -5.34 12.47c-10.69,25.33 -20.29,45.91 -28.79,61.74 -8.51,15.83 -19.2,29.38 -32.06,40.66 -12.86,11.28 -28,16.92 -45.41,16.92l-22.56 0c-3.96,0 -7.22,-1.29 -9.79,-3.86 -2.58,-2.57 -3.86,-5.84 -3.86,-9.8l0 -18.4c0,-3.96 1.28,-7.22 3.86,-9.79 2.57,-2.57 5.83,-3.86 9.79,-3.86l15.44 0c8.7,0 15.83,-1.78 21.37,-5.34 5.54,-3.57 10.58,-9.3 15.13,-17.22 4.55,-7.91 10.39,-20.18 17.51,-36.8l10.1 -24.34 -115.76 -269.5c-1.98,-5.15 -2.97,-8.51 -2.97,-10.1 0,-3.56 1.19,-6.53 3.56,-8.9 2.38,-2.38 5.35,-3.56 8.91,-3.56l26.12 0c6.33,0 11.08,3.16 14.24,9.5l92.61 219.63 92.01 -219.63c2.77,-6.34 7.72,-9.5 14.84,-9.5l24.93 0z"/>
  <path id="12" class="fil1" d="M9219.92 2317.72c1.58,2.77 2.37,5.34 2.37,7.71 0,6.33 -3.76,9.5 -11.28,9.5l-33.83 0c-5.94,0 -11.28,-2.97 -16.03,-8.9l-87.26 -124.66 -56.4 0 0 119.91c0,3.95 -1.28,7.22 -3.85,9.79 -2.58,2.57 -5.84,3.86 -9.8,3.86l-25.53 0c-3.95,0 -7.22,-1.29 -9.79,-3.86 -2.57,-2.57 -3.86,-5.84 -3.86,-9.79l0 -281.38c0,-3.96 1.29,-7.22 3.86,-9.79 2.57,-2.58 5.84,-3.86 9.79,-3.86l25.53 0c4.35,0 7.72,1.18 10.09,3.56 2.38,2.37 3.56,5.74 3.56,10.09l0 114.57 55.21 0 81.33 -119.32c3.95,-5.93 9.1,-8.9 15.43,-8.9l29.09 0c3.56,0 6.53,0.89 8.9,2.67 2.38,1.78 3.56,4.06 3.56,6.83 0,0.79 -0.39,1.88 -1.18,3.26 -0.79,1.39 -1.39,2.67 -1.78,3.86l-89.05 131.19 100.92 143.66z"/>
  <path id="13" class="fil1" d="M9366.54 2340.87c-19.39,0 -37.3,-3.96 -53.72,-11.88 -16.42,-7.91 -29.48,-18.7 -39.18,-32.35 -9.69,-13.65 -14.54,-28.79 -14.54,-45.41 0,-26.12 10.68,-47.49 32.05,-64.11 21.37,-16.62 50.46,-27.7 87.27,-33.24l89.04 -12.47 0 -17.22c0,-40.76 -23.55,-61.14 -70.64,-61.14 -18.21,0 -32.85,3.66 -43.93,10.98 -11.08,7.33 -19.19,15.93 -24.34,25.83 -1.58,3.95 -3.26,6.63 -5.04,8.01 -1.79,1.39 -4.26,2.08 -7.42,2.08l-23.16 0c-3.56,0 -6.62,-1.29 -9.2,-3.86 -2.57,-2.57 -3.86,-5.64 -3.86,-9.2 0,-9.1 4.26,-19.69 12.77,-31.76 8.51,-12.07 21.66,-22.56 39.47,-31.46 17.81,-8.91 39.58,-13.36 65.3,-13.36 44.32,0 76.08,10.29 95.28,30.87 19.19,20.58 28.79,46.3 28.79,77.17l0 192.93c0,3.95 -1.29,7.22 -3.86,9.79 -2.57,2.57 -5.84,3.86 -9.8,3.86l-26.11 0c-3.96,0 -7.13,-1.29 -9.5,-3.86 -2.38,-2.57 -3.56,-5.84 -3.56,-9.79l0 -26.12c-8.71,13.06 -21.37,23.94 -38,32.65 -16.62,8.7 -37.99,13.06 -64.11,13.06zm11.88 -43.34c26.11,0 47.48,-8.51 64.11,-25.52 16.62,-17.02 24.93,-41.75 24.93,-74.21l0 -16.62 -69.46 10.09c-28.49,3.96 -50.06,10.69 -64.7,20.19 -14.64,9.49 -21.96,21.37 -21.96,35.61 0,16.23 6.62,28.7 19.88,37.4 13.26,8.71 28.99,13.06 47.2,13.06z"/>
  <path id="14" class="fil1" d="M9701.94 2334.93c-3.96,0 -7.23,-1.29 -9.8,-3.86 -2.57,-2.57 -3.86,-5.84 -3.86,-9.79l0 -249.32 -103.88 0c-3.96,0 -7.22,-1.19 -9.79,-3.57 -2.58,-2.37 -3.86,-5.54 -3.86,-9.49l0 -19c0,-3.96 1.28,-7.22 3.86,-9.79 2.57,-2.58 5.83,-3.86 9.79,-3.86l260.6 0c3.96,0 7.12,1.28 9.5,3.86 2.37,2.57 3.56,5.83 3.56,9.79l0 19c0,3.95 -1.19,7.12 -3.56,9.49 -2.38,2.38 -5.54,3.57 -9.5,3.57l-103.88 0 0 249.32c0,3.95 -1.29,7.22 -3.86,9.79 -2.57,2.57 -5.84,3.86 -9.8,3.86l-25.52 0z"/>
  <path id="15" class="fil1" d="M10161.99 2026.25c3.17,0 6.04,1.18 8.61,3.56 2.57,2.37 3.86,5.14 3.86,8.31 0,1.58 -1.19,5.14 -3.56,10.69l-112.79 267.12 -5.34 12.47c-10.69,25.33 -20.29,45.91 -28.79,61.74 -8.51,15.83 -19.2,29.38 -32.06,40.66 -12.86,11.28 -28,16.92 -45.41,16.92l-22.56 0c-3.96,0 -7.22,-1.29 -9.79,-3.86 -2.58,-2.57 -3.86,-5.84 -3.86,-9.8l0 -18.4c0,-3.96 1.28,-7.22 3.86,-9.79 2.57,-2.57 5.83,-3.86 9.79,-3.86l15.44 0c8.7,0 15.83,-1.78 21.37,-5.34 5.54,-3.57 10.58,-9.3 15.13,-17.22 4.55,-7.91 10.39,-20.18 17.51,-36.8l10.1 -24.34 -115.76 -269.5c-1.98,-5.15 -2.97,-8.51 -2.97,-10.1 0,-3.56 1.19,-6.53 3.56,-8.9 2.38,-2.38 5.35,-3.56 8.91,-3.56l26.12 0c6.33,0 11.08,3.16 14.24,9.5l92.61 219.63 92.01 -219.63c2.77,-6.34 7.72,-9.5 14.84,-9.5l24.93 0z"/>
  <path id="16" class="fil1" d="M10249.26 2447.72c-3.96,0 -7.22,-1.19 -9.8,-3.56 -2.57,-2.38 -3.85,-5.74 -3.85,-10.1l0 -394.16c0,-4.35 1.28,-7.72 3.85,-10.09 2.58,-2.38 5.84,-3.56 9.8,-3.56l24.93 0c4.35,0 7.72,1.18 10.09,3.56 2.38,2.37 3.56,5.74 3.56,10.09l0 26.12c22.96,-30.47 55.61,-45.71 97.95,-45.71 41.55,0 72.72,13.16 93.5,39.48 20.77,26.31 31.75,59.85 32.94,100.62 0.4,4.35 0.6,11.08 0.6,20.18 0,9.1 -0.2,15.83 -0.6,20.18 -1.19,40.37 -12.17,73.81 -32.94,100.32 -20.78,26.52 -51.95,39.78 -93.5,39.78 -42.34,0 -74.4,-15.04 -96.17,-45.12l0 138.31c0,3.96 -1.28,7.23 -3.85,9.8 -2.58,2.57 -5.84,3.86 -9.8,3.86l-26.71 0zm125.25 -153.16c28.5,0 49.27,-8.9 62.33,-26.71 13.06,-17.81 20.19,-41.16 21.37,-70.05 0.4,-3.95 0.6,-9.69 0.6,-17.21 0,-75.98 -28.1,-113.98 -84.3,-113.98 -27.7,0 -48.58,9.2 -62.62,27.61 -14.05,18.4 -21.47,40.07 -22.27,65 -0.39,4.35 -0.59,12.07 -0.59,23.15 0,11.08 0.2,18.8 0.59,23.15 0.8,24.14 8.41,45.02 22.86,62.63 14.44,17.61 35.12,26.41 62.03,26.41z"/>
  <path id="17" class="fil1" d="M10842.88 2317.72c1.58,2.77 2.37,5.34 2.37,7.71 0,6.33 -3.76,9.5 -11.28,9.5l-33.83 0c-5.94,0 -11.28,-2.97 -16.03,-8.9l-87.26 -124.66 -56.4 0 0 119.91c0,3.95 -1.28,7.22 -3.85,9.79 -2.58,2.57 -5.84,3.86 -9.8,3.86l-25.53 0c-3.95,0 -7.22,-1.29 -9.79,-3.86 -2.57,-2.57 -3.86,-5.84 -3.86,-9.79l0 -281.38c0,-3.96 1.29,-7.22 3.86,-9.79 2.57,-2.58 5.84,-3.86 9.79,-3.86l25.53 0c4.35,0 7.72,1.18 10.09,3.56 2.38,2.37 3.56,5.74 3.56,10.09l0 114.57 55.21 0 81.33 -119.32c3.95,-5.93 9.1,-8.9 15.43,-8.9l29.09 0c3.56,0 6.53,0.89 8.9,2.67 2.38,1.78 3.56,4.06 3.56,6.83 0,0.79 -0.39,1.88 -1.18,3.26 -0.79,1.39 -1.39,2.67 -1.78,3.86l-89.05 131.19 100.92 143.66z"/>
  <path id="18" class="fil1" d="M11390.19 2334.93c-3.95,0 -7.22,-1.29 -9.79,-3.86 -2.57,-2.57 -3.86,-5.84 -3.86,-9.79l0 -281.38c0,-3.96 1.29,-7.22 3.86,-9.79 2.57,-2.58 5.84,-3.86 9.79,-3.86l122.88 0c35.62,0 63.03,7.42 82.22,22.26 19.19,14.84 28.79,34.92 28.79,60.25 0,17.02 -3.16,30.28 -9.5,39.77 -6.33,9.5 -16.22,17.61 -29.68,24.34 14.25,5.94 25.43,15.83 33.54,29.68 8.11,13.85 12.17,28.89 12.17,45.12 0,28.1 -9.89,49.66 -29.68,64.7 -19.79,15.04 -47.69,22.56 -83.7,22.56l-127.04 0zm118.73 -176.9c19.39,0 34.82,-4.25 46.3,-12.76 11.48,-8.51 17.22,-20.48 17.22,-35.92 0,-27.3 -21.18,-40.96 -63.52,-40.96l-80.14 0 0 89.64 80.14 0zm3.56 134.75c19.79,0 35.52,-3.86 47.19,-11.57 11.68,-7.72 17.52,-19.1 17.52,-34.14 0,-15.83 -5.35,-27.5 -16.03,-35.02 -10.69,-7.52 -26.91,-11.28 -48.68,-11.28l-83.7 0 0 92.01 83.7 0z"/>
  <path id="19" class="fil1" d="M12109.66 2317.72c1.58,2.77 2.37,5.34 2.37,7.71 0,6.33 -3.76,9.5 -11.28,9.5l-33.83 0c-5.94,0 -11.28,-2.97 -16.03,-8.9l-87.26 -124.66 -56.4 0 0 119.91c0,3.95 -1.28,7.22 -3.85,9.79 -2.58,2.57 -5.84,3.86 -9.8,3.86l-25.53 0c-3.95,0 -7.22,-1.29 -9.79,-3.86 -2.57,-2.57 -3.86,-5.84 -3.86,-9.79l0 -281.38c0,-3.96 1.29,-7.22 3.86,-9.79 2.57,-2.58 5.84,-3.86 9.79,-3.86l25.53 0c4.35,0 7.72,1.18 10.09,3.56 2.38,2.37 3.56,5.74 3.56,10.09l0 114.57 55.21 0 81.33 -119.32c3.95,-5.93 9.1,-8.9 15.43,-8.9l29.09 0c3.56,0 6.53,0.89 8.9,2.67 2.38,1.78 3.56,4.06 3.56,6.83 0,0.79 -0.39,1.88 -1.18,3.26 -0.79,1.39 -1.39,2.67 -1.78,3.86l-89.05 131.19 100.92 143.66z"/>
  <path id="20" class="fil1" d="M12184.45 2334.93c-3.95,0 -7.22,-1.29 -9.79,-3.86 -2.57,-2.57 -3.86,-5.84 -3.86,-9.79l0 -281.38c0,-3.96 1.29,-7.22 3.86,-9.79 2.57,-2.58 5.84,-3.86 9.79,-3.86l122.88 0c35.62,0 63.03,7.42 82.22,22.26 19.19,14.84 28.79,34.92 28.79,60.25 0,17.02 -3.16,30.28 -9.5,39.77 -6.33,9.5 -16.22,17.61 -29.68,24.34 14.25,5.94 25.43,15.83 33.54,29.68 8.11,13.85 12.17,28.89 12.17,45.12 0,28.1 -9.89,49.66 -29.68,64.7 -19.79,15.04 -47.69,22.56 -83.7,22.56l-127.04 0zm118.73 -176.9c19.39,0 34.82,-4.25 46.3,-12.76 11.48,-8.51 17.22,-20.48 17.22,-35.92 0,-27.3 -21.18,-40.96 -63.52,-40.96l-80.14 0 0 89.64 80.14 0zm3.56 134.75c19.79,0 35.52,-3.86 47.19,-11.57 11.68,-7.72 17.52,-19.1 17.52,-34.14 0,-15.83 -5.35,-27.5 -16.03,-35.02 -10.69,-7.52 -26.91,-11.28 -48.68,-11.28l-83.7 0 0 92.01 83.7 0z"/>
  <path id="21" class="fil1" d="M12588.11 2340.87c-19.39,0 -37.3,-3.96 -53.72,-11.88 -16.42,-7.91 -29.48,-18.7 -39.18,-32.35 -9.69,-13.65 -14.54,-28.79 -14.54,-45.41 0,-26.12 10.68,-47.49 32.05,-64.11 21.37,-16.62 50.46,-27.7 87.27,-33.24l89.04 -12.47 0 -17.22c0,-40.76 -23.55,-61.14 -70.64,-61.14 -18.21,0 -32.85,3.66 -43.93,10.98 -11.08,7.33 -19.19,15.93 -24.34,25.83 -1.58,3.95 -3.26,6.63 -5.04,8.01 -1.79,1.39 -4.26,2.08 -7.42,2.08l-23.16 0c-3.56,0 -6.62,-1.29 -9.2,-3.86 -2.57,-2.57 -3.86,-5.64 -3.86,-9.2 0,-9.1 4.26,-19.69 12.77,-31.76 8.51,-12.07 21.66,-22.56 39.47,-31.46 17.81,-8.91 39.58,-13.36 65.3,-13.36 44.32,0 76.08,10.29 95.28,30.87 19.19,20.58 28.79,46.3 28.79,77.17l0 192.93c0,3.95 -1.29,7.22 -3.86,9.79 -2.57,2.57 -5.84,3.86 -9.8,3.86l-26.11 0c-3.96,0 -7.13,-1.29 -9.5,-3.86 -2.38,-2.57 -3.56,-5.84 -3.56,-9.79l0 -26.12c-8.71,13.06 -21.37,23.94 -38,32.65 -16.62,8.7 -37.99,13.06 -64.11,13.06zm11.88 -43.34c26.11,0 47.48,-8.51 64.11,-25.52 16.62,-17.02 24.93,-41.75 24.93,-74.21l0 -16.62 -69.46 10.09c-28.49,3.96 -50.06,10.69 -64.7,20.19 -14.64,9.49 -21.96,21.37 -21.96,35.61 0,16.23 6.62,28.7 19.88,37.4 13.26,8.71 28.99,13.06 47.2,13.06z"/>
  <path id="22" class="fil1" d="M12843.37 2447.72c-3.96,0 -7.22,-1.19 -9.8,-3.56 -2.57,-2.38 -3.85,-5.74 -3.85,-10.1l0 -394.16c0,-4.35 1.28,-7.72 3.85,-10.09 2.58,-2.38 5.84,-3.56 9.8,-3.56l24.93 0c4.35,0 7.72,1.18 10.09,3.56 2.38,2.37 3.56,5.74 3.56,10.09l0 26.12c22.96,-30.47 55.61,-45.71 97.95,-45.71 41.55,0 72.72,13.16 93.5,39.48 20.77,26.31 31.75,59.85 32.94,100.62 0.4,4.35 0.6,11.08 0.6,20.18 0,9.1 -0.2,15.83 -0.6,20.18 -1.19,40.37 -12.17,73.81 -32.94,100.32 -20.78,26.52 -51.95,39.78 -93.5,39.78 -42.34,0 -74.4,-15.04 -96.17,-45.12l0 138.31c0,3.96 -1.28,7.23 -3.85,9.8 -2.58,2.57 -5.84,3.86 -9.8,3.86l-26.71 0zm125.25 -153.16c28.5,0 49.27,-8.9 62.33,-26.71 13.06,-17.81 20.19,-41.16 21.37,-70.05 0.4,-3.95 0.6,-9.69 0.6,-17.21 0,-75.98 -28.1,-113.98 -84.3,-113.98 -27.7,0 -48.58,9.2 -62.62,27.61 -14.05,18.4 -21.47,40.07 -22.27,65 -0.39,4.35 -0.59,12.07 -0.59,23.15 0,11.08 0.2,18.8 0.59,23.15 0.8,24.14 8.41,45.02 22.86,62.63 14.44,17.61 35.12,26.41 62.03,26.41z"/>
  <path id="23" class="fil1" d="M13276.12 2334.93c-3.96,0 -7.23,-1.29 -9.8,-3.86 -2.57,-2.57 -3.86,-5.84 -3.86,-9.79l0 -249.32 -103.88 0c-3.96,0 -7.22,-1.19 -9.79,-3.57 -2.58,-2.37 -3.86,-5.54 -3.86,-9.49l0 -19c0,-3.96 1.28,-7.22 3.86,-9.79 2.57,-2.58 5.83,-3.86 9.79,-3.86l260.6 0c3.96,0 7.12,1.28 9.5,3.86 2.37,2.57 3.56,5.83 3.56,9.79l0 19c0,3.95 -1.19,7.12 -3.56,9.49 -2.38,2.38 -5.54,3.57 -9.5,3.57l-103.88 0 0 249.32c0,3.95 -1.29,7.22 -3.86,9.79 -2.57,2.57 -5.84,3.86 -9.8,3.86l-25.52 0z"/>
  <path id="24" class="fil1" d="M13745.08 2026.25c3.16,0 6.13,1.18 8.9,3.56 2.77,2.37 4.16,5.14 4.16,8.31l0 283.16c0,3.95 -1.29,7.22 -3.86,9.79 -2.57,2.57 -5.84,3.86 -9.8,3.86l-26.12 0c-3.95,0 -7.22,-1.29 -9.79,-3.86 -2.57,-2.57 -3.86,-5.84 -3.86,-9.79l0 -217.27 -166.21 222.02c-4.36,5.93 -9.5,8.9 -15.44,8.9l-25.52 0c-3.17,0 -6.04,-1.29 -8.61,-3.86 -2.57,-2.57 -3.86,-5.44 -3.86,-8.61l0 -282.56c0,-3.96 1.29,-7.22 3.86,-9.79 2.57,-2.58 5.84,-3.86 9.79,-3.86l26.12 0c3.96,0 7.23,1.28 9.8,3.86 2.57,2.57 3.86,5.83 3.86,9.79l0 217.27 166.21 -222.02c4.35,-5.93 9.5,-8.9 15.44,-8.9l24.93 0z"/>
  <path id="25" class="fil1" d="M13859.65 2447.72c-3.96,0 -7.22,-1.19 -9.8,-3.56 -2.57,-2.38 -3.85,-5.74 -3.85,-10.1l0 -394.16c0,-4.35 1.28,-7.72 3.85,-10.09 2.58,-2.38 5.84,-3.56 9.8,-3.56l24.93 0c4.35,0 7.72,1.18 10.09,3.56 2.38,2.37 3.56,5.74 3.56,10.09l0 26.12c22.96,-30.47 55.61,-45.71 97.95,-45.71 41.55,0 72.72,13.16 93.5,39.48 20.77,26.31 31.75,59.85 32.94,100.62 0.4,4.35 0.6,11.08 0.6,20.18 0,9.1 -0.2,15.83 -0.6,20.18 -1.19,40.37 -12.17,73.81 -32.94,100.32 -20.78,26.52 -51.95,39.78 -93.5,39.78 -42.34,0 -74.4,-15.04 -96.17,-45.12l0 138.31c0,3.96 -1.28,7.23 -3.85,9.8 -2.58,2.57 -5.84,3.86 -9.8,3.86l-26.71 0zm125.25 -153.16c28.5,0 49.27,-8.9 62.33,-26.71 13.06,-17.81 20.19,-41.16 21.37,-70.05 0.4,-3.95 0.6,-9.69 0.6,-17.21 0,-75.98 -28.1,-113.98 -84.3,-113.98 -27.7,0 -48.58,9.2 -62.62,27.61 -14.05,18.4 -21.47,40.07 -22.27,65 -0.39,4.35 -0.59,12.07 -0.59,23.15 0,11.08 0.2,18.8 0.59,23.15 0.8,24.14 8.41,45.02 22.86,62.63 14.44,17.61 35.12,26.41 62.03,26.41z"/>
  <path id="26" class="fil1" d="M14283.49 2340.87c-19.39,0 -37.3,-3.96 -53.72,-11.88 -16.42,-7.91 -29.48,-18.7 -39.18,-32.35 -9.69,-13.65 -14.54,-28.79 -14.54,-45.41 0,-26.12 10.68,-47.49 32.05,-64.11 21.37,-16.62 50.46,-27.7 87.27,-33.24l89.04 -12.47 0 -17.22c0,-40.76 -23.55,-61.14 -70.64,-61.14 -18.21,0 -32.85,3.66 -43.93,10.98 -11.08,7.33 -19.19,15.93 -24.34,25.83 -1.58,3.95 -3.26,6.63 -5.04,8.01 -1.79,1.39 -4.26,2.08 -7.42,2.08l-23.16 0c-3.56,0 -6.62,-1.29 -9.2,-3.86 -2.57,-2.57 -3.86,-5.64 -3.86,-9.2 0,-9.1 4.26,-19.69 12.77,-31.76 8.51,-12.07 21.66,-22.56 39.47,-31.46 17.81,-8.91 39.58,-13.36 65.3,-13.36 44.32,0 76.08,10.29 95.28,30.87 19.19,20.58 28.79,46.3 28.79,77.17l0 192.93c0,3.95 -1.29,7.22 -3.86,9.79 -2.57,2.57 -5.84,3.86 -9.8,3.86l-26.11 0c-3.96,0 -7.13,-1.29 -9.5,-3.86 -2.38,-2.57 -3.56,-5.84 -3.56,-9.79l0 -26.12c-8.71,13.06 -21.37,23.94 -38,32.65 -16.62,8.7 -37.99,13.06 -64.11,13.06zm11.88 -43.34c26.11,0 47.48,-8.51 64.11,-25.52 16.62,-17.02 24.93,-41.75 24.93,-74.21l0 -16.62 -69.46 10.09c-28.49,3.96 -50.06,10.69 -64.7,20.19 -14.64,9.49 -21.96,21.37 -21.96,35.61 0,16.23 6.62,28.7 19.88,37.4 13.26,8.71 28.99,13.06 47.2,13.06z"/>
  <path id="27" class="fil1" d="M14510.25 2334.93c-3.56,0 -6.53,-1.19 -8.9,-3.56 -2.37,-2.38 -3.56,-5.34 -3.56,-8.91 0,-3.56 1.38,-7.32 4.15,-11.27l103.29 -134.16 -96.76 -127.63c-3.16,-4.35 -4.75,-7.92 -4.75,-10.69 0,-3.56 1.29,-6.53 3.86,-8.9 2.58,-2.38 5.44,-3.56 8.61,-3.56l28.49 0c5.94,0 11.09,3.16 15.44,9.5l80.14 103.88 80.14 -103.88c2.37,-3.17 4.65,-5.54 6.82,-7.13 2.18,-1.58 5.05,-2.37 8.61,-2.37l27.31 0c3.16,0 5.93,1.18 8.31,3.56 2.37,2.37 3.56,5.14 3.56,8.31 0,3.96 -1.39,7.72 -4.16,11.28l-97.94 128.81 103.29 132.98c2.77,3.95 4.15,7.71 4.15,11.27 0,3.57 -1.19,6.53 -3.56,8.91 -2.37,2.37 -5.34,3.56 -8.9,3.56l-29.09 0c-5.94,0 -11.08,-2.97 -15.44,-8.9l-84.88 -109.82 -84.89 109.82c-2.38,2.77 -4.65,4.94 -6.83,6.53 -2.17,1.58 -5.04,2.37 -8.61,2.37l-27.9 0z"/>
  <path id="28" class="fil1" d="M14839.12 2379.45c-3.57,0 -6.24,-1.19 -8.02,-3.56 -1.78,-2.37 -2.27,-5.34 -1.48,-8.9l13.06 -83.7c1.58,-11.48 7.12,-17.22 16.62,-17.22l37.99 0c2.77,0 5.15,1.09 7.12,3.26 1.98,2.18 2.97,4.46 2.97,6.83 0,3.17 -0.79,6.53 -2.37,10.09l-30.87 79.55c-3.56,9.1 -9.1,13.65 -16.62,13.65l-18.4 0z"/>
  <path id="29" class="fil1" d="M4858 3084.08c-43.54,0 -77.08,-12.27 -100.62,-36.81 -23.55,-24.53 -36.12,-57.18 -37.7,-97.95l-0.59 -25.52 0.59 -25.53c1.58,-40.76 14.35,-73.41 38.29,-97.94 23.94,-24.54 57.28,-36.81 100.03,-36.81 42.74,0 76.08,12.27 100.02,36.81 23.94,24.53 36.71,57.18 38.29,97.94 0.79,8.71 1.19,17.22 1.19,25.53 0,8.31 -0.4,16.82 -1.19,25.52 -1.58,40.77 -14.15,73.42 -37.7,97.95 -23.54,24.54 -57.08,36.81 -100.61,36.81zm0 -44.53c25.32,0 45.41,-8.01 60.25,-24.04 14.84,-16.02 22.85,-39.08 24.04,-69.15 0.4,-3.96 0.59,-11.48 0.59,-22.56 0,-11.08 -0.19,-18.6 -0.59,-22.56 -1.19,-30.08 -9.2,-53.13 -24.04,-69.16 -14.84,-16.02 -34.93,-24.04 -60.25,-24.04 -25.33,0 -45.42,8.02 -60.26,24.04 -14.84,16.03 -22.85,39.08 -24.04,69.16l-0.59 22.56 0.59 22.56c1.19,30.07 9.2,53.13 24.04,69.15 14.84,16.03 34.93,24.04 60.26,24.04z"/>
  <path id="30" class="fil1" d="M5226.63 3190.93c-3.95,0 -7.22,-1.19 -9.79,-3.56 -2.57,-2.38 -3.86,-5.74 -3.86,-10.1l0 -99.13c-49.86,0 -87.46,-12.07 -112.79,-36.21 -25.33,-24.14 -38.98,-56.79 -40.96,-97.95l-0.59 -20.18 0.59 -20.78c1.98,-40.76 15.73,-73.21 41.26,-97.35 25.52,-24.14 63.02,-36.21 112.49,-36.21l0 -99.14c0,-4.35 1.29,-7.71 3.86,-10.09 2.57,-2.37 5.84,-3.56 9.79,-3.56l26.12 0c3.96,0 7.13,1.29 9.5,3.86 2.37,2.57 3.56,5.84 3.56,9.79l0 99.14c49.87,0 87.46,12.07 112.79,36.21 25.33,24.14 38.98,56.59 40.96,97.35 0.79,8.71 1.19,15.63 1.19,20.78 0,4.75 -0.4,11.48 -1.19,20.18 -1.98,41.16 -15.53,73.81 -40.66,97.95 -25.13,24.14 -62.83,36.21 -113.09,36.21l0 99.13c0,3.96 -1.19,7.23 -3.56,9.8 -2.37,2.57 -5.54,3.86 -9.5,3.86l-26.12 0zm-13.65 -376.95c-64.11,0 -97.75,31.07 -100.92,93.2l-0.59 16.62 0.59 16.62c1.98,31.26 11.18,54.61 27.61,70.05 16.42,15.43 40.86,23.15 73.31,23.15l0 -219.64zm52.83 219.64c32.45,0 56.89,-7.82 73.31,-23.45 16.43,-15.63 25.63,-38.88 27.61,-69.75 0.39,-3.96 0.59,-9.5 0.59,-16.62 0,-7.12 -0.2,-12.67 -0.59,-16.62 -3.17,-62.13 -36.81,-93.2 -100.92,-93.2l0 219.64z"/>
  <path id="31" class="fil1" d="M5755.55 2769.46c3.16,0 6.13,1.18 8.9,3.56 2.77,2.37 4.16,5.14 4.16,8.31l0 283.16c0,3.95 -1.29,7.22 -3.86,9.79 -2.57,2.57 -5.84,3.86 -9.8,3.86l-26.12 0c-3.95,0 -7.22,-1.29 -9.79,-3.86 -2.57,-2.57 -3.86,-5.84 -3.86,-9.79l0 -217.27 -166.21 222.02c-4.36,5.93 -9.5,8.9 -15.44,8.9l-25.52 0c-3.17,0 -6.04,-1.29 -8.61,-3.86 -2.57,-2.57 -3.86,-5.44 -3.86,-8.61l0 -282.56c0,-3.96 1.29,-7.22 3.86,-9.79 2.57,-2.58 5.84,-3.86 9.79,-3.86l26.12 0c3.96,0 7.23,1.28 9.8,3.86 2.57,2.57 3.86,5.83 3.86,9.79l0 217.27 166.21 -222.02c4.35,-5.93 9.5,-8.9 15.44,-8.9l24.93 0z"/>
  <path id="32" class="fil1" d="M5979.34 3084.08c-42.34,0 -75.39,-11.98 -99.13,-35.92 -23.74,-23.94 -36.21,-57.48 -37.4,-100.62l-0.59 -23.74 0.59 -23.75c1.19,-43.13 13.66,-76.67 37.4,-100.61 23.74,-23.95 56.79,-35.92 99.13,-35.92 28.5,0 52.54,5.05 72.13,15.14 19.59,10.09 34.23,22.66 43.93,37.69 9.69,15.04 14.94,30.08 15.73,45.12 0.39,3.56 -0.89,6.73 -3.86,9.5 -2.97,2.77 -6.23,4.15 -9.8,4.15l-26.11 0c-3.96,0 -6.93,-0.89 -8.91,-2.67 -1.98,-1.78 -3.96,-5.05 -5.93,-9.79 -7.13,-19.4 -16.92,-33.15 -29.39,-41.26 -12.47,-8.11 -28.2,-12.17 -47.19,-12.17 -24.93,0 -44.72,7.72 -59.36,23.15 -14.65,15.44 -22.56,38.98 -23.75,70.64l-0.59 20.78 0.59 20.78c1.19,31.66 9.1,55.2 23.75,70.64 14.64,15.43 34.43,23.15 59.36,23.15 19.39,0 35.22,-4.06 47.49,-12.17 12.27,-8.11 21.96,-21.87 29.09,-41.26 1.97,-4.75 3.95,-8.01 5.93,-9.79 1.98,-1.78 4.95,-2.67 8.91,-2.67l26.11 0c3.57,0 6.83,1.38 9.8,4.15 2.97,2.77 4.25,5.94 3.86,9.5 -0.79,14.64 -6.04,29.48 -15.73,44.52 -9.7,15.04 -24.34,27.7 -43.93,37.99 -19.59,10.29 -43.63,15.44 -72.13,15.44z"/>
  <path id="33" class="fil1" d="M6267.84 3084.08c-19.39,0 -37.3,-3.96 -53.72,-11.88 -16.42,-7.91 -29.48,-18.7 -39.18,-32.35 -9.69,-13.65 -14.54,-28.79 -14.54,-45.41 0,-26.12 10.68,-47.49 32.05,-64.11 21.37,-16.62 50.46,-27.7 87.27,-33.24l89.04 -12.47 0 -17.22c0,-40.76 -23.55,-61.14 -70.64,-61.14 -18.21,0 -32.85,3.66 -43.93,10.98 -11.08,7.33 -19.19,15.93 -24.34,25.83 -1.58,3.95 -3.26,6.63 -5.04,8.01 -1.79,1.39 -4.26,2.08 -7.42,2.08l-23.16 0c-3.56,0 -6.62,-1.29 -9.2,-3.86 -2.57,-2.57 -3.86,-5.64 -3.86,-9.2 0,-9.1 4.26,-19.69 12.77,-31.76 8.51,-12.07 21.66,-22.56 39.47,-31.46 17.81,-8.91 39.58,-13.36 65.3,-13.36 44.32,0 76.08,10.29 95.28,30.87 19.19,20.58 28.79,46.3 28.79,77.17l0 192.93c0,3.95 -1.29,7.22 -3.86,9.79 -2.57,2.57 -5.84,3.86 -9.8,3.86l-26.11 0c-3.96,0 -7.13,-1.29 -9.5,-3.86 -2.38,-2.57 -3.56,-5.84 -3.56,-9.79l0 -26.12c-8.71,13.06 -21.37,23.94 -38,32.65 -16.62,8.7 -37.99,13.06 -64.11,13.06zm11.88 -43.34c26.11,0 47.48,-8.51 64.11,-25.52 16.62,-17.02 24.93,-41.75 24.93,-74.21l0 -16.62 -69.46 10.09c-28.49,3.96 -50.06,10.69 -64.7,20.19 -14.64,9.49 -21.96,21.37 -21.96,35.61 0,16.23 6.62,28.7 19.88,37.4 13.26,8.71 28.99,13.06 47.2,13.06z"/>
  <path id="34" class="fil1" d="M6494.6 3078.14c-3.56,0 -6.53,-1.19 -8.9,-3.56 -2.37,-2.38 -3.56,-5.34 -3.56,-8.91 0,-3.56 1.38,-7.32 4.15,-11.27l103.29 -134.16 -96.76 -127.63c-3.16,-4.35 -4.75,-7.92 -4.75,-10.69 0,-3.56 1.29,-6.53 3.86,-8.9 2.58,-2.38 5.44,-3.56 8.61,-3.56l28.49 0c5.94,0 11.09,3.16 15.44,9.5l80.14 103.88 80.14 -103.88c2.37,-3.17 4.65,-5.54 6.82,-7.13 2.18,-1.58 5.05,-2.37 8.61,-2.37l27.31 0c3.16,0 5.93,1.18 8.31,3.56 2.37,2.37 3.56,5.14 3.56,8.31 0,3.96 -1.39,7.72 -4.16,11.28l-97.94 128.81 103.29 132.98c2.77,3.95 4.15,7.71 4.15,11.27 0,3.57 -1.19,6.53 -3.56,8.91 -2.37,2.37 -5.34,3.56 -8.9,3.56l-29.09 0c-5.94,0 -11.08,-2.97 -15.44,-8.9l-84.88 -109.82 -84.89 109.82c-2.38,2.77 -4.65,4.94 -6.83,6.53 -2.17,1.58 -5.04,2.37 -8.61,2.37l-27.9 0z"/>
  <path id="35" class="fil1" d="M6823.47 3122.66c-3.57,0 -6.24,-1.19 -8.02,-3.56 -1.78,-2.37 -2.27,-5.34 -1.48,-8.9l13.06 -83.7c1.58,-11.48 7.12,-17.22 16.62,-17.22l37.99 0c2.77,0 5.15,1.09 7.12,3.26 1.98,2.18 2.97,4.46 2.97,6.83 0,3.17 -0.79,6.53 -2.37,10.09l-30.87 79.55c-3.56,9.1 -9.1,13.65 -16.62,13.65l-18.4 0z"/>
  <path id="36" class="fil1" d="M7314.99 3078.14c-3.96,0 -7.23,-1.29 -9.8,-3.86 -2.57,-2.57 -3.86,-5.84 -3.86,-9.79l0 -112.79c-20.58,19.39 -50.85,29.09 -90.82,29.09 -72.82,0 -109.23,-32.26 -109.23,-96.76l0 -100.92c0,-4.35 1.29,-7.72 3.86,-10.09 2.57,-2.38 5.84,-3.56 9.8,-3.56l26.71 0c3.96,0 7.22,1.28 9.79,3.86 2.58,2.57 3.86,5.83 3.86,9.79l0 97.35c0,18.21 5.15,31.37 15.44,39.48 10.28,8.11 26.71,12.17 49.27,12.17 26.12,0 46.2,-3.27 60.25,-9.8 14.05,-6.53 21.07,-17.31 21.07,-32.35l0 -106.85c0,-3.96 1.29,-7.22 3.86,-9.79 2.57,-2.58 5.84,-3.86 9.8,-3.86l27.9 0c3.95,0 7.22,1.28 9.79,3.86 2.57,2.57 3.86,5.83 3.86,9.79l0 281.38c0,3.95 -1.29,7.22 -3.86,9.79 -2.57,2.57 -5.84,3.86 -9.79,3.86l-27.9 0z"/>
  <path id="37" class="fil1" d="M7531.65 3084.08c-19.39,0 -37.3,-3.96 -53.72,-11.88 -16.42,-7.91 -29.48,-18.7 -39.18,-32.35 -9.69,-13.65 -14.54,-28.79 -14.54,-45.41 0,-26.12 10.68,-47.49 32.05,-64.11 21.37,-16.62 50.46,-27.7 87.27,-33.24l89.04 -12.47 0 -17.22c0,-40.76 -23.55,-61.14 -70.64,-61.14 -18.21,0 -32.85,3.66 -43.93,10.98 -11.08,7.33 -19.19,15.93 -24.34,25.83 -1.58,3.95 -3.26,6.63 -5.04,8.01 -1.79,1.39 -4.26,2.08 -7.42,2.08l-23.16 0c-3.56,0 -6.62,-1.29 -9.2,-3.86 -2.57,-2.57 -3.86,-5.64 -3.86,-9.2 0,-9.1 4.26,-19.69 12.77,-31.76 8.51,-12.07 21.66,-22.56 39.47,-31.46 17.81,-8.91 39.58,-13.36 65.3,-13.36 44.32,0 76.08,10.29 95.28,30.87 19.19,20.58 28.79,46.3 28.79,77.17l0 192.93c0,3.95 -1.29,7.22 -3.86,9.79 -2.57,2.57 -5.84,3.86 -9.8,3.86l-26.11 0c-3.96,0 -7.13,-1.29 -9.5,-3.86 -2.38,-2.57 -3.56,-5.84 -3.56,-9.79l0 -26.12c-8.71,13.06 -21.37,23.94 -38,32.65 -16.62,8.7 -37.99,13.06 -64.11,13.06zm11.88 -43.34c26.11,0 47.48,-8.51 64.11,-25.52 16.62,-17.02 24.93,-41.75 24.93,-74.21l0 -16.62 -69.46 10.09c-28.49,3.96 -50.06,10.69 -64.7,20.19 -14.64,9.49 -21.96,21.37 -21.96,35.61 0,16.23 6.62,28.7 19.88,37.4 13.26,8.71 28.99,13.06 47.2,13.06z"/>
  <path id="38" class="fil1" d="M7896.13 3084.08c-42.34,0 -75.39,-11.98 -99.13,-35.92 -23.74,-23.94 -36.21,-57.48 -37.4,-100.62l-0.59 -23.74 0.59 -23.75c1.19,-43.13 13.66,-76.67 37.4,-100.61 23.74,-23.95 56.79,-35.92 99.13,-35.92 28.5,0 52.54,5.05 72.13,15.14 19.59,10.09 34.23,22.66 43.93,37.69 9.69,15.04 14.94,30.08 15.73,45.12 0.39,3.56 -0.89,6.73 -3.86,9.5 -2.97,2.77 -6.23,4.15 -9.8,4.15l-26.11 0c-3.96,0 -6.93,-0.89 -8.91,-2.67 -1.98,-1.78 -3.96,-5.05 -5.93,-9.79 -7.13,-19.4 -16.92,-33.15 -29.39,-41.26 -12.47,-8.11 -28.2,-12.17 -47.19,-12.17 -24.93,0 -44.72,7.72 -59.36,23.15 -14.65,15.44 -22.56,38.98 -23.75,70.64l-0.59 20.78 0.59 20.78c1.19,31.66 9.1,55.2 23.75,70.64 14.64,15.43 34.43,23.15 59.36,23.15 19.39,0 35.22,-4.06 47.49,-12.17 12.27,-8.11 21.96,-21.87 29.09,-41.26 1.97,-4.75 3.95,-8.01 5.93,-9.79 1.98,-1.78 4.95,-2.67 8.91,-2.67l26.11 0c3.57,0 6.83,1.38 9.8,4.15 2.97,2.77 4.25,5.94 3.86,9.5 -0.79,14.64 -6.04,29.48 -15.73,44.52 -9.7,15.04 -24.34,27.7 -43.93,37.99 -19.59,10.29 -43.63,15.44 -72.13,15.44z"/>
  <path id="39" class="fil1" d="M8193.54 3078.14c-3.96,0 -7.23,-1.29 -9.8,-3.86 -2.57,-2.57 -3.86,-5.84 -3.86,-9.79l0 -249.32 -103.88 0c-3.96,0 -7.22,-1.19 -9.79,-3.57 -2.58,-2.37 -3.86,-5.54 -3.86,-9.49l0 -19c0,-3.96 1.28,-7.22 3.86,-9.79 2.57,-2.58 5.83,-3.86 9.79,-3.86l260.6 0c3.96,0 7.12,1.28 9.5,3.86 2.37,2.57 3.56,5.83 3.56,9.79l0 19c0,3.95 -1.19,7.12 -3.56,9.49 -2.38,2.38 -5.54,3.57 -9.5,3.57l-103.88 0 0 249.32c0,3.95 -1.29,7.22 -3.86,9.79 -2.57,2.57 -5.84,3.86 -9.8,3.86l-25.52 0z"/>
  <path id="40" class="fil1" d="M8416.14 3078.14c-3.95,0 -7.22,-1.29 -9.79,-3.86 -2.57,-2.57 -3.86,-5.84 -3.86,-9.79l0 -281.38c0,-3.96 1.29,-7.22 3.86,-9.79 2.57,-2.58 5.84,-3.86 9.79,-3.86l26.12 0c3.96,0 7.23,1.28 9.8,3.86 2.57,2.57 3.86,5.83 3.86,9.79l0 114.57 163.84 0 0 -114.57c0,-3.96 1.28,-7.22 3.85,-9.79 2.58,-2.58 5.84,-3.86 9.8,-3.86l26.12 0c4.35,0 7.72,1.18 10.09,3.56 2.37,2.37 3.56,5.74 3.56,10.09l0 281.38c0,3.95 -1.28,7.22 -3.86,9.79 -2.57,2.57 -5.83,3.86 -9.79,3.86l-26.12 0c-3.96,0 -7.22,-1.29 -9.8,-3.86 -2.57,-2.57 -3.85,-5.84 -3.85,-9.79l0 -121.1 -163.84 0 0 121.1c0,3.95 -1.29,7.22 -3.86,9.79 -2.57,2.57 -5.84,3.86 -9.8,3.86l-26.12 0z"/>
  <path id="41" class="fil1" d="M8776.47 3078.14c-3.95,0 -7.22,-1.29 -9.79,-3.86 -2.57,-2.57 -3.86,-5.84 -3.86,-9.79l0 -281.38c0,-3.96 1.29,-7.22 3.86,-9.79 2.57,-2.58 5.84,-3.86 9.79,-3.86l26.12 0c3.96,0 7.23,1.28 9.8,3.86 2.57,2.57 3.86,5.83 3.86,9.79l0 87.26 62.33 0c38.78,0 67.77,9.3 86.96,27.9 19.2,18.6 28.79,44.52 28.79,77.77 0,34.82 -10.19,60.55 -30.57,77.17 -20.38,16.62 -51.35,24.93 -92.9,24.93l-94.39 0zm274.26 0c-3.96,0 -7.23,-1.29 -9.8,-3.86 -2.57,-2.57 -3.86,-5.84 -3.86,-9.79l0 -281.38c0,-3.96 1.29,-7.22 3.86,-9.79 2.57,-2.58 5.84,-3.86 9.8,-3.86l26.12 0c3.95,0 7.22,1.28 9.79,3.86 2.57,2.57 3.86,5.83 3.86,9.79l0 281.38c0,3.95 -1.29,7.22 -3.86,9.79 -2.57,2.57 -5.84,3.86 -9.79,3.86l-26.12 0zm-176.9 -43.33c24.53,0 42.34,-4.46 53.42,-13.36 11.09,-8.91 16.63,-24.04 16.63,-45.41 0,-20.98 -5.54,-36.61 -16.63,-46.9 -11.08,-10.29 -28.89,-15.43 -53.42,-15.43l-58.18 0 0 121.1 58.18 0z"/>
  <path id="42" class="fil1" d="M9165.88 3078.14c-3.56,0 -6.53,-1.19 -8.9,-3.56 -2.37,-2.38 -3.56,-5.34 -3.56,-8.91 0,-3.56 1.38,-7.32 4.15,-11.27l103.29 -134.16 -96.76 -127.63c-3.16,-4.35 -4.75,-7.92 -4.75,-10.69 0,-3.56 1.29,-6.53 3.86,-8.9 2.58,-2.38 5.44,-3.56 8.61,-3.56l28.49 0c5.94,0 11.09,3.16 15.44,9.5l80.14 103.88 80.14 -103.88c2.37,-3.17 4.65,-5.54 6.82,-7.13 2.18,-1.58 5.05,-2.37 8.61,-2.37l27.31 0c3.16,0 5.93,1.18 8.31,3.56 2.37,2.37 3.56,5.14 3.56,8.31 0,3.96 -1.39,7.72 -4.16,11.28l-97.94 128.81 103.29 132.98c2.77,3.95 4.15,7.71 4.15,11.27 0,3.57 -1.19,6.53 -3.56,8.91 -2.37,2.37 -5.34,3.56 -8.9,3.56l-29.09 0c-5.94,0 -11.08,-2.97 -15.44,-8.9l-84.88 -109.82 -84.89 109.82c-2.38,2.77 -4.65,4.94 -6.83,6.53 -2.17,1.58 -5.04,2.37 -8.61,2.37l-27.9 0z"/>
  <path id="43" class="fil1" d="M9626.53 3143.44c-3.96,0 -7.22,-1.19 -9.8,-3.56 -2.57,-2.38 -3.85,-5.74 -3.85,-10.1l0 -84.29c0,-3.96 1.28,-7.22 3.85,-9.79 2.58,-2.58 5.84,-3.86 9.8,-3.86l2.97 0c16.62,0 29.18,-13.85 37.69,-41.56 8.51,-27.7 12.77,-71.43 12.77,-131.19l0 -75.98c0,-3.96 1.28,-7.22 3.85,-9.79 2.58,-2.58 5.84,-3.86 9.8,-3.86l187.58 0c4.36,0 7.72,1.18 10.09,3.56 2.38,2.37 3.57,5.74 3.57,10.09l0 248.13 27.9 0c4.35,0 7.71,1.19 10.09,3.57 2.37,2.37 3.56,5.73 3.56,10.09l0 84.88c0,4.36 -1.19,7.72 -3.56,10.1 -2.38,2.37 -5.74,3.56 -10.09,3.56l-26.12 0c-3.96,0 -7.13,-1.29 -9.5,-3.86 -2.38,-2.57 -3.56,-5.84 -3.56,-9.8l0 -51.64 -217.27 0 0 51.64c0,3.96 -1.28,7.23 -3.86,9.8 -2.57,2.57 -5.83,3.86 -9.79,3.86l-26.12 0zm214.89 -112.2l0 -216.07 -109.23 0 0 49.86c0,80.73 -11.47,136.34 -34.43,166.81l143.66 -0.6z"/>
  <path id="44" class="fil1" d="M10124.58 3084.08c-43.54,0 -77.08,-12.27 -100.62,-36.81 -23.55,-24.53 -36.12,-57.18 -37.7,-97.95l-0.59 -25.52 0.59 -25.53c1.58,-40.76 14.35,-73.41 38.29,-97.94 23.94,-24.54 57.28,-36.81 100.03,-36.81 42.74,0 76.08,12.27 100.02,36.81 23.94,24.53 36.71,57.18 38.29,97.94 0.79,8.71 1.19,17.22 1.19,25.53 0,8.31 -0.4,16.82 -1.19,25.52 -1.58,40.77 -14.15,73.42 -37.7,97.95 -23.54,24.54 -57.08,36.81 -100.61,36.81zm0 -44.53c25.32,0 45.41,-8.01 60.25,-24.04 14.84,-16.02 22.85,-39.08 24.04,-69.15 0.4,-3.96 0.59,-11.48 0.59,-22.56 0,-11.08 -0.19,-18.6 -0.59,-22.56 -1.19,-30.08 -9.2,-53.13 -24.04,-69.16 -14.84,-16.02 -34.93,-24.04 -60.25,-24.04 -25.33,0 -45.42,8.02 -60.26,24.04 -14.84,16.03 -22.85,39.08 -24.04,69.16l-0.59 22.56 0.59 22.56c1.19,30.07 9.2,53.13 24.04,69.15 14.84,16.03 34.93,24.04 60.26,24.04z"/>
  <path id="45" class="fil1" d="M10641.02 2769.46c3.17,0 5.94,1.18 8.31,3.56 2.38,2.37 3.57,4.95 3.57,7.72l0 284.34c0,3.96 -1.19,7.12 -3.57,9.5 -2.37,2.37 -5.54,3.56 -9.49,3.56l-26.72 0c-3.95,0 -7.12,-1.19 -9.49,-3.56 -2.38,-2.38 -3.57,-5.54 -3.57,-9.5l0 -198.86 -77.17 146.62c-2.77,5.54 -5.44,9.6 -8.01,12.17 -2.57,2.57 -6.43,3.86 -11.58,3.86l-14.84 0c-5.14,0 -9,-1.29 -11.57,-3.86 -2.57,-2.57 -5.25,-6.63 -8.02,-12.17l-77.17 -143.06 0 195.3c0,3.96 -1.18,7.12 -3.56,9.5 -2.37,2.37 -5.54,3.56 -9.5,3.56l-26.71 0c-3.96,0 -7.12,-1.19 -9.5,-3.56 -2.37,-2.38 -3.56,-5.54 -3.56,-9.5l0 -284.34c0,-2.77 1.19,-5.35 3.56,-7.72 2.38,-2.38 5.15,-3.56 8.31,-3.56l28.5 0c6.33,0 11.08,3.16 14.24,9.5l102.11 190.55 102.69 -190.55c3.17,-6.34 7.92,-9.5 14.25,-9.5l28.49 0z"/>
  <path id="46" class="fil1" d="M10828.01 3084.08c-19.39,0 -37.3,-3.96 -53.72,-11.88 -16.42,-7.91 -29.48,-18.7 -39.18,-32.35 -9.69,-13.65 -14.54,-28.79 -14.54,-45.41 0,-26.12 10.68,-47.49 32.05,-64.11 21.37,-16.62 50.46,-27.7 87.27,-33.24l89.04 -12.47 0 -17.22c0,-40.76 -23.55,-61.14 -70.64,-61.14 -18.21,0 -32.85,3.66 -43.93,10.98 -11.08,7.33 -19.19,15.93 -24.34,25.83 -1.58,3.95 -3.26,6.63 -5.04,8.01 -1.79,1.39 -4.26,2.08 -7.42,2.08l-23.16 0c-3.56,0 -6.62,-1.29 -9.2,-3.86 -2.57,-2.57 -3.86,-5.64 -3.86,-9.2 0,-9.1 4.26,-19.69 12.77,-31.76 8.51,-12.07 21.66,-22.56 39.47,-31.46 17.81,-8.91 39.58,-13.36 65.3,-13.36 44.32,0 76.08,10.29 95.28,30.87 19.19,20.58 28.79,46.3 28.79,77.17l0 192.93c0,3.95 -1.29,7.22 -3.86,9.79 -2.57,2.57 -5.84,3.86 -9.8,3.86l-26.11 0c-3.96,0 -7.13,-1.29 -9.5,-3.86 -2.38,-2.57 -3.56,-5.84 -3.56,-9.79l0 -26.12c-8.71,13.06 -21.37,23.94 -38,32.65 -16.62,8.7 -37.99,13.06 -64.11,13.06zm11.88 -43.34c26.11,0 47.48,-8.51 64.11,-25.52 16.62,-17.02 24.93,-41.75 24.93,-74.21l0 -16.62 -69.46 10.09c-28.49,3.96 -50.06,10.69 -64.7,20.19 -14.64,9.49 -21.96,21.37 -21.96,35.61 0,16.23 6.62,28.7 19.88,37.4 13.26,8.71 28.99,13.06 47.2,13.06z"/>
  <path id="47" class="fil1" d="M11054.77 3078.14c-3.56,0 -6.53,-1.19 -8.9,-3.56 -2.37,-2.38 -3.56,-5.34 -3.56,-8.91 0,-3.56 1.38,-7.32 4.15,-11.27l103.29 -134.16 -96.76 -127.63c-3.16,-4.35 -4.75,-7.92 -4.75,-10.69 0,-3.56 1.29,-6.53 3.86,-8.9 2.58,-2.38 5.44,-3.56 8.61,-3.56l28.49 0c5.94,0 11.09,3.16 15.44,9.5l80.14 103.88 80.14 -103.88c2.37,-3.17 4.65,-5.54 6.82,-7.13 2.18,-1.58 5.05,-2.37 8.61,-2.37l27.31 0c3.16,0 5.93,1.18 8.31,3.56 2.37,2.37 3.56,5.14 3.56,8.31 0,3.96 -1.39,7.72 -4.16,11.28l-97.94 128.81 103.29 132.98c2.77,3.95 4.15,7.71 4.15,11.27 0,3.57 -1.19,6.53 -3.56,8.91 -2.37,2.37 -5.34,3.56 -8.9,3.56l-29.09 0c-5.94,0 -11.08,-2.97 -15.44,-8.9l-84.88 -109.82 -84.89 109.82c-2.38,2.77 -4.65,4.94 -6.83,6.53 -2.17,1.58 -5.04,2.37 -8.61,2.37l-27.9 0z"/>
 </g>
</svg>
