<svg xmlns="http://www.w3.org/2000/svg" width="112.677" height="112.751" viewBox="0 0 112.677 112.751">
  <g id="Безымянный-2" transform="translate(-998.935 -885.479)" opacity="0.8">
    <path id="Path_20" data-name="Path 20" d="M970,919.535l1.605-2.781a63.586,63.586,0,0,1,3.6-5.252l1.669-2.02c.14-.157.216-.2.355-.382a33.426,33.426,0,0,1,2.909-2.994c.583-.445,1.31-1.187,1.9-1.714a33.8,33.8,0,0,1,3.751-2.89,55.418,55.418,0,0,1,8.512-4.769c1.366-.6,2.748-1.121,4.217-1.612,1.49-.5,3.045-.887,4.639-1.264a50.257,50.257,0,0,1,21.231-.055c1.574.335,3.094.822,4.651,1.251,1.048.289,3.82,1.5,4.3,1.608-.048.572-.956,1.787-1.107,2.435a8.194,8.194,0,0,1-.959-.369c-1.293-.518-2.624-1.017-3.976-1.411a47.528,47.528,0,0,0-9.16-1.76l-3.906-.226a50,50,0,0,0-9.861.99l-6.343,1.847a18.9,18.9,0,0,0-1.95.781c.151.285.238.553.393.862l4.526,9.271c.278.555,1.556,3.048,1.648,3.443l2.149-.728c.737-.249,1.49-.414,2.278-.6a42.821,42.821,0,0,1,5.028-.727,31.153,31.153,0,0,1,12.511,1.855l2.045.832c.711.3,1.264.6,1.937.941l1.818,1.06a32.108,32.108,0,0,1,3.371,2.384l1.53,1.347a10.433,10.433,0,0,1,1.421,1.457,12,12,0,0,1-2.066,1.549,3.78,3.78,0,0,1-.571-.535c-.239-.242-.4-.331-.629-.552a28.166,28.166,0,0,0-3.994-3.089,20.937,20.937,0,0,0-3-1.726,35.7,35.7,0,0,0-3.365-1.357,32.984,32.984,0,0,0-5.665-1.345c-.331-.048-.78-.09-1.078-.1a28.687,28.687,0,0,0-9.665.811c-3.555.881-8.854,3.43-11.565,6.07-.227.221-.39.31-.628.553l-.585.522a29.948,29.948,0,0,0-3.78,4.484,26.968,26.968,0,0,0-1.766,2.956c-.268.536-.554,1.055-.786,1.575l-.665,1.7a3.974,3.974,0,0,1-.594-.07c-.236-.019-.5.005-.736,0l-1.4-.076c.086-1.035,1.7-4.1,2.288-5.238a26.88,26.88,0,0,1,3.45-4.961l2.285-2.438c.2-.188.314-.247.518-.441l1.5-1.3c.193-.153.328-.261.539-.42l1.636-1.168a4.451,4.451,0,0,1,1.21-.709,18.2,18.2,0,0,0-1.574-3.443l-3.271-6.764c-.291-.582-.56-1.108-.837-1.671a13.956,13.956,0,0,1-.811-1.772,5.711,5.711,0,0,0-1.269.65c-.41.259-.767.479-1.181.738a43.758,43.758,0,0,0-6.532,5.126l-1,.921c-.338.338-.62.623-.959.959a5.4,5.4,0,0,0-.446.514l-1.4,1.552c-.615.691-1.169,1.432-1.731,2.18-.585.779-1.065,1.472-1.615,2.3a43.723,43.723,0,0,0-2.834,4.913l-1.191,2.72a59.957,59.957,0,0,0-2,5.75,58.34,58.34,0,0,0-1.271,6.55,25.571,25.571,0,0,0-.263,3.574c-.291.952.045,6.06.253,7.568a44.793,44.793,0,0,0,2.6,10.678c.648,1.612,1.226,3.127,1.988,4.653a54.823,54.823,0,0,0,3.494,5.8c.355.5.73,1.038,1.129,1.527.218.267.369.482.584.744a9.084,9.084,0,0,1,.573.755c-.3.345-.568.682-.868,1.05a7.018,7.018,0,0,1-.9,1.016c-.182-.272-.282-.365-.485-.622l-1.454-1.866c-.843-1.123-1.92-2.791-2.639-4l-1.595-2.833c-.137-.276-.231-.463-.369-.738-.15-.3-.223-.512-.368-.813-.492-1.023-.922-2.036-1.343-3.084-.434-1.08-.763-2.13-1.146-3.281a51.051,51.051,0,0,1-1.33-5.31c-.3-1.5-.387-2.438-.591-3.91-.22-1.583-.253-3.552-.34-5.2-.023-.428.079-.572.079-1.028a43.562,43.562,0,0,1,.8-8.126,49.444,49.444,0,0,1,3.771-11.724A7.072,7.072,0,0,0,970,919.535Zm3.722,25.911A13.722,13.722,0,0,0,973.61,944a38.8,38.8,0,0,1-.033-3.956c.011-.365.068-.368.077-.735.165-6.453,2.944-13.959,6.285-19.17a34.709,34.709,0,0,1,3.768-4.939,4.251,4.251,0,0,0,.372-.44l3.2-3.14c.181-.176.263-.2.444-.368s.25-.215.438-.373a9.68,9.68,0,0,1,.908-.715,26.085,26.085,0,0,0,1.181,2.509,3.738,3.738,0,0,0-.68.5c-.229.2-.4.347-.63.55l-3.528,3.556c-1.033,1.334-2.117,2.618-3.056,4.027-.309.464-.629.932-.911,1.45a45.331,45.331,0,0,0-2.347,4.736,34.985,34.985,0,0,0-2.128,7.316,13.074,13.074,0,0,0-.3,2.14c1.189.1,2.443.206,3.692.219l11.286.667.949-3.478a24.318,24.318,0,0,1,1.387-3.114,23.619,23.619,0,0,1,2.723-3.992,21.747,21.747,0,0,1,6.133-5.083,22.924,22.924,0,0,1,6.559-2.442,23.568,23.568,0,0,1,8.222-.117,22.639,22.639,0,0,1,10.715,4.928l1.221,1.066c.2.2.35.351.553.554a22.26,22.26,0,0,1,3.375,4.52c.764-.511,1.506-1.167,2.256-1.729l8.264-6.345c.517-.387.995-.806,1.507-1.149-.492-.734-.955-1.42-1.486-2.129l-1.613-2c-.153-.2-.26-.273-.421-.465a5.088,5.088,0,0,0-.409-.477l-2.817-2.717c-.344-.266-.614-.536-.951-.82a33.7,33.7,0,0,0-6.569-4.351l-1.23-.615a37,37,0,0,0-5.211-2.02c-.456-.149-.909-.267-1.385-.386-.538-.134-.929-.245-1.489-.355a37.513,37.513,0,0,0-16.485.1c-.2-.377-.437-.823-.612-1.233a11.855,11.855,0,0,1-.569-1.276,49.876,49.876,0,0,1,8.266-1.105c.489,0,.636-.077,1.1-.078h1.186l2.213.148a39.648,39.648,0,0,1,16.354,4.9c.532.286.978.585,1.5.861l2.533-4.993c.753-1.506,4.207-7.934,4.255-8.51l-4.576-2.36-3.7-1.539a46.464,46.464,0,0,0-6.709-2.071c-.958-.2-1.869-.432-2.872-.6a64.81,64.81,0,0,0-9.829-.885h-1.042a47.429,47.429,0,0,0-5.449.355,58.747,58.747,0,0,0-8.751,1.727,67.761,67.761,0,0,0-6.435,2.271,49.29,49.29,0,0,0-8.028,4.22c-.717.46-1.419.927-2.111,1.43-1.343.977-2.729,1.93-3.97,3.039l-4.908,4.684c-.6.589-1.1,1.255-1.66,1.882l-1.161,1.421c-.26.333-.506.638-.781.99a45.954,45.954,0,0,0-4.163,6.42c-.321.345-1.889,3.651-2.165,4.222-.726,1.5-1.255,3.171-1.841,4.652a52.077,52.077,0,0,0-2.118,8.064,65.547,65.547,0,0,0-.885,8.843v2.987a55.247,55.247,0,0,0,2.979,16.107c.238.719.51,1.45.773,2.1a52.235,52.235,0,0,0,3.75,7.834c.372.619.687,1.2,1.085,1.792s.765,1.146,1.151,1.726c.761,1.142,1.622,2.274,2.492,3.337l.959,1.181a5.212,5.212,0,0,1,.344.394,44.749,44.749,0,0,0,4.322,4.384l9.28-11.232c.172-.187.172-.142.238-.426-.263-.393-.783-.782-1.114-1.174l-2.19-2.533c-.362-.442-.7-.868-1.04-1.321a39.178,39.178,0,0,1-5.08-9.013,34.246,34.246,0,0,1-1.217-3.5,39.057,39.057,0,0,1-1.291-5.792,17.067,17.067,0,0,1-.243-2.106Zm55.339,43.262a20.782,20.782,0,0,0-2.36.628c-1.413.374-3.528.866-4.965,1.086a48.383,48.383,0,0,1-16.8-.2,69.62,69.62,0,0,1-7.222-1.927c-1.443-.483-2.913-1.145-4.309-1.741-.373-.159-.617-.319-1-.474l-3.035-1.613,1.3-1.581a1.739,1.739,0,0,1,.474-.485,50.185,50.185,0,0,0,6.355,2.942c.387.139.719.287,1.124.425.439.149.793.263,1.218.406,1.234.414,3.667,1.024,4.984,1.287.889.178,1.778.325,2.648.451,1.969.286,3.125.306,5,.461a52.952,52.952,0,0,0,6.7-.3,48.942,48.942,0,0,0,12.476-3.24,5.1,5.1,0,0,0-.39-.864c-.148-.347-.234-.532-.4-.858l-.836-1.672c-.278-.555-.534-1.143-.812-1.7l-2.46-5.067c-.293-.586-.541-1.087-.836-1.672-.3-.6-.533-1.173-.836-1.746a2.7,2.7,0,0,0-.783.25,31.52,31.52,0,0,1-29.342-4.582c-.208-.156-.4-.281-.586-.447l-2.844-2.542-2-2.28a33.119,33.119,0,0,1-3.031-4.421c-.139-.241-.266-.448-.4-.708s-.226-.456-.344-.689c-.129-.255-.21-.485-.344-.763a34.882,34.882,0,0,1-2.164-6.468c.71,0,1.271.039,1.993.073.794.037.713.067.8.233.034.064.164.681.206.827a36.12,36.12,0,0,0,1.355,3.81,17.375,17.375,0,0,0,1.043,2.056l1.166,1.933a26.743,26.743,0,0,0,1.764,2.442l.472.561c.2.211.289.359.478.555a17.308,17.308,0,0,0,1.58,1.592l1.077.989a29.728,29.728,0,0,0,6.289,4.115,25.921,25.921,0,0,0,6.125,2.139,24.581,24.581,0,0,0,3.622.584,28.981,28.981,0,0,0,11.127-1.184l2.286-.813c.184-.073.589-.165.7-.358a2.67,2.67,0,0,0,1.037-.418,27.716,27.716,0,0,0,8.184-5.909c.272-.268.4-.475.663-.739l.664-.738c.549-.586,1.646-2.209,1.9-2.379a5.668,5.668,0,0,1,1.13.567,7.38,7.38,0,0,0,1.157.54,18.193,18.193,0,0,1-2.023,2.847l-2.386,2.557c-.609.61-.759.673-1.29,1.145-.456.406-.855.719-1.328,1.107a17.079,17.079,0,0,1-1.415,1.02c-.28.186-.469.332-.741.514s-.523.3-.779.475a29.819,29.819,0,0,0,1.581,3.437c.237.575.55,1.119.83,1.679l4.083,8.461a4.644,4.644,0,0,0,1.166-.678c.423-.265.748-.473,1.165-.753,1.51-1.011,3.063-1.975,4.48-3.12a43.187,43.187,0,0,0,7.439-7.76l1.227-1.651a7.827,7.827,0,0,0,.756-1.089,47.118,47.118,0,0,0,6.473-15.441l.6-3.238c.176-1.033-.16-1.011.906-.886l1.834.085a45.925,45.925,0,0,1-1.55,7.747,46.406,46.406,0,0,1-2.508,6.789,47.767,47.767,0,0,1-5.187,8.758l-2.288,2.877c-.107.127-.183.178-.291.3a49.662,49.662,0,0,1-4.058,4.132,3.322,3.322,0,0,1-.288.228l-.631.55a47.854,47.854,0,0,1-13.352,8.193c-.3.135-.555.23-.846.335l-1.715.646c-.184.063-.261.083-.445.143l-.413.215Zm-7.6-25.492a1.727,1.727,0,0,0-.785.175,23,23,0,0,1-15.45-.688l-1.471-.668a25.73,25.73,0,0,1-2.679-1.6c-.22-.165-.376-.262-.6-.432-.241-.181-.4-.308-.623-.484a21.456,21.456,0,0,1-2.722-2.591,27.719,27.719,0,0,1-2.306-3.007,23.187,23.187,0,0,1-2.118-4.3,18.456,18.456,0,0,1-1.209-5.21c-.1-1.08.147-1.125-1.027-1.112l-4.06-.22c-.421,0-.509-.08-.954-.079-1.11,0-3.022-.23-4.061-.219-.477.005-.636-.065-1.03-.077l-3.029-.144c-.474,0-.6-.075-1.032-.075a18.653,18.653,0,0,0,.127,2.455c.082.6.046,1.381.22,2.436a47.565,47.565,0,0,0,1.5,6.324c.2.664.475,1.283.71,1.946.114.323.234.573.372.883a40.445,40.445,0,0,0,4.293,7.512c.389.53.751.973,1.16,1.5l1.821,2.09,3.064,2.913a36.975,36.975,0,0,0,8.354,5.37,30.613,30.613,0,0,0,3.773,1.54,41.527,41.527,0,0,0,6.316,1.579l3.5.411c.424.048.857-.023,1.286.042a39.148,39.148,0,0,0,7.3-.505,16.792,16.792,0,0,1,2.245-.411c.2.846.913,1.6,1.107,2.435a7.684,7.684,0,0,1-1.015.24,40.316,40.316,0,0,1-23.682-2.032l-5.274-2.621c-.3-.178-.536-.3-.84-.488s-.5-.325-.812-.517l-1.581-1.076a3,3,0,0,0-.632.7c-.2.261-.388.483-.6.725l-1.2,1.457c-.186.239-.4.48-.607.721l-6,7.279a2.325,2.325,0,0,0-.548.78l6.42,4.132c.253.125.424.246.663.37a51.841,51.841,0,0,0,6.6,3,57.063,57.063,0,0,0,10.071,2.768l7.674.8h3.927c.092-.009.178-.019.258-.031.569-.086,1.439-.089,2.023-.117a56.423,56.423,0,0,0,9.12-1.5,47.322,47.322,0,0,0,6.476-2.11c1.03-.1,6.494-2.98,7.347-3.472,1.383-.8,3.606-2.152,4.959-3.157l5.54-4.569a26.53,26.53,0,0,0,2.066-2.066c.548-.592,1.156-1.11,1.648-1.746.993-1.284,2.12-2.474,3.056-3.806.37-.527.725-1.013,1.093-1.564a65.441,65.441,0,0,0,4.024-6.9,54.739,54.739,0,0,0,5.1-16.668l.468-5.516c.009-.173.015-.332.016-.5v-.313q0-.57,0-1.14v-.088c-.709,0-1.22-.038-1.919-.073-.521-.027-1.323-.121-1.844-.148-1.292-.068-2.542-.119-3.767-.217-.678-.054-1.225-.041-1.915-.077-.522-.028-1.322-.121-1.844-.148l-3.323-.158c-.272-.025-.271-.1-.378.006s-.1,3.406-.147,3.83c-.129,1.209-.278,2.365-.443,3.541l-1.6,6.367a19.937,19.937,0,0,1-1.117,2.868c-.106.218-.188.45-.294.665a44.333,44.333,0,0,1-3.217,5.784,35.9,35.9,0,0,1-3.479,4.49l-.96,1.032a20.572,20.572,0,0,1-3.235,2.741,6.171,6.171,0,0,1-1.21.782c-.139-.6-.914-1.6-.959-2.14a17.083,17.083,0,0,1,1.688-1.485,38.548,38.548,0,0,0,7.116-8.748l1.65-3.146a3.844,3.844,0,0,0,.467-1.156c-.589-.394-7.1-3.775-7.477-3.96l-2.527-1.31c-.339-.2-2.97-1.651-3.351-1.74-.19.4-.319.861-.516,1.255a25.28,25.28,0,0,1-2.741,4.637l-1.7,1.984a7.441,7.441,0,0,1-.941.9,8.889,8.889,0,0,1-1.339-1.686l-2.013-2.635-.664-.885-.664-.885a4.244,4.244,0,0,1-.632-.917c-.376.1-1.026.846-1.379,1.13a12.993,12.993,0,0,1-1.513,1.07,12.86,12.86,0,0,1-3.557,1.534,13.894,13.894,0,0,1-6.819.089,14.662,14.662,0,0,1-5.169-2.5,13.6,13.6,0,0,1-5.25-10.1,15.978,15.978,0,0,1,.526-4.568,12.514,12.514,0,0,1,1.6-3.491,13.642,13.642,0,0,1,15.962-5.6,12.48,12.48,0,0,1,3.416,1.749l1.444,1.138c.332-.628,2.574-5.011,2.73-5.681a11.115,11.115,0,0,0-2.932-1.938c-.2-.1-.351-.162-.557-.254-.235-.106-.357-.184-.6-.285a20.391,20.391,0,0,0-11.352-1.378,26.967,26.967,0,0,0-2.663.657,23.644,23.644,0,0,0-2.377.943,8.642,8.642,0,0,0-1.068.556c-.383.222-.692.367-1.074.623a20.262,20.262,0,0,0-7.649,8.952,19.167,19.167,0,0,0-1.455,5.185,20.3,20.3,0,0,0,1.721,11.191,16.749,16.749,0,0,0,2.577,4.063,22.726,22.726,0,0,0,2.882,2.873,19.56,19.56,0,0,0,4.678,2.849,23.362,23.362,0,0,0,2.447.873,16.848,16.848,0,0,0,2.745.575,20.716,20.716,0,0,0,10.019-1.259c.324-.123.873-.432,1.191-.506a11.321,11.321,0,0,1,1.623,2.14l-2.226,1.015A.6.6,0,0,0,1021.465,963.215Z" transform="translate(41.408 0)" fill="none" stroke="#e78319" stroke-miterlimit="22.926" stroke-width="2" fill-rule="evenodd"/>
  </g>
</svg>
